SplineFontDB: 3.2
FontName: NKL_Mikhak-Medium
FullName: NKL Mikhak Medium
FamilyName: NKL Mikhak Medium
Weight: Medium
Copyright: Copyright (c) 2019, Amin Abedi (www.fontamin.com|aminabedi68@gmail.com),\nwith Reserved Font Name Mikhak.\n\nThis Font Software is licensed under the SIL Open Font License, Version 1.1.\nThis license is available with a FAQ at: http://scripts.sil.org/OFL\n\nModified for Jawi script only at 17.9.2021 by niskala5570@gmail.com
Version: 2.727 Jawi
ItalicAngle: 0
UnderlinePosition: -450
UnderlineWidth: 100
Ascent: 1638
Descent: 410
InvalidEm: 0
sfntRevision: 0x00023cac
LayerCount: 2
Layer: 0 1 "Back" 1
Layer: 1 1 "Fore" 0
XUID: [1021 250 -1551560589 17401]
StyleMap: 0x0000
FSType: 0
OS2Version: 4
OS2_WeightWidthSlopeOnly: 0
OS2_UseTypoMetrics: 0
CreationTime: 1569500574
ModificationTime: 1631810014
PfmFamily: 17
TTFWeight: 500
TTFWidth: 5
LineGap: 0
VLineGap: 0
Panose: 2 0 6 3 0 0 0 0 0 0
OS2TypoAscent: 2200
OS2TypoAOffset: 0
OS2TypoDescent: -1200
OS2TypoDOffset: 0
OS2TypoLinegap: 0
OS2WinAscent: 2200
OS2WinAOffset: 0
OS2WinDescent: 1200
OS2WinDOffset: 0
HheadAscent: 2200
HheadAOffset: 0
HheadDescent: -1200
HheadDOffset: 0
OS2SubXSize: 1277
OS2SubYSize: 1185
OS2SubXOff: 0
OS2SubYOff: 256
OS2SupXSize: 1277
OS2SupYSize: 1185
OS2SupXOff: 0
OS2SupYOff: 870
OS2StrikeYSize: 91
OS2StrikeYPos: 766
OS2Vendor: 'AA68'
OS2CodePages: 00000041.00000000
OS2UnicodeRanges: 8000200f.d0000000.00000008.00000000
Lookup: 4 1 0 "'ccmp' Glyph Composition/Decomposition in Arabic lookup 0" { "'ccmp' Glyph Composition/Decomposition in Arabic lookup 0 subtable"  } ['ccmp' ('arab' <'FAR ' 'dflt' > ) ]
Lookup: 1 9 0 "Single Substitution lookup 1" { "Single Substitution lookup 1 subtable"  } []
Lookup: 2 9 0 "Multiple Substitution lookup 2" { "Multiple Substitution lookup 2 subtable"  } []
Lookup: 2 9 0 "Multiple Substitution lookup 3" { "Multiple Substitution lookup 3 subtable"  } []

StartChar: exclam
Encoding: 1 33 1
Width: 583
GlyphClass: 2
Flags: W
LayerCount: 2
Fore
SplineSet
420 85 m 0,0,1
 420 31 420 31 380 -9 c 0,2,3
 345 -42 345 -42 298 -42 c 0,4,5
 238 -42 238 -42 197 -3 c 0,6,7
 162 31 162 31 162 84 c 0,8,9
 162 150 162 150 216 190 c 0,10,11
 251 216 251 216 294 216 c 0,12,13
 365 216 365 216 401 153 c 0,14,15
 420 120 420 120 420 85 c 0,0,1
238 1448 m 0,16,17
 286 1454 286 1454 317 1415 c 0,18,19
 333 1395 333 1395 336 1372 c 0,20,21
 381 1038 381 1038 382 637 c 0,22,23
 382 617 382 617 382 597 c 2,24,-1
 382 472 l 2,25,26
 381 422 381 422 337 399 c 0,27,28
 317 388 317 388 294 388 c 0,29,30
 245 388 245 388 219 430 c 0,31,32
 206 452 206 452 206 476 c 0,33,34
 208 558 208 558 208 597 c 0,35,36
 208 1000 208 1000 173 1279 c 0,37,38
 169 1315 169 1315 164 1350 c 0,39,40
 158 1399 158 1399 196 1430 c 0,41,42
 215 1445 215 1445 238 1448 c 0,16,17
EndSplineSet
EndChar

StartChar: numbersign
Encoding: 3 35 3
Width: 1734
GlyphClass: 2
Flags: W
LayerCount: 2
Fore
SplineSet
363 -84 m 0,0,1
 319 -70 319 -70 304 -26 c 0,2,3
 297 0 297 0 304 25 c 2,4,-1
 415.897088811 399.181665534 l 1,5,-1
 156 409 l 2,6,7
 107 411 107 411 83 455 c 0,8,9
 72 476 72 476 73 500 c 0,10,11
 75 549 75 549 119 573 c 0,12,13
 140 584 140 584 164 583 c 2,14,-1
 467.438983869 571.536749498 l 1,15,-1
 548.818384193 843.667864587 l 1,16,-1
 255 835 l 2,17,18
 205 833 205 833 179 875 c 0,19,20
 166 896 166 896 165 919 c 0,21,22
 163 969 163 969 205 995 c 0,23,24
 226 1008 226 1008 249 1009 c 2,25,-1
 601.368716738 1019.39514369 l 1,26,-1
 711 1386 l 2,27,28
 725 1430 725 1430 769 1445 c 0,29,30
 795 1452 795 1452 820 1445 c 0,31,32
 864 1431 864 1431 879 1387 c 0,33,34
 886 1361 886 1361 879 1336 c 2,35,-1
 785.949336901 1024.8404116 l 1,36,-1
 1161.69940081 1035.92532272 l 1,37,-1
 1227 1378 l 2,38,39
 1236 1422 1236 1422 1279 1441 c 0,40,41
 1305 1452 1305 1452 1330 1447 c 0,42,43
 1374 1438 1374 1438 1393 1395 c 0,44,45
 1404 1369 1404 1369 1399 1344 c 2,46,-1
 1341.11524908 1041.21822596 l 1,47,-1
 1571 1048 l 2,48,49
 1621 1050 1621 1050 1647 1008 c 0,50,51
 1660 987 1660 987 1661 964 c 0,52,53
 1663 914 1663 914 1621 888 c 0,54,55
 1600 875 1600 875 1577 874 c 2,56,-1
 1307.62784011 866.053317522 l 1,57,-1
 1245.70241069 542.135686707 l 1,58,-1
 1514 532 l 2,59,60
 1563 530 1563 530 1586 488 c 0,61,62
 1598 466 1598 466 1597 442 c 0,63,64
 1595 394 1595 394 1553 369 c 0,65,66
 1530 357 1530 357 1506 358 c 2,67,-1
 1212.61886376 369.083287369 l 1,68,-1
 1139 -16 l 2,69,70
 1130 -60 1130 -60 1087 -80 c 0,71,72
 1061 -91 1061 -91 1036 -86 c 0,73,74
 991 -77 991 -77 973 -34 c 0,75,76
 962 -9 962 -9 967 16 c 2,77,-1
 1035.6781248 375.767715285 l 1,78,-1
 596.805561789 392.347345444 l 1,79,-1
 472 -25 l 2,80,81
 458 -69 458 -69 414 -84 c 0,82,83
 388 -91 388 -91 363 -84 c 0,0,1
1128.26144422 860.761873165 m 1,84,-1
 733.399004356 849.113132504 l 1,85,-1
 648.347456847 564.702429408 l 1,86,-1
 1068.71343874 548.821936759 l 1,87,-1
 1128.26144422 860.761873165 l 1,84,-1
EndSplineSet
EndChar

StartChar: dollar
Encoding: 4 36 4
Width: 1182
GlyphClass: 2
Flags: W
LayerCount: 2
Fore
SplineSet
1037 1217 m 0,0,1
 1012 1174 1012 1174 963 1173 c 0,2,3
 938 1173 938 1173 918 1184 c 0,4,5
 786.033201065 1256.87718747 786.033201065 1256.87718747 624 1257.98296341 c 1,6,-1
 624 745.16240946 l 1,7,8
 787.043869028 695.662542397 787.043869028 695.662542397 850 668 c 0,9,10
 1068 572 1068 572 1103 411 c 0,11,12
 1110 378 1110 378 1110 343 c 0,13,14
 1110 135 1110 135 929 21 c 0,15,16
 799.168422047 -60.7121819287 799.168422047 -60.7121819287 624 -70.7097195645 c 1,17,-1
 624 -207 l 2,18,19
 624 -240 624 -240 594 -254 c 0,20,21
 585 -258 585 -258 575 -258 c 0,22,23
 544 -258 544 -258 531 -229 c 0,24,25
 526 -218 526 -218 526 -207 c 2,26,-1
 526 -70.9743216948 l 1,27,28
 320.879206057 -62.7733375842 320.879206057 -62.7733375842 160 11 c 0,29,30
 137 21 137 21 118 32 c 0,31,32
 74 57 74 57 73 105 c 0,33,34
 73 129 73 129 84 150 c 0,35,36
 109 193 109 193 157 195 c 0,37,38
 182 196 182 196 203 184 c 0,39,40
 306 126 306 126 478 108 c 0,41,42
 502.441867521 105.179784517 502.441867521 105.179784517 526 103.685171596 c 1,43,-1
 526 591.221006906 l 1,44,45
 378.515135935 637.062296919 378.515135935 637.062296919 313 668 c 0,46,47
 94 774 94 774 79 967 c 0,48,49
 78 982 78 982 78 996 c 0,50,51
 78 1194 78 1194 242 1317 c 0,52,53
 362.098314051 1406.41626302 362.098314051 1406.41626302 526 1427.43778745 c 1,54,-1
 526 1619 l 2,55,56
 526 1651 526 1651 555 1664 c 0,57,58
 565 1668 565 1668 575 1668 c 0,59,60
 607 1668 607 1668 620 1639 c 0,61,62
 624 1629 624 1629 624 1619 c 2,63,-1
 624 1433.9625343 l 1,64,65
 831.085404243 1431.84409022 831.085404243 1431.84409022 1004 1336 c 0,66,67
 1047 1311 1047 1311 1048 1262 c 0,68,69
 1048 1237 1048 1237 1037 1217 c 0,0,1
526 1250.87953523 m 1,70,71
 415.847821178 1232.96800249 415.847821178 1232.96800249 340 1170 c 0,72,73
 253 1097 253 1097 252 996 c 0,74,75
 252 906 252 906 354 847 c 0,76,77
 409.163949641 815.261837193 409.163949641 815.261837193 526 776.10018078 c 1,78,-1
 526 1250.87953523 l 1,70,71
624 103.437253396 m 1,79,80
 772.342192445 112.987687896 772.342192445 112.987687896 861 186 c 0,81,82
 933 247 933 247 934 329 c 0,83,84
 934 420 934 420 810 486 c 0,85,86
 745.851234479 520.846242999 745.851234479 520.846242999 624 560.710091994 c 1,87,-1
 624 103.437253396 l 1,79,80
EndSplineSet
EndChar

StartChar: ampersand
Encoding: 6 38 6
Width: 1374
GlyphClass: 2
Flags: W
LayerCount: 2
Fore
SplineSet
659 1448 m 0,0,1
 800 1448 800 1448 908 1366 c 0,2,3
 1039 1264 1039 1264 1040 1095 c 0,4,5
 1040 868 1040 868 824 736 c 0,6,7
 758.159285079 696.096536411 758.159285079 696.096536411 632.607829918 644.250924775 c 1,8,9
 704.714405305 553.481874197 704.714405305 553.481874197 803 452 c 0,10,11
 903.273034041 348.26927513 903.273034041 348.26927513 1015.83379467 248.523758882 c 1,12,13
 1029.10077012 264.349827972 1029.10077012 264.349827972 1038 281 c 0,14,15
 1060 323 1060 323 1110 327 c 0,16,17
 1135 328 1135 328 1156 317 c 0,18,19
 1198 295 1198 295 1202 245 c 0,20,21
 1203 220 1203 220 1192 199 c 0,22,23
 1173.882373 165.029449369 1173.882373 165.029449369 1149.55879953 134.956848586 c 1,24,25
 1168.62338612 119.427825272 1168.62338612 119.427825272 1188 104 c 0,26,27
 1226 73 1226 73 1220 23 c 0,28,29
 1216 -2 1216 -2 1202 -20 c 0,30,31
 1170 -59 1170 -59 1121 -52 c 0,32,33
 1098 -48 1098 -48 1080 -34 c 0,34,35
 1044.99892858 -6.32654709585 1044.99892858 -6.32654709585 1011.51096312 20.9458415773 c 1,36,37
 965.743175519 -4.84579607743 965.743175519 -4.84579607743 911 -25 c 0,38,39
 781 -72 781 -72 639 -72 c 0,40,41
 460 -72 460 -72 327 21 c 0,42,43
 169 132 169 132 158 326 c 0,44,45
 157 340 157 340 157 354 c 0,46,47
 157 573.534297724 157 573.534297724 368.347276911 709.071600778 c 1,48,49
 260 899.024801422 260 899.024801422 260 1063 c 0,50,51
 260 1246 260 1246 395 1356 c 0,52,53
 503 1444 503 1444 649 1448 c 0,54,55
 654 1448 654 1448 659 1448 c 0,0,1
528.812720905 791.028463194 m 1,56,57
 545.795490275 798.414787615 545.795490275 798.414787615 564 806 c 0,58,59
 724 872 724 872 783 920 c 0,60,61
 866 989 866 989 866 1095 c 0,62,63
 866 1192 866 1192 783 1242 c 0,64,65
 729 1274 729 1274 659 1274 c 0,66,67
 549 1274 549 1274 485 1203 c 0,68,69
 434 1146 434 1146 434 1063 c 0,70,71
 434 946.413582351 434 946.413582351 528.812720905 791.028463194 c 1,56,57
863.668735993 145.860304443 m 1,72,73
 611.720490114 367.331035163 611.720490114 367.331035163 466.7614722 560.443175338 c 1,74,75
 410.666407798 523.473622613 410.666407798 523.473622613 381 485 c 0,76,77
 333 423 333 423 333 341 c 0,78,79
 333 192 333 192 471 133 c 0,80,81
 542 102 542 102 639 102 c 0,82,83
 759.145107144 102 759.145107144 102 863.668735993 145.860304443 c 1,72,73
EndSplineSet
EndChar

StartChar: quotesingle
Encoding: 7 39 7
Width: 331
GlyphClass: 2
Flags: W
LayerCount: 2
Fore
SplineSet
156 874 m 0,0,1
 131 876 131 876 125 901 c 0,2,3
 124 908 124 908 124 914 c 0,4,5
 135 1012 135 1012 135 1126 c 0,6,7
 135 1245 135 1245 124 1358 c 0,8,9
 121 1385 121 1385 146 1395 c 0,10,11
 151 1396 151 1396 156 1397 c 0,12,13
 182 1400 182 1400 193 1375 c 0,14,15
 195 1369 195 1369 196 1364 c 0,16,17
 207 1244 207 1244 207 1126 c 0,18,19
 207 1009 207 1009 196 906 c 0,20,21
 194 881 194 881 169 875 c 0,22,23
 162 874 162 874 156 874 c 0,0,1
EndSplineSet
EndChar

StartChar: parenleft
Encoding: 8 40 8
Width: 606
GlyphClass: 2
Flags: W
LayerCount: 2
Fore
SplineSet
398 1491 m 0,0,1
 441 1470 441 1470 447 1422 c 0,2,3
 450 1396 450 1396 439 1374 c 0,4,5
 333 1155 333 1155 305 967 c 0,6,7
 288 852 288 852 288 682 c 0,8,9
 288 468 288 468 360 273 c 0,10,11
 396 174 396 174 485 -8 c 0,12,13
 507 -53 507 -53 478 -96 c 0,14,15
 464 -115 464 -115 444 -125 c 0,16,17
 398 -147 398 -147 356 -117 c 0,18,19
 338 -103 338 -103 328 -84 c 0,20,21
 207 164 207 164 165 308 c 0,22,23
 112 487 112 487 112 682 c 0,24,25
 112 969 112 969 172 1175 c 0,26,27
 211 1305 211 1305 281 1450 c 0,28,29
 302 1493 302 1493 350 1499 c 0,30,31
 376 1502 376 1502 398 1491 c 0,0,1
EndSplineSet
EndChar

StartChar: parenright
Encoding: 9 41 9
Width: 606
GlyphClass: 2
Flags: W
LayerCount: 2
Fore
SplineSet
208 -125 m 0,0,1
 165 -104 165 -104 159 -56 c 0,2,3
 156 -30 156 -30 167 -8 c 0,4,5
 273 211 273 211 301 399 c 0,6,7
 318 514 318 514 318 684 c 0,8,9
 318 898 318 898 246 1093 c 0,10,11
 210 1192 210 1192 121 1374 c 0,12,13
 99 1419 99 1419 128 1462 c 0,14,15
 142 1481 142 1481 162 1491 c 0,16,17
 207 1513 207 1513 250 1484 c 0,18,19
 269 1470 269 1470 279 1450 c 0,20,21
 400 1201 400 1201 443 1055 c 0,22,23
 494 878 494 878 494 684 c 0,24,25
 494 397 494 397 434 191 c 0,26,27
 395 61 395 61 325 -84 c 0,28,29
 304 -127 304 -127 256 -133 c 0,30,31
 230 -136 230 -136 208 -125 c 0,0,1
EndSplineSet
PairPos2: "'kern' Horizontal Kerning in Arabic lookup 2 per glyph data 0" uni0622 dx=320 dy=0 dh=320 dv=0 dx=0 dy=0 dh=0 dv=0
EndChar

StartChar: asterisk
Encoding: 10 42 10
Width: 1108
GlyphClass: 2
Flags: W
LayerCount: 2
Fore
SplineSet
504 1418 m 0,0,1
 547 1427 547 1427 575 1390 c 0,2,3
 586 1375 586 1375 590 1358 c 0,4,5
 618.384330695 1197.62853157 618.384330695 1197.62853157 626.626905665 1041.78895818 c 1,6,7
 765.646160595 1113.5089422 765.646160595 1113.5089422 924 1172 c 0,8,9
 966 1188 966 1188 1000 1156 c 0,10,11
 1013 1144 1013 1144 1019 1128 c 0,12,13
 1035 1086 1035 1086 1005 1052 c 0,14,15
 992 1038 992 1038 976 1032 c 0,16,17
 830.248317444 976.738698557 830.248317444 976.738698557 703.58295637 911.457078335 c 1,18,19
 834.156065368 826.570557548 834.156065368 826.570557548 953 728 c 0,20,21
 986 701 986 701 978 657 c 0,22,23
 974 636 974 636 962 622 c 0,24,25
 934 588 934 588 890 597 c 0,26,27
 871 600 871 600 857 612 c 0,28,29
 746.905563886 703.51600002 746.905563886 703.51600002 625.921360122 782.248359754 c 1,30,31
 617.227153992 636.085639353 617.227153992 636.085639353 590 470 c 0,32,33
 583 429 583 429 544 413 c 0,34,35
 524 405 524 405 504 408 c 0,36,37
 463 415 463 415 448 455 c 0,38,39
 441 475 441 475 444 494 c 0,40,41
 467.408280523 629.630331265 467.408280523 629.630331265 474.700455251 778.058746543 c 1,42,43
 355.089363508 700.248119356 355.089363508 700.248119356 250 612 c 0,44,45
 216 584 216 584 174 601 c 0,46,47
 156 608 156 608 144 622 c 0,48,49
 116 654 116 654 132 697 c 0,50,51
 140 716 140 716 154 728 c 0,52,53
 273.5764655 827.297415795 273.5764655 827.297415795 403.910691823 911.92515774 c 1,54,55
 277.015697315 977.446475772 277.015697315 977.446475772 132 1032 c 0,56,57
 93 1046 93 1046 85 1088 c 0,58,59
 81 1109 81 1109 88 1128 c 0,60,61
 102 1167 102 1167 144 1175 c 0,62,63
 165 1179 165 1179 184 1172 c 0,64,65
 338.110252799 1114.55890578 338.110252799 1114.55890578 475.045940502 1044.35956319 c 1,66,67
 467.978122783 1195.88889126 467.978122783 1195.88889126 444 1332 c 0,68,69
 435 1375 435 1375 472 1403 c 0,70,71
 487 1414 487 1414 504 1418 c 0,0,1
EndSplineSet
EndChar

StartChar: plus
Encoding: 11 43 11
Width: 1033
GlyphClass: 2
Flags: W
LayerCount: 2
Fore
SplineSet
74 630 m 0,0,1
 68 678 68 678 107 709 c 0,2,3
 127 725 127 725 150 728 c 0,4,5
 277.122638506 743.738993339 277.122638506 743.738993339 421.83457249 749.950451627 c 1,6,7
 411.52945628 897.240438357 411.52945628 897.240438357 384 1023 c 0,8,9
 383 1029 383 1029 382 1034 c 0,10,11
 372 1082 372 1082 408 1117 c 0,12,13
 426 1133 426 1133 448 1138 c 0,14,15
 496 1148 496 1148 531 1112 c 0,16,17
 547 1094 547 1094 552 1072 c 0,18,19
 585.623406694 921.341273851 585.623406694 921.341273851 597.505784971 753.958679689 c 1,20,21
 607.714750659 754 607.714750659 754 618 754 c 0,22,23
 747 754 747 754 877 748 c 0,24,25
 926 746 926 746 950 702 c 0,26,27
 961 681 961 681 960 657 c 0,28,29
 958 608 958 608 914 584 c 0,30,31
 893 573 893 573 869 574 c 0,32,33
 741 580 741 580 618 580 c 0,34,35
 610.979109022 580 610.979109022 580 603.965803904 579.975345959 c 1,36,37
 604 573.000825324 604 573.000825324 604 566 c 0,38,39
 604 365 604 365 570 264 c 0,40,41
 555 220 555 220 509 208 c 0,42,43
 483 201 483 201 458 210 c 0,44,45
 414 225 414 225 402 271 c 0,46,47
 396 298 396 298 404 322 c 0,48,49
 427 394 427 394 428 566 c 0,50,51
 428 570.718422705 428 570.718422705 427.985052573 575.418161126 c 1,52,53
 297.64595684 569.085431263 297.64595684 569.085431263 170 554 c 0,54,55
 121 548 121 548 91 588 c 0,56,57
 77 607 77 607 74 630 c 0,0,1
EndSplineSet
EndChar

StartChar: comma
Encoding: 12 44 12
Width: 478
GlyphClass: 2
Flags: W
LayerCount: 2
Fore
SplineSet
68 -282 m 0,0,1
 26 -257 26 -257 25 -208 c 0,2,3
 24 -183 24 -183 36 -163 c 2,4,-1
 266 233 l 2,5,6
 290 274 290 274 340 276 c 0,7,8
 365 276 365 276 386 264 c 0,9,10
 428 239 428 239 429 190 c 0,11,12
 430 165 430 165 418 145 c 2,13,-1
 188 -251 l 2,14,15
 164 -292 164 -292 114 -294 c 0,16,17
 89 -294 89 -294 68 -282 c 0,0,1
EndSplineSet
EndChar

StartChar: hyphen
Encoding: 13 45 13
Width: 1037
GlyphClass: 2
Flags: W
LayerCount: 2
Fore
SplineSet
98 431 m 0,0,1
 95 469 95 469 127 490 c 0,2,3
 140 497 140 497 154 499 c 0,4,5
 434 523 434 523 877 523 c 0,6,7
 915 523 915 523 933 490 c 0,8,9
 940 475 940 475 940 461 c 0,10,11
 940 424 940 424 906 406 c 0,12,13
 892 399 892 399 877 399 c 0,14,15
 438 399 438 399 166 375 c 0,16,17
 128 372 128 372 107 404 c 0,18,19
 100 417 100 417 98 431 c 0,0,1
EndSplineSet
EndChar

StartChar: period
Encoding: 14 46 14
Width: 478
GlyphClass: 2
Flags: W
LayerCount: 2
Fore
SplineSet
82 87 m 0,0,1
 82 144 82 144 130 182 c 0,2,3
 164 208 164 208 206 208 c 0,4,5
 277 208 277 208 307 142 c 0,6,7
 318 117 318 117 318 94 c 0,8,9
 318 37 318 37 277 -3 c 0,10,11
 244 -34 244 -34 201 -34 c 0,12,13
 123 -34 123 -34 93 37 c 0,14,15
 82 63 82 63 82 87 c 0,0,1
EndSplineSet
EndChar

StartChar: slash
Encoding: 15 47 15
Width: 965
GlyphClass: 2
Flags: W
LayerCount: 2
Fore
SplineSet
155 -75 m 0,0,1
 114 -51 114 -51 113 -1 c 0,2,3
 113 24 113 24 125 45 c 0,4,5
 526 710 526 710 666 1313 c 0,6,7
 673 1347 673 1347 680 1379 c 0,8,9
 690 1424 690 1424 734 1442 c 0,10,11
 758 1451 758 1451 783 1446 c 0,12,13
 828 1436 828 1436 846 1392 c 0,14,15
 855 1368 855 1368 850 1343 c 0,16,17
 718 712 718 712 319 29 c 0,18,19
 297 -8 297 -8 275 -45 c 0,20,21
 251 -85 251 -85 202 -87 c 0,22,23
 176 -87 176 -87 155 -75 c 0,0,1
EndSplineSet
EndChar

StartChar: zero
Encoding: 16 48 16
Width: 1141
GlyphClass: 2
Flags: W
LayerCount: 2
Fore
SplineSet
72 486 m 0,0,1
 72 891 72 891 183 1141 c 0,2,3
 315 1433 315 1433 580 1434 c 0,4,5
 797 1434 797 1434 933 1260 c 0,6,7
 1046 1116 1046 1116 1065 911 c 0,8,9
 1068 876 1068 876 1068 843 c 0,10,11
 1068 385 1068 385 912 146 c 0,12,13
 769 -71 769 -71 510 -72 c 0,14,15
 263 -72 263 -72 149 143 c 0,16,17
 72 287 72 287 72 486 c 0,0,1
248 486 m 0,18,19
 248 193 248 193 406 122 c 0,20,21
 453 102 453 102 510 102 c 0,22,23
 739 102 739 102 835 394 c 0,24,25
 894 575 894 575 894 843 c 0,26,27
 894 1026 894 1026 801 1145 c 0,28,29
 712 1257 712 1257 580 1258 c 0,30,31
 424 1258 424 1258 333 1026 c 0,32,33
 252 816 252 816 248 508 c 0,34,35
 248 496 248 496 248 486 c 0,18,19
EndSplineSet
EndChar

StartChar: one
Encoding: 17 49 17
Width: 715
GlyphClass: 2
Flags: W
LayerCount: 2
Fore
SplineSet
506 -87 m 0,0,1
 457 -87 457 -87 432 -45 c 0,2,3
 419 -24 419 -24 419 0 c 2,4,-1
 426.614704907 1113.43907307 l 1,5,6
 320.077632729 1029.11771739 320.077632729 1029.11771739 199 970 c 0,7,8
 153 947 153 947 110 976 c 0,9,10
 92 990 92 990 82 1009 c 0,11,12
 60 1054 60 1054 88 1097 c 0,13,14
 102 1116 102 1116 122 1126 c 0,15,16
 300 1214 300 1214 450 1376 c 0,17,18
 479.796822157 1408.50562417 479.796822157 1408.50562417 524.268860993 1402.69262674 c 0,19,20
 562.679774713 1399.77131412 562.679774713 1399.77131412 584.302854887 1369.08550965 c 0,21,22
 606.856793485 1341.1766831 606.856793485 1341.1766831 601.910265285 1302.87879054 c 1,23,-1
 593 0 l 2,24,25
 593 -49 593 -49 551 -74 c 0,26,27
 530 -87 530 -87 506 -87 c 0,0,1
EndSplineSet
EndChar

StartChar: two
Encoding: 18 50 18
Width: 1171
GlyphClass: 2
Flags: W
LayerCount: 2
Fore
SplineSet
208 816 m 0,0,1
 160 816 160 816 133 858 c 0,2,3
 120 880 120 880 120 904 c 0,4,5
 120 1092 120 1092 226 1238 c 0,6,7
 338 1393 338 1393 520 1426 c 0,8,9
 563 1434 563 1434 609 1434 c 0,10,11
 796 1434 796 1434 920 1310 c 0,12,13
 1026 1203 1026 1203 1039 1054 c 0,14,15
 1040 1037 1040 1037 1040 1021 c 0,16,17
 1040 801 1040 801 829 557 c 0,18,19
 744 459 744 459 596 324 c 2,20,-1
 400 146 l 1,21,22
 502 154 502 154 626 154 c 0,23,24
 777 154 777 154 1015 143 c 0,25,26
 1064 141 1064 141 1088 97 c 0,27,28
 1099 76 1099 76 1098 52 c 0,29,30
 1096 3 1096 3 1052 -21 c 0,31,32
 1031 -32 1031 -32 1007 -31 c 0,33,34
 768 -20 768 -20 626 -20 c 0,35,36
 376 -20 376 -20 169 -42 c 0,37,38
 128 -45 128 -45 100 -19 c 0,39,40
 64 15 64 15 75 65 c 0,41,42
 82 92 82 92 101 110 c 2,43,-1
 478 454 l 2,44,45
 786 735 786 735 848 920 c 0,46,47
 866 973 866 973 866 1021 c 0,48,49
 866 1120 866 1120 794 1189 c 0,50,51
 721 1258 721 1258 609 1258 c 0,52,53
 470 1258 470 1258 381 1151 c 0,54,55
 296 1050 296 1050 296 904 c 0,56,57
 296 856 296 856 254 829 c 0,58,59
 232 816 232 816 208 816 c 0,0,1
EndSplineSet
EndChar

StartChar: three
Encoding: 19 51 19
Width: 1078
GlyphClass: 2
Flags: W
LayerCount: 2
Fore
SplineSet
92 182 m 0,0,1
 123 219 123 219 173 212 c 0,2,3
 198 209 198 209 216 194 c 0,4,5
 321 108 321 108 468 102 c 0,6,7
 476 102 476 102 484 102 c 0,8,9
 637 102 637 102 738 193 c 0,10,11
 829 277 829 277 830 397 c 1,12,13
 824 556 824 556 655 591 c 0,14,15
 602 602 602 602 531 602 c 0,16,17
 500.223196261 602 500.223196261 602 461.045966696 597.672508076 c 0,18,19
 450.632096761 595.785699491 450.632096761 595.785699491 440 594 c 0,20,21
 409 589 409 589 373 584 c 0,22,23
 325 578 325 578 293 616 c 0,24,25
 277 636 277 636 274 659 c 0,26,27
 268 707 268 707 307 739 c 0,28,29
 327 755 327 755 350 758 c 0,30,31
 355.605050858 758.768293576 355.605050858 758.768293576 361.136622349 759.557014356 c 0,32,33
 383.511046395 763.256631554 383.511046395 763.256631554 404.080706012 766.171567076 c 0,34,35
 677.9667774 811.666404475 677.9667774 811.666404475 751 913 c 0,36,37
 782 955 782 955 782 1008 c 0,38,39
 782 1175 782 1175 675 1234 c 0,40,41
 630 1258 630 1258 574 1258 c 0,42,43
 430 1258 430 1258 356 1153 c 0,44,45
 324 1108 324 1108 310 1048 c 0,46,47
 300 1004 300 1004 256 986 c 0,48,49
 231 977 231 977 206 982 c 0,50,51
 162 992 162 992 144 1036 c 0,52,53
 135 1061 135 1061 140 1086 c 0,54,55
 179 1261 179 1261 321 1357 c 0,56,57
 436 1434 436 1434 581 1434 c 0,58,59
 734 1434 734 1434 838 1331 c 0,60,61
 958 1212 958 1212 958 1008 c 0,62,63
 958 831.085693887 958 831.085693887 806.378719108 724.420629886 c 1,64,65
 857.948640763 699.919076141 857.948640763 699.919076141 898 664 c 0,66,67
 1001 571 1001 571 1006 414 c 1,68,69
 1006 229 1006 229 876 93 c 0,70,71
 754 -35 754 -35 575 -65 c 0,72,73
 529 -72 529 -72 484 -72 c 0,74,75
 277 -72 277 -72 123 43 c 0,76,77
 113 51 113 51 104 58 c 0,78,79
 67 89 67 89 74 139 c 0,80,81
 77 164 77 164 92 182 c 0,0,1
EndSplineSet
EndChar

StartChar: four
Encoding: 20 52 20
Width: 1268
GlyphClass: 2
Flags: W
LayerCount: 2
Fore
SplineSet
824 752 m 0,0,1
 870 748 870 748 892 705 c 0,2,3
 904 681 904 681 902 656 c 2,4,-1
 877.216122342 427.437572713 l 1,5,6
 900.064551713 430.533871159 900.064551713 430.533871159 923 434 c 0,7,8
 1014 448 1014 448 1088 466 c 0,9,10
 1136 477 1136 477 1171 441 c 0,11,12
 1187 424 1187 424 1193 402 c 0,13,14
 1204 355 1204 355 1168 319 c 0,15,16
 1150 302 1150 302 1128 296 c 0,17,18
 999.394644421 264.836244894 999.394644421 264.836244894 857.688670909 247.351076158 c 1,19,-1
 830 -8 l 2,20,21
 824 -55 824 -55 781 -77 c 0,22,23
 758 -89 758 -89 734 -87 c 0,24,25
 688 -83 688 -83 665 -41 c 0,26,27
 653 -17 653 -17 656 8 c 2,28,-1
 680.121133855 231.120488157 l 1,29,30
 579.991504918 225 579.991504918 225 474 225 c 0,31,32
 294 225 294 225 148 246 c 0,33,34
 130 249 130 249 114 258 c 0,35,36
 73 283 73 283 73 333 c 0,37,38
 74 362 74 362 90 384 c 0,39,40
 226 567 226 567 417 904 c 0,41,42
 573 1180 573 1180 641 1349 c 0,43,44
 659 1392 659 1392 705 1402 c 0,45,46
 731 1406 731 1406 755 1397 c 0,47,48
 798 1379 798 1379 808 1333 c 0,49,50
 812 1307 812 1307 803 1283 c 0,51,52
 697 1021 697 1021 451 618 c 0,53,54
 379 501 379 501 317 408 c 1,55,56
 504.920634123 394.622598927 504.920634123 394.622598927 699.333961561 408.839144439 c 1,57,-1
 728 674 l 2,58,59
 732 720 732 720 775 742 c 0,60,61
 799 754 799 754 824 752 c 0,0,1
EndSplineSet
EndChar

StartChar: five
Encoding: 21 53 21
Width: 1113
GlyphClass: 2
Flags: W
LayerCount: 2
Fore
SplineSet
1028 1356 m 0,0,1
 1038 1308 1038 1308 1002 1273 c 0,2,3
 984 1257 984 1257 962 1252 c 0,4,5
 851 1228 851 1228 637 1228 c 0,6,7
 457 1228 457 1228 334 1243 c 1,8,-1
 302 926 l 1,9,10
 404 984 404 984 538 984 c 0,11,12
 723 984 723 984 857 882 c 0,13,14
 1039 742 1039 742 1040 470 c 0,15,16
 1040 234 1040 234 887 82 c 0,17,18
 754 -48 754 -48 559 -69 c 0,19,20
 527 -72 527 -72 496 -72 c 0,21,22
 285 -72 285 -72 118 54 c 0,23,24
 112 60 112 60 106 64 c 0,25,26
 67 96 67 96 74 145 c 0,27,28
 78 168 78 168 92 186 c 0,29,30
 124 225 124 225 173 218 c 0,31,32
 196 214 196 214 214 200 c 0,33,34
 338 102 338 102 496 102 c 0,35,36
 666 102 666 102 769 207 c 0,37,38
 866 308 866 308 866 470 c 0,39,40
 866 720 866 720 666 786 c 0,41,42
 601 808 601 808 518 808 c 0,43,44
 370 807 370 807 258 708 c 0,45,46
 233 687 233 687 198 687 c 0,47,48
 150 688 150 688 124 730 c 0,49,50
 110 755 110 755 112 782 c 2,51,-1
 168 1350 l 2,52,53
 172 1392 172 1392 212 1416 c 0,54,55
 241 1432 241 1432 272 1426 c 0,56,57
 386 1404 386 1404 637 1404 c 0,58,59
 835 1404 835 1404 924 1422 c 0,60,61
 972 1432 972 1432 1007 1396 c 0,62,63
 1023 1378 1023 1378 1028 1356 c 0,0,1
EndSplineSet
EndChar

StartChar: six
Encoding: 22 54 22
Width: 1099
GlyphClass: 2
Flags: W
LayerCount: 2
Fore
SplineSet
548 102 m 0,0,1
 685 102 685 102 773 198 c 0,2,3
 854 288 854 288 852 416 c 0,4,5
 848 621 848 621 711 693 c 0,6,7
 651 724 651 724 576 724 c 0,8,9
 456 724 456 724 329 637 c 0,10,11
 272.499966504 599.039039995 272.499966504 599.039039995 249.512363193 568.092309488 c 1,12,13
 247.999999688 523.076862286 247.999999688 523.076862286 248 475 c 0,14,15
 248 182 248 182 438 118 c 0,16,17
 488 102 488 102 548 102 c 0,0,1
272.509132733 812.468293126 m 1,18,19
 419.338951011 898.000000006 419.338951011 898.000000006 576 898 c 0,20,21
 748 898 748 898 871 789 c 0,22,23
 1018 658 1018 658 1026 429 c 0,24,25
 1026 423 1026 423 1026 418 c 0,26,27
 1029 235 1029 235 915 97 c 0,28,29
 803 -38 803 -38 627 -66 c 0,30,31
 588 -72 588 -72 548 -72 c 0,32,33
 303 -72 303 -72 174 112 c 0,34,35
 72 259 72 259 72 475 c 0,36,37
 72 1249 72 1249 455 1379 c 0,38,39
 530 1404 530 1404 619 1404 c 0,40,41
 740 1404 740 1404 869 1365 c 0,42,43
 913 1351 913 1351 928 1307 c 0,44,45
 935 1281 935 1281 928 1256 c 0,46,47
 914 1212 914 1212 870 1197 c 0,48,49
 844 1190 844 1190 819 1197 c 0,50,51
 707 1230 707 1230 619 1230 c 0,52,53
 343.356637057 1228.51405195 343.356637057 1228.51405195 272.509132733 812.468293126 c 1,18,19
EndSplineSet
EndChar

StartChar: seven
Encoding: 23 55 23
Width: 1080
GlyphClass: 2
Flags: W
LayerCount: 2
Fore
SplineSet
73 1260 m 0,0,1
 69 1310 69 1310 112 1338 c 0,2,3
 131 1350 131 1350 154 1352 c 2,4,-1
 908 1401 l 2,5,6
 956 1405 956 1405 985 1364 c 0,7,8
 1001 1340 1001 1340 1001 1313 c 0,9,10
 1001 1295 1001 1295 992 1275 c 0,11,12
 765 821 765 821 628 -14 c 0,13,14
 620 -61 620 -61 576 -80 c 0,15,16
 552 -90 552 -90 528 -86 c 0,17,18
 481 -78 481 -78 462 -34 c 0,19,20
 452 -10 452 -10 456 14 c 0,21,22
 577 760 577 760 776 1218 c 1,23,-1
 166 1178 l 2,24,25
 117 1174 117 1174 88 1217 c 0,26,27
 75 1237 75 1237 73 1260 c 0,0,1
EndSplineSet
EndChar

StartChar: eight
Encoding: 24 56 24
Width: 1079
GlyphClass: 2
Flags: W
LayerCount: 2
Fore
SplineSet
376.704159117 592.773389046 m 1,0,1
 322.725902981 526.633658388 322.725902981 526.633658388 290 462 c 0,2,3
 252 386 252 386 252 324 c 0,4,5
 252 204 252 204 342 143 c 0,6,7
 403 102 403 102 488 102 c 0,8,9
 608 102 608 102 674 180 c 0,10,11
 718 231 718 231 718 295 c 0,12,13
 718 389 718 389 587 484 c 0,14,15
 514 535 514 535 421 573 c 0,16,17
 398.367111371 582.053155451 398.367111371 582.053155451 376.704159117 592.773389046 c 1,0,1
839.072498328 962.660975811 m 0,18,19
 711.110725496 896.351822483 711.110725496 896.351822483 577 787 c 0,20,21
 539.335934439 756.614014741 539.335934439 756.614014741 505.876398575 726.525988279 c 1,22,23
 792.738843944 607.37823806 792.738843944 607.37823806 869 423 c 0,24,25
 894 361 894 361 894 295 c 0,26,27
 894 144 894 144 781 39 c 0,28,29
 671 -63 671 -63 512 -71 c 0,30,31
 500 -72 500 -72 488 -72 c 0,32,33
 321 -72 321 -72 204 32 c 0,34,35
 83 139 83 139 76 307 c 0,36,37
 76 316 76 316 76 324 c 0,38,39
 76 506.535044705 76 506.535044705 229.205474037 695.36620478 c 1,40,41
 210.587422672 712.797405858 210.587422672 712.797405858 193 732 c 0,42,43
 72 867 72 867 72 1024 c 0,44,45
 72 1190 72 1190 186 1305 c 0,46,47
 303 1424 303 1424 487 1433 c 0,48,49
 501 1434 501 1434 514 1434 c 0,50,51
 776.632282503 1434 776.632282503 1434 920.528683 1182.15892543 c 1,52,53
 947.348838408 1182.43618747 947.348838408 1182.43618747 972 1165 c 0,54,55
 991 1150 991 1150 1000 1130 c 0,56,57
 1019 1085 1019 1085 993 1044 c 0,58,59
 988.828422372 1038.26408076 988.828422372 1038.26408076 984.181007168 1033.47983667 c 1,60,61
 986.269004004 1002.499732 986.269004004 1002.499732 963 975 c 0,62,63
 948 956 948 956 927 948 c 0,64,65
 881 930 881 930 841 961 c 0,66,67
 840.021666731 961.823859595 840.021666731 961.823859595 839.072498328 962.660975811 c 0,18,19
758.404909156 1113.0899032 m 1,68,69
 704.945641047 1199.44233617 704.945641047 1199.44233617 636 1232 c 0,70,71
 582 1258 582 1258 512 1258 c 0,72,73
 356 1258 356 1258 287 1157 c 0,74,75
 248 1099 248 1099 248 1024 c 0,76,77
 248 927 248 927 346 829 c 0,78,79
 348.423082764 826.613630611 348.423082764 826.613630611 350.855600632 824.275784611 c 0,80,81
 359.298138689 832.132563746 359.298138689 832.132563746 368 840 c 0,82,83
 540.817710569 997.751551186 540.817710569 997.751551186 758.404909156 1113.0899032 c 1,68,69
EndSplineSet
EndChar

StartChar: nine
Encoding: 25 57 25
Width: 1208
GlyphClass: 2
Flags: W
LayerCount: 2
Fore
SplineSet
556 1400 m 0,0,1
 743 1400 743 1400 874 1273 c 0,2,3
 1035 1117 1035 1117 1045 831 c 0,4,5
 1046 813 1046 813 1046 795 c 0,6,7
 1046 770.890413588 1046 770.890413588 1044.94586084 746.997060851 c 1,8,9
 1058.32704346 747.108427832 1058.32704346 747.108427832 1073 743 c 0,10,11
 1096 736 1096 736 1112 720 c 0,12,13
 1147 684 1147 684 1131 634 c 0,14,15
 1124 612 1124 612 1108 596 c 0,16,17
 1062.34288717 552.285743031 1062.34288717 552.285743031 1009.24124897 517.798503405 c 1,18,19
 980.419714318 412.081489686 980.419714318 412.081489686 929 311 c 0,20,21
 799 54 799 54 571 -64 c 0,22,23
 547 -76 547 -76 524 -86 c 0,24,25
 477 -106 477 -106 436 -75 c 0,26,27
 418 -60 418 -60 409 -40 c 0,28,29
 389 7 389 7 419 48 c 0,30,31
 434 67 434 67 454 76 c 0,32,33
 637 155 637 155 754 358 c 0,34,35
 772.053371804 389.55273991 772.053371804 389.55273991 787.35565845 421.793251093 c 1,36,37
 771.39001453 417.633635314 771.39001453 417.633635314 755 414 c 0,38,39
 666 394 666 394 575 394 c 0,40,41
 384 394 384 394 248 498 c 0,42,43
 73 633 73 633 72 886 c 0,44,45
 72 1068 72 1068 175 1209 c 0,46,47
 288 1365 288 1365 478 1394 c 0,48,49
 516 1400 516 1400 556 1400 c 0,0,1
856.653596529 632.727169591 m 1,50,51
 869.741226564 701.009977721 869.741226564 701.009977721 872 772 c 0,52,53
 872 784 872 784 872 795 c 0,54,55
 872 1087 872 1087 710 1185 c 0,56,57
 642 1226 642 1226 556 1226 c 0,58,59
 406 1226 406 1226 319 1112 c 0,60,61
 248 1018 248 1018 248 886 c 0,62,63
 248 629 248 629 470 580 c 0,64,65
 519 570 519 570 575 570 c 0,66,67
 727.758596828 570 727.758596828 570 856.653596529 632.727169591 c 1,50,51
EndSplineSet
EndChar

StartChar: less
Encoding: 28 60 28
Width: 645
GlyphClass: 2
Flags: W
LayerCount: 2
Fore
SplineSet
518 360 m 0,0,1
 486 339 486 339 451 361 c 0,2,3
 439 369 439 369 432 380 c 0,4,5
 326 555 326 555 178 682 c 0,6,7
 151 705 151 705 162 746 c 0,8,9
 168 766 168 766 180 777 c 0,10,11
 330 902 330 902 430 1076 c 0,12,13
 449 1108 449 1108 486 1108 c 0,14,15
 503 1107 503 1107 516 1100 c 0,16,17
 549 1081 549 1081 548 1042 c 0,18,19
 547 1027 547 1027 540 1014 c 0,20,21
 455 866 455 866 312 728 c 1,22,23
 453 587 453 587 538 446 c 0,24,25
 559 414 559 414 537 379 c 0,26,27
 529 367 529 367 518 360 c 0,0,1
EndSplineSet
EndChar

StartChar: equal
Encoding: 29 61 29
Width: 1037
GlyphClass: 2
Flags: W
LayerCount: 2
Fore
SplineSet
98 482 m 0,0,1
 105 517 105 517 141 530 c 0,2,3
 157 535 157 535 172 532 c 0,4,5
 249 520 249 520 498 519 c 0,6,7
 693 519 693 519 872 533 c 0,8,9
 910 536 910 536 931 503 c 0,10,11
 938 490 938 490 940 476 c 0,12,13
 943 439 943 439 910 418 c 0,14,15
 896 411 896 411 882 409 c 0,16,17
 671 393 671 393 498 393 c 0,18,19
 233 393 233 393 148 410 c 0,20,21
 113 417 113 417 101 452 c 0,22,23
 96 467 96 467 98 482 c 0,0,1
98 881 m 0,24,25
 101 916 101 916 135 932 c 0,26,27
 150 938 150 938 166 937 c 0,28,29
 322 923 322 923 557 923 c 0,30,31
 711 923 711 923 872 937 c 0,32,33
 908 940 908 940 930 909 c 0,34,35
 938 895 938 895 940 880 c 0,36,37
 943 843 943 843 910 822 c 0,38,39
 897 815 897 815 883 813 c 0,40,41
 716 799 716 799 557 799 c 0,42,43
 321 799 321 799 154 813 c 0,44,45
 119 816 119 816 103 850 c 0,46,47
 97 865 97 865 98 881 c 0,24,25
EndSplineSet
EndChar

StartChar: greater
Encoding: 30 62 30
Width: 645
GlyphClass: 2
Flags: W
LayerCount: 2
Fore
SplineSet
128 1100 m 0,0,1
 159 1120 159 1120 195 1097 c 0,2,3
 207 1089 207 1089 214 1078 c 0,4,5
 321 902 321 902 466 777 c 0,6,7
 493 754 493 754 483 713 c 0,8,9
 477 693 477 693 465 682 c 0,10,11
 311 555 311 555 214 383 c 0,12,13
 196 350 196 350 157 352 c 0,14,15
 142 353 142 353 129 360 c 0,16,17
 95 379 95 379 98 418 c 0,18,19
 99 433 99 433 106 445 c 0,20,21
 195 600 195 600 332 731 c 1,22,23
 193 871 193 871 106 1014 c 0,24,25
 86 1045 86 1045 109 1081 c 0,26,27
 117 1093 117 1093 128 1100 c 0,0,1
EndSplineSet
EndChar

StartChar: question
Encoding: 31 63 31
Width: 1155
GlyphClass: 2
Flags: W
LayerCount: 2
Fore
SplineSet
662 89 m 0,0,1
 662 22 662 22 607 -17 c 0,2,3
 572 -42 572 -42 530 -42 c 0,4,5
 463 -42 463 -42 424 11 c 0,6,7
 398 46 398 46 398 89 c 0,8,9
 398 158 398 158 453 198 c 0,10,11
 488 222 488 222 530 222 c 0,12,13
 598 222 598 222 637 166 c 0,14,15
 662 130 662 130 662 89 c 0,0,1
337 845 m 0,16,17
 293 822 293 822 250 850 c 0,18,19
 230 863 230 863 219 883 c 0,20,21
 162 994 162 994 162 1097 c 0,22,23
 162 1261 162 1261 291 1359 c 0,24,25
 408 1448 408 1448 581 1448 c 0,26,27
 759 1448 759 1448 876 1337 c 0,28,29
 991 1225 991 1225 992 1058 c 0,30,31
 992 930 992 930 876 819 c 0,32,33
 854 798 854 798 755 719 c 0,34,35
 747 711 747 711 740 706 c 0,36,37
 659 638 659 638 638 599 c 0,38,39
 616 560 616 560 616 504 c 0,40,41
 616 483 616 483 624 464 c 0,42,43
 636 427 636 427 605 391 c 0,44,45
 587 371 587 371 564 364 c 0,46,47
 514 349 514 349 477 383 c 0,48,49
 461 399 461 399 454 420 c 0,50,51
 442 459 442 459 442 504 c 0,52,53
 442 631 442 631 545 738 c 0,54,55
 579 774 579 774 640 824 c 0,56,57
 748 913 748 913 781 959 c 0,58,59
 818 1012 818 1012 818 1072 c 0,60,61
 818 1177 818 1177 733 1233 c 0,62,63
 670 1274 670 1274 576 1274 c 0,64,65
 427 1274 427 1274 366 1189 c 0,66,67
 338 1148 338 1148 338 1097 c 0,68,69
 339 1034 339 1034 375 963 c 0,70,71
 398 919 398 919 370 876 c 0,72,73
 357 856 357 856 337 845 c 0,16,17
EndSplineSet
EndChar

StartChar: at
Encoding: 32 64 32
Width: 2213
GlyphClass: 2
Flags: W
LayerCount: 2
Fore
SplineSet
1576 798 m 2,0,-1
 1524 441 l 2,1,2
 1523.29293611 436.269986402 1523.29293611 436.269986402 1522.54128757 431.573856967 c 0,3,4
 1520.73314409 415.393176926 1520.73314409 415.393176926 1520 389 c 0,5,6
 1519 370 1519 370 1518 362 c 0,7,8
 1508 232 1508 232 1574 159 c 0,9,10
 1616 115 1616 115 1668 114 c 0,11,12
 1756 114 1756 114 1830 227 c 0,13,14
 1910 348 1910 348 1924 511 c 0,15,16
 1926 539 1926 539 1926 564 c 0,17,18
 1926 820 1926 820 1767 1020 c 0,19,20
 1623 1202 1623 1202 1397 1272 c 0,21,22
 1282 1308 1282 1308 1162 1308 c 0,23,24
 908 1308 908 1308 681 1142 c 0,25,26
 480 994 480 994 373 768 c 0,27,28
 288 587 288 587 288 400 c 0,29,30
 288 115 288 115 465 -93 c 0,31,32
 629 -285 629 -285 893 -350 c 0,33,34
 1007 -378 1007 -378 1129 -378 c 0,35,36
 1366 -377 1366 -377 1574 -250 c 0,37,38
 1616 -224 1616 -224 1662 -248 c 0,39,40
 1682 -260 1682 -260 1694 -278 c 0,41,42
 1720 -320 1720 -320 1696 -366 c 0,43,44
 1684 -386 1684 -386 1666 -398 c 0,45,46
 1420 -552 1420 -552 1129 -552 c 0,47,48
 800 -552 800 -552 539 -385 c 0,49,50
 294 -228 294 -228 185 31 c 0,51,52
 112 204 112 204 112 400 c 0,53,54
 112 702 112 702 284 972 c 0,55,56
 438 1214 438 1214 681 1351 c 0,57,58
 911 1482 911 1482 1162 1482 c 0,59,60
 1456 1482 1456 1482 1698 1318 c 0,61,62
 1921 1167 1921 1167 2026 924 c 0,63,64
 2100 753 2100 753 2100 564 c 0,65,66
 2100 390 2100 390 2033 227 c 0,67,68
 1944 10 1944 10 1780 -45 c 0,69,70
 1729 -62 1729 -62 1674 -62 c 0,71,72
 1524 -62 1524 -62 1429 80 c 0,73,74
 1414.19459212 101.919694784 1414.19459212 101.919694784 1401.97714295 124.911543889 c 1,75,76
 1396.5971902 117.37322171 1396.5971902 117.37322171 1391 110 c 0,77,78
 1250 -71 1250 -71 1021 -72 c 0,79,80
 833 -72 833 -72 708 51 c 0,81,82
 589 169 589 169 581 347 c 0,83,84
 580 360 580 360 580 372 c 0,85,86
 580 620 580 620 721 798 c 0,87,88
 844 955 844 955 1031 998 c 0,89,90
 1091 1012 1091 1012 1152 1012 c 0,91,92
 1360 1011 1360 1011 1540 882 c 0,93,94
 1578 853 1578 853 1577 807 c 0,95,96
 1576 802 1576 802 1576 798 c 2,0,-1
1394 766 m 1,97,98
 1280 836 1280 836 1152 836 c 0,99,100
 1007 836 1007 836 898 733 c 0,101,102
 769 612 769 612 757 410 c 0,103,104
 756 390 756 390 756 372 c 0,105,106
 756 231 756 231 851 156 c 0,107,108
 920 102 920 102 1021 102 c 0,109,110
 1196 102 1196 102 1288 273 c 0,111,112
 1334 358 1334 358 1350 467 c 2,113,-1
 1394 766 l 1,97,98
EndSplineSet
EndChar

StartChar: A
Encoding: 33 65 33
Width: 1416
GlyphClass: 2
Flags: W
LayerCount: 2
Fore
SplineSet
124 -48 m 0,0,1
 80 -28 80 -28 73 20 c 0,2,3
 70 45 70 45 80 68 c 2,4,-1
 250.72485026 447.257279816 l 2,5,6
 250.76922606 450.115325755 250.76922606 450.115325755 251 453 c 0,7,8
 254.003101427 488.286441771 254.003101427 488.286441771 278.989084675 510.044956268 c 1,9,-1
 658 1352 l 2,10,11
 677 1395 677 1395 725 1402 c 0,12,13
 755 1405 755 1405 780 1392 c 0,14,15
 810 1374 810 1374 820 1348 c 2,16,-1
 1338 32 l 2,17,18
 1356 -14 1356 -14 1324 -55 c 0,19,20
 1309 -74 1309 -74 1288 -82 c 0,21,22
 1242 -100 1242 -100 1201 -68 c 0,23,24
 1182 -53 1182 -53 1174 -32 c 2,25,-1
 1046.05306121 293.077855783 l 1,26,-1
 399.808214755 351.670721862 l 1,27,-1
 240 -4 l 2,28,29
 220 -48 220 -48 172 -55 c 0,30,31
 147 -58 147 -58 124 -48 c 0,0,1
475.555075078 520.253673193 m 1,32,-1
 974.44221947 475.021238768 l 1,33,-1
 732 1091 l 1,34,-1
 475.555075078 520.253673193 l 1,32,-1
EndSplineSet
EndChar

StartChar: B
Encoding: 34 66 34
Width: 1138
GlyphClass: 2
Flags: W
LayerCount: 2
Fore
SplineSet
311.287902487 804.795144401 m 1,0,1
 663.230604855 832.504638914 663.230604855 832.504638914 765 937 c 0,2,3
 810 984 810 984 810 1046 c 0,4,5
 810 1171 810 1171 695 1226 c 0,6,7
 627 1258 627 1258 533 1258 c 0,8,9
 416.639860652 1258 416.639860652 1258 293.195939981 1219.36119278 c 1,10,11
 308.340720784 1009.79111876 308.340720784 1009.79111876 311.287902487 804.795144401 c 1,0,1
116.068498332 1306.67967941 m 0,12,13
 122.51318986 1328.66246402 122.51318986 1328.66246402 141.087965022 1344.98454266 c 0,14,15
 153.01679605 1356.2921131 153.01679605 1356.2921131 168 1362 c 0,16,17
 352 1434 352 1434 533 1434 c 0,18,19
 706 1434 706 1434 831 1340 c 0,20,21
 977 1231 977 1231 984 1044 c 0,22,23
 984 1035 984 1035 984 1028 c 0,24,25
 984 859.021970005 984 859.021970005 830.225079989 760.636520249 c 1,26,27
 902.416930513 727.334256194 902.416930513 727.334256194 955 674 c 0,28,29
 1066 561 1066 561 1066 376 c 0,30,31
 1066 123 1066 123 848 6 c 0,32,33
 702 -72 702 -72 501 -72 c 0,34,35
 328.506755538 -72 328.506755538 -72 184.505246717 -26.4132227593 c 0,36,37
 158.745233755 -21.3508061563 158.745233755 -21.3508061563 141.21154379 -3.45532614943 c 0,38,39
 132.344947565 5.17177711854 132.344947565 5.17177711854 126.337885743 16.5690538892 c 0,40,41
 125.658690072 17.768533149 125.658690072 17.768533149 125 19 c 0,42,43
 114 42 114 42 116 66 c 0,44,45
 138 354 138 354 138 696 c 0,46,47
 138 961.450272373 138 961.450272373 114.013451693 1260.48171406 c 0,48,49
 108.152289107 1284.26956507 108.152289107 1284.26956507 116.068498332 1306.67967941 c 0,12,13
311.748443162 630.145791331 m 1,50,51
 309.932428378 358.905039244 309.932428378 358.905039244 295.006415368 124.610645792 c 1,52,53
 395.742143105 102 395.742143105 102 501 102 c 0,54,55
 790 102 790 102 866 259 c 0,56,57
 890 311 890 311 890 376 c 0,58,59
 890 548 890 548 762 606 c 0,60,61
 679 644 679 644 536 644 c 0,62,63
 514.334054652 644 514.334054652 644 311.748443162 630.145791331 c 1,50,51
EndSplineSet
EndChar

StartChar: C
Encoding: 35 67 35
Width: 1271
GlyphClass: 2
Flags: W
LayerCount: 2
Fore
SplineSet
1156 1256 m 0,0,1
 1136 1212 1136 1212 1088 1205 c 0,2,3
 1063 1202 1063 1202 1040 1212 c 0,4,5
 937 1258 937 1258 814 1258 c 0,6,7
 597 1258 597 1258 441 1117 c 0,8,9
 293 983 293 983 257 775 c 0,10,11
 248 719 248 719 248 662 c 0,12,13
 248 436 248 436 386 281 c 0,14,15
 521 130 521 130 737 106 c 0,16,17
 773 102 773 102 810 102 c 0,18,19
 948 102 948 102 1070 166 c 0,20,21
 1115 189 1115 189 1158 162 c 0,22,23
 1178 149 1178 149 1188 130 c 0,24,25
 1211 85 1211 85 1184 42 c 0,26,27
 1171 22 1171 22 1152 12 c 0,28,29
 992 -72 992 -72 810 -72 c 0,30,31
 542 -72 542 -72 344 84 c 0,32,33
 159 230 159 230 97 463 c 0,34,35
 72 559 72 559 72 662 c 0,36,37
 72 922 72 922 218 1127 c 0,38,39
 357 1323 357 1323 579 1397 c 0,40,41
 692 1434 692 1434 814 1434 c 0,42,43
 972 1434 972 1434 1112 1372 c 0,44,45
 1156 1352 1156 1352 1163 1304 c 0,46,47
 1166 1279 1166 1279 1156 1256 c 0,0,1
EndSplineSet
EndChar

StartChar: D
Encoding: 36 68 36
Width: 1279
GlyphClass: 2
Flags: W
LayerCount: 2
Fore
SplineSet
198 1410 m 0,0,1
 301 1434 301 1434 406 1434 c 0,2,3
 749 1434 749 1434 962 1263 c 0,4,5
 1190 1079 1190 1079 1205 745 c 0,6,7
 1206 723 1206 723 1206 701 c 0,8,9
 1206 434 1206 434 1053 227 c 0,10,11
 911 35 911 35 684 -37 c 0,12,13
 572 -72 572 -72 452 -72 c 0,14,15
 301 -72 301 -72 168 -20 c 0,16,17
 125 -3 125 -3 115 46 c 0,18,19
 113 60 113 60 114 73 c 0,20,21
 158 421 158 421 158 811 c 0,22,23
 158 1046 158 1046 131 1309 c 0,24,25
 130 1313 130 1313 130 1316 c 0,26,27
 125 1363 125 1363 165 1394 c 0,28,29
 181 1406 181 1406 198 1410 c 0,0,1
312 1250 m 1,30,31
 332 1032 332 1032 332 811 c 0,32,33
 332 448 332 448 296 126 c 1,34,35
 372 102 372 102 452 102 c 0,36,37
 672 102 672 102 831 241 c 0,38,39
 984 374 984 374 1021 582 c 0,40,41
 1032 641 1032 641 1032 701 c 0,42,43
 1032 1071 1032 1071 743 1198 c 0,44,45
 603 1258 603 1258 406 1258 c 0,46,47
 354 1258 354 1258 312 1250 c 1,30,31
EndSplineSet
EndChar

StartChar: E
Encoding: 37 69 37
Width: 1098
GlyphClass: 2
Flags: W
LayerCount: 2
Fore
SplineSet
1023 1378 m 0,0,1
 1033 1330 1033 1330 998 1295 c 0,2,3
 980 1279 980 1279 958 1274 c 0,4,5
 761 1228 761 1228 472 1228 c 0,6,7
 442 1228 442 1228 316 1233 c 1,8,9
 330 1103 330 1103 330 960 c 0,10,11
 330 898.135543371 330 898.135543371 328.496732769 837.309056973 c 1,12,13
 413.310177779 842 413.310177779 842 500 842 c 0,14,15
 679 842 679 842 870 820 c 0,16,17
 916 814 916 814 937 771 c 0,18,19
 949 747 949 747 946 722 c 0,20,21
 940 675 940 675 897 654 c 0,22,23
 873 643 873 643 849 646 c 0,24,25
 686 666 686 666 500 666 c 0,26,27
 404.948197007 666 404.948197007 666 320.864815236 661.299248048 c 1,28,29
 310.412305902 494.020646637 310.412305902 494.020646637 288 335 c 0,30,31
 284 302 284 302 284 295 c 0,32,33
 284 203 284 203 379 167 c 0,34,35
 469 133 469 133 734 132 c 0,36,37
 751 132 751 132 768 132 c 0,38,39
 871 132 871 132 920 133 c 128,-1,40
 969 134 969 134 996 93 c 0,41,42
 1009 72 1009 72 1010 48 c 0,43,44
 1011 0 1011 0 970 -27 c 0,45,46
 948 -40 948 -40 924 -41 c 0,47,48
 872 -42 872 -42 768 -42 c 0,49,50
 555 -42 555 -42 468 -31 c 0,51,52
 193 3 193 3 130 173 c 0,53,54
 110 228 110 228 110 295 c 0,55,56
 110 337 110 337 114 361 c 0,57,58
 133.868101705 499.580009389 133.868101705 499.580009389 143.867666776 648.275268827 c 1,59,60
 112.537494607 653.283340524 112.537494607 653.283340524 91 682 c 0,61,62
 77 701 77 701 74 724 c 0,63,64
 68 772 68 772 107 803 c 0,65,66
 127 819 127 819 150 822 c 0,67,68
 151.046784049 822.122430883 151.046784049 822.122430883 152.09386789 822.2441123 c 0,69,70
 153.999999995 890.145163446 153.999999995 890.145163446 154 960 c 0,71,72
 154 1144 154 1144 132 1314 c 0,73,74
 128 1351 128 1351 157 1384 c 0,75,76
 184 1414 184 1414 223 1412 c 0,77,78
 358 1404 358 1404 472 1404 c 0,79,80
 742 1404 742 1404 918 1444 c 0,81,82
 965 1454 965 1454 1001 1419 c 0,83,84
 1018 1400 1018 1400 1023 1378 c 0,0,1
EndSplineSet
EndChar

StartChar: F
Encoding: 38 70 38
Width: 1092
GlyphClass: 2
Flags: W
LayerCount: 2
Fore
SplineSet
1017 1358 m 0,0,1
 1027 1310 1027 1310 992 1275 c 0,2,3
 974 1258 974 1258 952 1253 c 0,4,5
 759 1208 759 1208 466 1208 c 0,6,7
 409 1208 409 1208 310 1212 c 1,8,9
 326.87692608 1036.73961379 326.87692608 1036.73961379 332.798827779 823.979336421 c 1,10,11
 409.190631868 828 409.190631868 828 489 828 c 0,12,13
 666 828 666 828 854 806 c 0,14,15
 900 800 900 800 921 757 c 0,16,17
 933 733 933 733 930 708 c 0,18,19
 924 662 924 662 881 641 c 0,20,21
 857 629 857 629 832 632 c 0,22,23
 652 654 652 654 489 654 c 0,24,25
 416.615674698 654 416.615674698 654 335.776012306 648.875553279 c 1,26,27
 336 616.321140193 336 616.321140193 336 583 c 0,28,29
 336 281 336 281 304 -10 c 0,30,31
 298 -57 298 -57 256 -78 c 0,32,33
 233 -90 233 -90 208 -87 c 0,34,35
 162 -81 162 -81 139 -39 c 0,36,37
 127 -16 127 -16 130 10 c 0,38,39
 160 272 160 272 160 583 c 0,40,41
 160 608.370743463 160 608.370743463 159.878837718 633.246147007 c 1,42,43
 117.837030901 632.217292132 117.837030901 632.217292132 91 668 c 0,44,45
 77 687 77 687 74 710 c 0,46,47
 68 758 68 758 107 789 c 0,48,49
 127 805 127 805 150 808 c 0,50,51
 153.677504711 808.456832883 153.677504711 808.456832883 157.363879014 808.903230953 c 0,52,53
 150.532787448 1087.63596441 150.532787448 1087.63596441 126 1294 c 0,54,55
 122 1330 122 1330 151 1363 c 0,56,57
 179 1393 179 1393 218 1391 c 0,58,59
 333 1384 333 1384 466 1384 c 0,60,61
 741 1384 741 1384 912 1423 c 0,62,63
 960 1433 960 1433 995 1398 c 0,64,65
 1012 1380 1012 1380 1017 1358 c 0,0,1
EndSplineSet
EndChar

StartChar: G
Encoding: 39 71 39
Width: 1349
GlyphClass: 2
Flags: W
LayerCount: 2
Fore
SplineSet
560 649 m 0,0,1
 560 698 560 698 603 724 c 0,2,3
 624 736 624 736 648 736 c 2,4,-1
 1184 736 l 2,5,6
 1232 736 1232 736 1259 692 c 0,7,8
 1269 674 1269 674 1271 655 c 0,9,10
 1276 588 1276 588 1276 537 c 0,11,12
 1276 186 1276 186 1076 33 c 0,13,14
 938 -72 938 -72 716 -72 c 0,15,16
 463 -72 463 -72 292 78 c 0,17,18
 98 249 98 249 75 561 c 0,19,20
 72 600 72 600 72 639 c 0,21,22
 72 941 72 941 210 1150 c 0,23,24
 366 1387 366 1387 653 1427 c 0,25,26
 707 1434 707 1434 763 1434 c 0,27,28
 945 1433 945 1433 1090 1326 c 0,29,30
 1129 1297 1129 1297 1124 1247 c 0,31,32
 1121 1223 1121 1223 1108 1204 c 0,33,34
 1079 1165 1079 1165 1029 1170 c 0,35,36
 1004 1172 1004 1172 985 1186 c 0,37,38
 887 1258 887 1258 763 1258 c 0,39,40
 475 1258 475 1258 342 1038 c 0,41,42
 248 881 248 881 248 639 c 0,43,44
 248 287 248 287 466 162 c 0,45,46
 571 102 571 102 716 102 c 0,47,48
 957 102 957 102 1041 241 c 0,49,50
 1103 345 1103 345 1099 562 c 1,51,-1
 648 562 l 2,52,53
 599 562 599 562 573 604 c 0,54,55
 560 625 560 625 560 649 c 0,0,1
EndSplineSet
EndChar

StartChar: H
Encoding: 40 72 40
Width: 1319
GlyphClass: 2
Flags: W
LayerCount: 2
Fore
SplineSet
272 1403 m 0,0,1
 321 1403 321 1403 346 1361 c 0,2,3
 359 1340 359 1340 359 1316 c 0,4,5
 356.366483368 1023.30343723 356.366483368 1023.30343723 346.797556888 763.302378026 c 1,6,7
 625.455201568 760.705903023 625.455201568 760.705903023 944.868891711 748.445623425 c 1,8,-1
 920 1312 l 2,9,10
 918 1361 918 1361 959 1389 c 0,11,12
 980 1402 980 1402 1003 1403 c 0,13,14
 1052 1405 1052 1405 1080 1364 c 0,15,16
 1093 1343 1093 1343 1094 1320 c 2,17,-1
 1119.54361701 741.155662087 l 2,18,19
 1121.27125123 741.07796318 1121.27125123 741.07796318 1123 741 c 0,20,21
 1172 739 1172 739 1196 695 c 0,22,23
 1207 674 1207 674 1206 650 c 0,24,25
 1204 601 1204 601 1160 577 c 0,26,27
 1144.43244771 568.845567849 1144.43244771 568.845567849 1127.21626492 567.285657718 c 1,28,-1
 1153 -17 l 2,29,30
 1155 -66 1155 -66 1114 -94 c 0,31,32
 1093 -107 1093 -107 1070 -108 c 0,33,34
 1021 -110 1021 -110 993 -69 c 0,35,36
 980 -48 980 -48 979 -25 c 2,37,-1
 952.578221017 573.744381355 l 1,38,39
 643.944843094 585.342722332 643.944843094 585.342722332 339.355630396 587.504677785 c 1,40,41
 323.651139569 261.092381145 323.651139569 261.092381145 296 -9 c 0,42,43
 291 -55 291 -55 249 -77 c 0,44,45
 224 -89 224 -89 199 -87 c 0,46,47
 153 -82 153 -82 130 -39 c 0,48,49
 119 -16 119 -16 121 9 c 0,50,51
 148.224110258 284.584414362 148.224110258 284.584414362 164.042369803 595.070731906 c 1,52,53
 140.45682766 605.436785024 140.45682766 605.436785024 125 631 c 0,54,55
 113 652 113 652 113 676 c 0,56,57
 113 725 113 725 155 751 c 0,58,59
 163.032185465 755.972305288 163.032185465 755.972305288 171.503255311 759.042778277 c 1,60,61
 182.213408725 1025.39833906 182.213408725 1025.39833906 185 1316 c 0,62,63
 185 1365 185 1365 227 1390 c 0,64,65
 248 1403 248 1403 272 1403 c 0,0,1
EndSplineSet
EndChar

StartChar: I
Encoding: 41 73 41
Width: 435
GlyphClass: 2
Flags: W
LayerCount: 2
Fore
SplineSet
198 -87 m 0,0,1
 150 -86 150 -86 125 -44 c 0,2,3
 113 -22 113 -22 113 2 c 2,4,-1
 148 1363 l 2,5,6
 149 1411 149 1411 191 1436 c 0,7,8
 213 1448 213 1448 237 1448 c 0,9,10
 285 1447 285 1447 310 1405 c 0,11,12
 322 1383 322 1383 322 1359 c 2,13,-1
 287 -2 l 2,14,15
 286 -50 286 -50 244 -75 c 0,16,17
 222 -87 222 -87 198 -87 c 0,0,1
EndSplineSet
EndChar

StartChar: J
Encoding: 42 74 42
Width: 680
GlyphClass: 2
Flags: W
LayerCount: 2
Fore
SplineSet
86 1317 m 0,0,1
 86 1366 86 1366 128 1391 c 0,2,3
 149 1404 149 1404 173 1404 c 2,4,-1
 550 1404 l 2,5,6
 599 1404 599 1404 625 1362 c 0,7,8
 638 1341 638 1341 638 1317 c 0,9,10
 638 1268 638 1268 595 1242 c 0,11,12
 574 1230 574 1230 550 1230 c 2,13,-1
 508.159826639 1230 l 1,14,15
 562 780.499443846 562 780.499443846 562 300 c 0,16,17
 562 82 562 82 436 -13 c 0,18,19
 356 -72 356 -72 233 -72 c 0,20,21
 192 -72 192 -72 153 -69 c 0,22,23
 105 -65 105 -65 83 -22 c 0,24,25
 71 1 71 1 73 25 c 0,26,27
 77 72 77 72 120 95 c 0,28,29
 144 107 144 107 168 105 c 0,30,31
 200 102 200 102 233 102 c 0,32,33
 327 102 327 102 358 142 c 0,34,35
 388 183 388 183 388 300 c 0,36,37
 388 774.407202725 388 774.407202725 333.267184145 1230 c 1,38,-1
 173 1230 l 2,39,40
 124 1230 124 1230 99 1272 c 0,41,42
 86 1293 86 1293 86 1317 c 0,0,1
EndSplineSet
EndChar

StartChar: K
Encoding: 43 75 43
Width: 1217
GlyphClass: 2
Flags: W
LayerCount: 2
Fore
SplineSet
1038 1432 m 0,0,1
 1077 1403 1077 1403 1072 1353 c 0,2,3
 1070 1328 1070 1328 1056 1309 c 0,4,5
 813 983 813 983 338 699 c 1,6,7
 603 401 603 401 1081 89 c 0,8,9
 1093 81 1093 81 1104 74 c 0,10,11
 1145 47 1145 47 1144 -3 c 0,12,13
 1142 -27 1142 -27 1130 -47 c 0,14,15
 1103 -88 1103 -88 1054 -87 c 0,16,17
 1030 -86 1030 -86 1010 -74 c 0,18,19
 574.388530905 207.248221234 574.388530905 207.248221234 299.454976983 481.964819899 c 1,20,-1
 287 -2 l 2,21,22
 286 -50 286 -50 244 -75 c 0,23,24
 222 -87 222 -87 198 -87 c 0,25,26
 150 -86 150 -86 125 -44 c 0,27,28
 113 -22 113 -22 113 2 c 2,29,-1
 130.196221988 670.196054383 l 1,30,31
 108.93052455 701.567010776 108.93052455 701.567010776 120 744 c 0,32,33
 124.728892648 759.046476606 124.728892648 759.046476606 132.784427131 770.766311377 c 1,34,-1
 148 1362 l 2,35,36
 149 1410 149 1410 191 1435 c 0,37,38
 213 1447 213 1447 237 1447 c 0,39,40
 285 1446 285 1446 310 1404 c 0,41,42
 322 1382 322 1382 322 1358 c 2,43,-1
 309.838705834 885.446855252 l 1,44,45
 710.749951782 1137.35427409 710.749951782 1137.35427409 916 1413 c 0,46,47
 945 1452 945 1452 994 1448 c 0,48,49
 1019 1446 1019 1446 1038 1432 c 0,0,1
EndSplineSet
EndChar

StartChar: L
Encoding: 44 76 44
Width: 1166
GlyphClass: 2
Flags: W
LayerCount: 2
Fore
SplineSet
212 1403 m 0,0,1
 261 1407 261 1407 290 1365 c 0,2,3
 303 1345 303 1345 305 1322 c 0,4,5
 322 1060 322 1060 322 830 c 0,6,7
 322 539 322 539 294 130 c 1,8,-1
 1008 109 l 2,9,10
 1056 108 1056 108 1081 66 c 0,11,12
 1093 44 1093 44 1093 20 c 0,13,14
 1092 -28 1092 -28 1050 -53 c 0,15,16
 1028 -65 1028 -65 1004 -65 c 2,17,-1
 198 -42 l 2,18,19
 154 -41 154 -41 128 -2 c 0,20,21
 111 23 111 23 113 52 c 0,22,23
 146 486 146 486 146 830 c 0,24,25
 146 1085 146 1085 131 1310 c 0,26,27
 127 1359 127 1359 169 1388 c 0,28,29
 189 1401 189 1401 212 1403 c 0,0,1
EndSplineSet
EndChar

StartChar: M
Encoding: 45 77 45
Width: 1599
GlyphClass: 2
Flags: W
LayerCount: 2
Fore
SplineSet
180 -87 m 0,0,1
 134 -82 134 -82 112 -38 c 0,2,3
 101 -15 101 -15 103 10 c 2,4,-1
 240 1310 l 2,5,6
 245 1357 245 1357 288 1379 c 0,7,8
 315 1391 315 1391 343 1386 c 0,9,10
 383 1379 383 1379 404 1342 c 0,11,12
 410 1332 410 1332 412 1324 c 0,13,14
 481 1072 481 1072 646 744 c 0,15,16
 679 678 679 678 709 624 c 0,17,18
 757 540 757 540 787 540 c 0,19,20
 818 540 818 540 859 610 c 0,21,22
 860 611 860 611 860 612 c 0,23,24
 971 795 971 795 1073 1090 c 0,25,26
 1124 1236 1124 1236 1144 1333 c 0,27,28
 1153 1379 1153 1379 1197 1397 c 0,29,30
 1226 1408 1226 1408 1254 1400 c 0,31,32
 1295 1389 1295 1389 1312 1344 c 0,33,34
 1316 1331 1316 1331 1317 1320 c 0,35,36
 1335 816 1335 816 1419 377 c 0,37,38
 1449 223 1449 223 1494 32 c 0,39,40
 1505 -16 1505 -16 1469 -51 c 0,41,42
 1451 -67 1451 -67 1429 -73 c 0,43,44
 1381 -84 1381 -84 1346 -48 c 0,45,46
 1330 -30 1330 -30 1324 -8 c 0,47,48
 1219 441 1219 441 1184 797 c 0,49,50
 1179 849 1179 849 1175 902 c 1,51,52
 1114 717 1114 717 1018 544 c 0,53,54
 1010 529 1010 529 1002 516 c 0,55,56
 937 405 937 405 878 368 c 0,57,58
 836 342 836 342 787 342 c 0,59,60
 685 342 685 342 605 462 c 0,61,62
 586 489 586 489 562 533 c 0,63,64
 450 729 450 729 376 938 c 1,65,-1
 277 -10 l 2,66,67
 272 -56 272 -56 228 -78 c 0,68,69
 205 -90 205 -90 180 -87 c 0,0,1
EndSplineSet
EndChar

StartChar: N
Encoding: 46 78 46
Width: 1307
GlyphClass: 2
Flags: W
LayerCount: 2
Fore
SplineSet
196 -87 m 0,0,1
 147 -85 147 -85 123 -41 c 0,2,3
 112 -20 112 -20 113 4 c 0,4,5
 151 764 151 764 158 1317 c 0,6,7
 158 1365 158 1365 200 1390 c 0,8,9
 226 1405 226 1405 253 1403 c 0,10,11
 291 1399 291 1399 314 1369 c 0,12,13
 675 894 675 894 1008 322 c 1,14,-1
 1020 1362 l 2,15,16
 1020 1411 1020 1411 1063 1436 c 0,17,18
 1084 1448 1084 1448 1108 1448 c 0,19,20
 1157 1448 1157 1448 1182 1405 c 0,21,22
 1194 1384 1194 1384 1194 1360 c 2,23,-1
 1179 3 l 2,24,25
 1179 -38 1179 -38 1146 -65 c 0,26,27
 1142 -67 1142 -67 1140 -69 c 0,28,29
 1098 -97 1098 -97 1052 -73 c 0,30,31
 1029 -60 1029 -60 1016 -38 c 0,32,33
 684 560 684 560 327 1054 c 1,34,35
 316 581 316 581 287 -4 c 0,36,37
 285 -53 285 -53 241 -77 c 0,38,39
 220 -88 220 -88 196 -87 c 0,0,1
EndSplineSet
EndChar

StartChar: O
Encoding: 47 79 47
Width: 1485
GlyphClass: 2
Flags: W
LayerCount: 2
Fore
SplineSet
713 -72 m 0,0,1
 469 -72 469 -72 296 81 c 0,2,3
 128 229 128 229 85 467 c 0,4,5
 72 538 72 538 72 613 c 0,6,7
 72 873 72 873 206 1089 c 0,8,9
 335 1296 335 1296 542 1383 c 0,10,11
 665 1434 665 1434 799 1434 c 0,12,13
 1049 1434 1049 1434 1217 1242 c 0,14,15
 1361 1079 1361 1079 1400 834 c 0,16,17
 1412 759 1412 759 1412 684 c 0,18,19
 1412 408 1412 408 1262 204 c 0,20,21
 1122 15 1122 15 901 -47 c 0,22,23
 810 -72 810 -72 713 -72 c 0,0,1
713 102 m 0,24,25
 917 102 917 102 1060 236 c 0,26,27
 1209 375 1209 375 1234 602 c 0,28,29
 1238 643 1238 643 1238 684 c 0,30,31
 1238 913 1238 913 1126 1075 c 0,32,33
 1021 1228 1021 1228 858 1253 c 0,34,35
 829 1258 829 1258 799 1258 c 0,36,37
 603 1258 603 1258 452 1115 c 0,38,39
 308 977 308 977 264 766 c 0,40,41
 248 690 248 690 248 613 c 0,42,43
 248 377 248 377 384 235 c 0,44,45
 514 103 514 103 713 102 c 0,24,25
EndSplineSet
EndChar

StartChar: P
Encoding: 48 80 48
Width: 1269
GlyphClass: 2
Flags: W
LayerCount: 2
Fore
SplineSet
102 1102 m 0,0,1
 64 1136 64 1136 74 1185 c 0,2,3
 79 1208 79 1208 94 1225 c 0,4,5
 200 1347 200 1347 408 1403 c 0,6,7
 523 1434 523 1434 636 1434 c 0,8,9
 846 1434 846 1434 1002 1298 c 0,10,11
 1147 1171 1147 1171 1185 979 c 0,12,13
 1196 921 1196 921 1196 862 c 0,14,15
 1196 647 1196 647 1026 496 c 0,16,17
 885 369 885 369 683 333 c 0,18,19
 620 322 620 322 560 322 c 0,20,21
 451.596198226 322 451.596198226 322 369.453419478 334.424570034 c 1,22,-1
 345 -6 l 2,23,24
 341 -55 341 -55 298 -78 c 0,25,26
 276 -89 276 -89 252 -87 c 0,27,28
 203 -83 203 -83 180 -40 c 0,29,30
 169 -18 169 -18 171 6 c 2,31,-1
 199.750061812 406.239624546 l 1,32,33
 194.841061625 416.11919684 194.841061625 416.11919684 192 428 c 0,34,35
 186 455 186 455 196 479 c 0,36,37
 200.324920371 489.331754221 200.324920371 489.331754221 206.324047997 497.758376049 c 1,38,-1
 251.980253619 1133.35431723 l 1,39,40
 237.24991785 1121.37490963 237.24991785 1121.37490963 226 1109 c 0,41,42
 193 1071 193 1071 143 1082 c 0,43,44
 119 1087 119 1087 102 1102 c 0,0,1
433.407205431 1224.74750033 m 1,45,-1
 382.132562013 510.935329598 l 1,46,47
 432.83377981 503.144414679 432.83377981 503.144414679 510 498 c 0,48,49
 541 496 541 496 560 496 c 0,50,51
 726 496 726 496 860 589 c 0,52,53
 988 677 988 677 1015 802 c 0,54,55
 1022 833 1022 833 1022 862 c 0,56,57
 1022 1026 1022 1026 915 1140 c 0,58,59
 810 1251 810 1251 653 1258 c 0,60,61
 644 1258 644 1258 636 1258 c 0,62,63
 535.207428468 1258 535.207428468 1258 433.407205431 1224.74750033 c 1,45,-1
EndSplineSet
EndChar

StartChar: Q
Encoding: 49 81 49
Width: 1485
GlyphClass: 2
Flags: W
LayerCount: 2
Fore
SplineSet
713 -72 m 0,0,1
 469 -72 469 -72 296 81 c 0,2,3
 128 229 128 229 85 467 c 0,4,5
 72 538 72 538 72 613 c 0,6,7
 72 873 72 873 206 1089 c 0,8,9
 335 1296 335 1296 542 1383 c 0,10,11
 665 1434 665 1434 799 1434 c 0,12,13
 1049 1434 1049 1434 1217 1242 c 0,14,15
 1361 1079 1361 1079 1400 834 c 0,16,17
 1412 759 1412 759 1412 684 c 0,18,19
 1412 408 1412 408 1262 204 c 0,20,21
 1245.47081839 181.685604821 1245.47081839 181.685604821 1227.81253874 161.14152384 c 1,22,23
 1261.90626937 126.099945213 1261.90626937 126.099945213 1296 94 c 128,-1,24
 1330 62 1330 62 1366 30 c 0,25,26
 1404 -4 1404 -4 1394 -53 c 0,27,28
 1389 -76 1389 -76 1374 -93 c 0,29,30
 1341 -131 1341 -131 1291 -120 c 0,31,32
 1267 -115 1267 -115 1250 -100 c 0,33,34
 1171.55948232 -31.4101519862 1171.55948232 -31.4101519862 1097.91085071 44.1013092301 c 1,35,36
 1009.15529909 -16.6577893943 1009.15529909 -16.6577893943 901 -47 c 0,37,38
 810 -72 810 -72 713 -72 c 0,0,1
832 510 m 0,39,40
 874 540 874 540 920 518 c 0,41,42
 941 508 941 508 954 490 c 0,43,44
 1032.34471729 382.333283263 1032.34471729 382.333283263 1110.68943457 290.199695002 c 1,45,46
 1213.6055063 416.81799723 1213.6055063 416.81799723 1234 602 c 0,47,48
 1238 643 1238 643 1238 684 c 0,49,50
 1238 913 1238 913 1126 1075 c 0,51,52
 1021 1228 1021 1228 858 1253 c 0,53,54
 829 1258 829 1258 799 1258 c 0,55,56
 603 1258 603 1258 452 1115 c 0,57,58
 308 977 308 977 264 766 c 0,59,60
 248 690 248 690 248 613 c 0,61,62
 248 377 248 377 384 235 c 0,63,64
 514 103 514 103 713 102 c 0,65,66
 862.471755735 102 862.471755735 102 979.195285992 173.938724822 c 1,67,68
 915.601977359 248.086734268 915.601977359 248.086734268 856 328 c 0,69,70
 834 357 834 357 812 388 c 0,71,72
 782 430 782 430 804 476 c 0,73,74
 814 497 814 497 832 510 c 0,39,40
EndSplineSet
EndChar

StartChar: R
Encoding: 50 82 50
Width: 1270
GlyphClass: 2
Flags: W
LayerCount: 2
Fore
SplineSet
102 1102 m 0,0,1
 64 1136 64 1136 74 1185 c 0,2,3
 79 1208 79 1208 94 1225 c 0,4,5
 203 1348 203 1348 403 1404 c 0,6,7
 513 1434 513 1434 622 1434 c 0,8,9
 838 1434 838 1434 989 1290 c 0,10,11
 1127 1157 1127 1157 1157 957 c 0,12,13
 1164 909 1164 909 1164 862 c 0,14,15
 1164 662 1164 662 1021 512 c 0,16,17
 893.639769044 377.83426052 893.639769044 377.83426052 702.950938079 335.353210605 c 1,18,-1
 1154 76 l 2,19,20
 1196 52 1196 52 1197 2 c 0,21,22
 1198 -23 1198 -23 1186 -44 c 0,23,24
 1162 -86 1162 -86 1112 -87 c 0,25,26
 1087 -88 1087 -88 1066 -76 c 2,27,-1
 387.22351293 314.296480065 l 1,28,-1
 369 -5 l 2,29,30
 366 -54 366 -54 323 -77 c 0,31,32
 301 -88 301 -88 277 -87 c 0,33,34
 228 -84 228 -84 205 -41 c 0,35,36
 194 -19 194 -19 195 5 c 2,37,-1
 218.223977613 411.910255636 l 1,38,39
 187.646928915 433.24648216 187.646928915 433.24648216 183.594680458 471.403313582 c 0,40,41
 183.205680335 474.640550265 183.205680335 474.640550265 183 478 c 0,42,43
 182.894722658 480.737210904 182.894722658 480.737210904 182.933528457 483.419005214 c 0,44,45
 182.582825827 507.019945193 182.582825827 507.019945193 194 527 c 0,46,47
 206.697980491 549.221465859 206.697980491 549.221465859 226.674097131 559.965870867 c 1,48,-1
 259.815220896 1140.63570134 l 1,49,50
 240.291041003 1125.17144113 240.291041003 1125.17144113 226 1109 c 0,51,52
 193 1071 193 1071 143 1082 c 0,53,54
 119 1087 119 1087 102 1102 c 0,0,1
439.498827259 1230.21888888 m 1,55,-1
 399.013022992 520.861980303 l 1,56,57
 477.064513286 494 477.064513286 494 560 494 c 0,58,59
 731 494 731 494 856 598 c 0,60,61
 969 691 969 691 987 821 c 0,62,63
 990 842 990 842 990 862 c 0,64,65
 990 1037 990 1037 883 1150 c 0,66,67
 779 1258 779 1258 622 1258 c 0,68,69
 529.319503498 1258 529.319503498 1258 439.498827259 1230.21888888 c 1,55,-1
EndSplineSet
EndChar

StartChar: S
Encoding: 51 83 51
Width: 1182
GlyphClass: 2
Flags: W
LayerCount: 2
Fore
SplineSet
1037 1217 m 0,0,1
 1012 1174 1012 1174 963 1173 c 0,2,3
 938 1173 938 1173 918 1184 c 0,4,5
 784 1258 784 1258 619 1258 c 0,6,7
 446 1258 446 1258 340 1170 c 0,8,9
 253 1097 253 1097 252 996 c 0,10,11
 252 906 252 906 354 847 c 0,12,13
 427 805 427 805 608 750 c 0,14,15
 784 697 784 697 850 668 c 0,16,17
 1068 572 1068 572 1103 411 c 0,18,19
 1110 378 1110 378 1110 343 c 0,20,21
 1110 135 1110 135 929 21 c 0,22,23
 786 -69 786 -69 588 -72 c 0,24,25
 583 -72 583 -72 578 -72 c 0,26,27
 341 -72 341 -72 160 11 c 0,28,29
 137 21 137 21 118 32 c 0,30,31
 74 57 74 57 73 105 c 0,32,33
 73 129 73 129 84 150 c 0,34,35
 109 193 109 193 157 195 c 0,36,37
 182 196 182 196 203 184 c 0,38,39
 306 126 306 126 478 108 c 0,40,41
 530 102 530 102 578 102 c 0,42,43
 759 102 759 102 861 186 c 0,44,45
 933 247 933 247 934 329 c 0,46,47
 934 420 934 420 810 486 c 0,48,49
 729 530 729 530 556 582 c 0,50,51
 385 634 385 634 313 668 c 0,52,53
 94 774 94 774 79 967 c 0,54,55
 78 982 78 982 78 996 c 0,56,57
 78 1194 78 1194 242 1317 c 0,58,59
 379 1419 379 1419 573 1432 c 0,60,61
 596 1434 596 1434 619 1434 c 0,62,63
 829 1433 829 1433 1004 1336 c 0,64,65
 1047 1311 1047 1311 1048 1262 c 0,66,67
 1048 1237 1048 1237 1037 1217 c 0,0,1
EndSplineSet
EndChar

StartChar: T
Encoding: 52 84 52
Width: 1423
GlyphClass: 2
Flags: W
LayerCount: 2
Fore
SplineSet
73 1318 m 0,0,1
 73 1367 73 1367 117 1391 c 0,2,3
 139 1403 139 1403 162 1403 c 2,4,-1
 1264 1384 l 2,5,6
 1313 1384 1313 1384 1338 1341 c 0,7,8
 1350 1320 1350 1320 1350 1296 c 0,9,10
 1350 1247 1350 1247 1307 1222 c 0,11,12
 1286 1210 1286 1210 1262 1210 c 2,13,-1
 800.672332843 1217.93951601 l 1,14,15
 786 883.247063602 786 883.247063602 786 551 c 0,16,17
 786 278 786 278 795 6 c 0,18,19
 797 -44 797 -44 755 -70 c 0,20,21
 734 -83 734 -83 711 -84 c 0,22,23
 661 -86 661 -86 635 -44 c 0,24,25
 622 -23 622 -23 621 0 c 0,26,27
 610 338 610 338 610 551 c 0,28,29
 610 870.211796731 610 870.211796731 625.362247588 1220.95662799 c 1,30,-1
 158 1229 l 2,31,32
 109 1229 109 1229 85 1273 c 0,33,34
 73 1295 73 1295 73 1318 c 0,0,1
EndSplineSet
EndChar

StartChar: U
Encoding: 53 85 53
Width: 1310
GlyphClass: 2
Flags: W
LayerCount: 2
Fore
SplineSet
292 1420 m 0,0,1
 337 1410 337 1410 355 1366 c 0,2,3
 365 1341 365 1341 360 1316 c 0,4,5
 288 990 288 990 288 734 c 0,6,7
 288 337 288 337 411 196 c 0,8,9
 492 102 492 102 631 102 c 0,10,11
 957 102 957 102 1010 767 c 0,12,13
 1022 911 1022 911 1022 1095 c 0,14,15
 1022 1205 1022 1205 1015 1357 c 0,16,17
 1013 1406 1013 1406 1054 1434 c 0,18,19
 1075 1447 1075 1447 1098 1448 c 0,20,21
 1148 1450 1148 1450 1176 1409 c 0,22,23
 1189 1388 1189 1388 1190 1365 c 0,24,25
 1198 1191 1198 1191 1198 1095 c 0,26,27
 1198 691 1198 691 1145 455 c 0,28,29
 1024 -71 1024 -71 631 -72 c 0,30,31
 112 -71 112 -71 112 734 c 0,32,33
 112 993 112 993 184 1335 c 0,34,35
 186 1344 186 1344 188 1352 c 0,36,37
 198 1397 198 1397 242 1415 c 0,38,39
 267 1425 267 1425 292 1420 c 0,0,1
EndSplineSet
EndChar

StartChar: V
Encoding: 54 86 54
Width: 1368
GlyphClass: 2
Flags: W
LayerCount: 2
Fore
SplineSet
131 1399 m 0,0,1
 178 1416 178 1416 217 1382 c 0,2,3
 235 1366 235 1366 243 1345 c 2,4,-1
 613 275 l 1,5,-1
 1129 1354 l 2,6,7
 1149 1396 1149 1396 1198 1402 c 0,8,9
 1224 1405 1224 1405 1246 1395 c 0,10,11
 1288 1375 1288 1375 1294 1326 c 0,12,13
 1297 1300 1297 1300 1287 1278 c 2,14,-1
 679 7 l 2,15,16
 665 -22 665 -22 635 -35 c 0,17,18
 588 -55 588 -55 547 -25 c 0,19,20
 526 -8 526 -8 517 16 c 2,21,-1
 77 1287 l 2,22,23
 60 1334 60 1334 94 1373 c 0,24,25
 110 1391 110 1391 131 1399 c 0,0,1
EndSplineSet
EndChar

StartChar: W
Encoding: 55 87 55
Width: 2006
GlyphClass: 2
Flags: W
LayerCount: 2
Fore
SplineSet
135 1433 m 0,0,1
 184 1448 184 1448 221 1412 c 0,2,3
 237 1395 237 1395 244 1374 c 2,4,-1
 567 303 l 1,5,-1
 950 1213 l 2,6,7
 969 1257 969 1257 1016 1265 c 0,8,9
 1045 1270 1045 1270 1070 1257 c 0,10,11
 1102 1240 1102 1240 1113 1208 c 2,12,-1
 1415 317 l 1,13,-1
 1763 1344 l 2,14,15
 1778 1388 1778 1388 1823 1400 c 0,16,17
 1849 1407 1849 1407 1874 1399 c 0,18,19
 1918 1384 1918 1384 1930 1339 c 0,20,21
 1937 1313 1937 1313 1929 1288 c 2,22,-1
 1498 16 l 2,23,24
 1485 -20 1485 -20 1450 -36 c 0,25,26
 1404 -56 1404 -56 1363 -26 c 0,27,28
 1341 -10 1341 -10 1332 16 c 2,29,-1
 1021 932 l 1,30,-1
 634 11 l 2,31,32
 620 -20 620 -20 587 -35 c 0,33,34
 585 -36 585 -36 584 -36 c 0,35,36
 538 -54 538 -54 498 -23 c 0,37,38
 477 -6 477 -6 469 20 c 2,39,-1
 76 1324 l 2,40,41
 61 1373 61 1373 97 1410 c 0,42,43
 114 1426 114 1426 135 1433 c 0,0,1
EndSplineSet
EndChar

StartChar: X
Encoding: 56 88 56
Width: 1267
GlyphClass: 2
Flags: W
LayerCount: 2
Fore
SplineSet
152 1348 m 0,0,1
 194 1377 194 1377 240 1356 c 0,2,3
 261 1346 261 1346 274 1328 c 2,4,-1
 621.768279401 834.815338284 l 1,5,-1
 998 1388 l 2,6,7
 1024 1429 1024 1429 1076 1425 c 0,8,9
 1100 1422 1100 1422 1120 1410 c 0,10,11
 1161 1384 1161 1384 1157 1332 c 0,12,13
 1154 1308 1154 1308 1142 1288 c 2,14,-1
 729.68954436 681.767703685 l 1,15,-1
 1178 46 l 2,16,17
 1207 4 1207 4 1186 -42 c 0,18,19
 1176 -63 1176 -63 1158 -76 c 0,20,21
 1117 -105 1117 -105 1070 -83 c 0,22,23
 1049 -72 1049 -72 1036 -54 c 2,24,-1
 625.037190779 527.894243145 l 1,25,-1
 232 -50 l 2,26,27
 206 -91 206 -91 154 -87 c 0,28,29
 130 -84 130 -84 110 -72 c 0,30,31
 69 -46 69 -46 73 6 c 0,32,33
 76 30 76 30 88 50 c 2,34,-1
 517.03320148 680.820245692 l 1,35,-1
 132 1226 l 2,36,37
 102 1267 102 1267 124 1314 c 0,38,39
 134 1335 134 1335 152 1348 c 0,0,1
EndSplineSet
EndChar

StartChar: Y
Encoding: 57 89 57
Width: 1267
GlyphClass: 2
Flags: W
LayerCount: 2
Fore
SplineSet
638 -87 m 0,0,1
 588 -87 588 -87 562 -46 c 0,2,3
 549 -25 549 -25 549 -2 c 2,4,-1
 538.489006175 603.815462283 l 1,5,-1
 89 1236 l 2,6,7
 59 1277 59 1277 82 1324 c 0,8,9
 92 1345 92 1345 110 1358 c 0,10,11
 152 1388 152 1388 198 1366 c 0,12,13
 218 1355 218 1355 231 1338 c 2,14,-1
 624 786 l 1,15,-1
 1035 1388 l 2,16,17
 1062 1429 1062 1429 1113 1425 c 0,18,19
 1137 1422 1137 1422 1156 1410 c 0,20,21
 1197 1383 1197 1383 1194 1332 c 0,22,23
 1191 1308 1191 1308 1179 1288 c 2,24,-1
 712.476809404 606.605132408 l 1,25,-1
 723 2 l 2,26,27
 723 -48 723 -48 682 -74 c 0,28,29
 661 -87 661 -87 638 -87 c 0,0,1
EndSplineSet
EndChar

StartChar: Z
Encoding: 58 90 58
Width: 1422
GlyphClass: 2
Flags: W
LayerCount: 2
Fore
SplineSet
75 1249 m 0,0,1
 63 1297 63 1297 100 1333 c 0,2,3
 117 1349 117 1349 139 1355 c 0,4,5
 413 1424 413 1424 769 1422 c 0,6,7
 1020 1420 1020 1420 1188 1380 c 0,8,9
 1241 1369 1241 1369 1257 1321 c 0,10,11
 1273 1270 1273 1270 1236 1232 c 0,12,13
 768 763 768 763 376 151 c 1,14,15
 798 192 798 192 1262 192 c 0,16,17
 1310 192 1310 192 1337 150 c 0,18,19
 1350 128 1350 128 1350 104 c 0,20,21
 1350 56 1350 56 1308 29 c 0,22,23
 1287 16 1287 16 1262 16 c 0,24,25
 717 16 717 16 216 -40 c 0,26,27
 161 -46 161 -46 133 0 c 0,28,29
 105 45 105 45 129 89 c 0,30,31
 130 91 130 91 131 92 c 0,32,33
 518 728 518 728 992 1230 c 1,34,35
 755 1261 755 1261 445 1229 c 0,36,37
 294 1213 294 1213 181 1185 c 0,38,39
 133 1173 133 1173 97 1210 c 0,40,41
 81 1227 81 1227 75 1249 c 0,0,1
EndSplineSet
EndChar

StartChar: bracketleft
Encoding: 59 91 59
Width: 715
GlyphClass: 2
Flags: W
LayerCount: 2
Fore
SplineSet
602 1328 m 0,0,1
 606 1278 606 1278 565 1249 c 0,2,3
 545 1236 545 1236 522 1234 c 0,4,5
 457 1229 457 1229 404 1229 c 0,6,7
 317 1229 317 1229 300 1230 c 1,8,9
 312 1099 312 1099 312 972 c 0,10,11
 312 819 312 819 296 544 c 0,12,13
 288 412 288 412 288 266 c 0,14,15
 288 186 288 186 343 159 c 0,16,17
 388 138 388 138 514 132 c 0,18,19
 562 130 562 130 587 88 c 0,20,21
 599 65 599 65 598 41 c 0,22,23
 596 -7 596 -7 552 -31 c 0,24,25
 530 -43 530 -43 506 -42 c 0,26,27
 268 -31 268 -31 178 67 c 0,28,29
 112 141 112 141 112 266 c 0,30,31
 112 408 112 408 121 554 c 0,32,33
 136 813 136 813 136 972 c 0,34,35
 136 1165 136 1165 118 1310 c 0,36,37
 114 1348 114 1348 144 1381 c 0,38,39
 171 1410 171 1410 210 1408 c 0,40,41
 261 1404 261 1404 361 1404 c 0,42,43
 462 1404 462 1404 508 1408 c 0,44,45
 558 1412 558 1412 587 1371 c 0,46,47
 600 1351 600 1351 602 1328 c 0,0,1
EndSplineSet
EndChar

StartChar: backslash
Encoding: 60 92 60
Width: 1105
GlyphClass: 2
Flags: W
LayerCount: 2
Fore
SplineSet
128 1386 m 0,0,1
 168 1416 168 1416 215 1395 c 0,2,3
 237 1386 237 1386 250 1368 c 0,4,5
 532 989 532 989 678 742 c 0,6,7
 876 405 876 405 1008 29 c 0,8,9
 1025 -18 1025 -18 991 -57 c 0,10,11
 975 -75 975 -75 954 -83 c 0,12,13
 907 -100 907 -100 868 -66 c 0,14,15
 850 -50 850 -50 842 -29 c 0,16,17
 692 399 692 399 447 783 c 0,18,19
 327 971 327 971 110 1264 c 0,20,21
 80 1304 80 1304 101 1351 c 0,22,23
 110 1373 110 1373 128 1386 c 0,0,1
EndSplineSet
EndChar

StartChar: bracketright
Encoding: 61 93 61
Width: 726
GlyphClass: 2
Flags: W
LayerCount: 2
Fore
SplineSet
114 1357 m 0,0,1
 121 1403 121 1403 164 1423 c 0,2,3
 189 1433 189 1433 214 1430 c 0,4,5
 372 1406 372 1406 512 1403 c 0,6,7
 561 1402 561 1402 586 1357 c 0,8,9
 602 1327 602 1327 596 1297 c 0,10,11
 564 1150 564 1150 561 1003 c 0,12,13
 560 962 560 962 560 875 c 0,14,15
 560 761 560 761 586 592 c 0,16,17
 614 405 614 405 614 285 c 0,18,19
 614 26 614 26 352 -28 c 0,20,21
 286 -42 286 -42 207 -42 c 0,22,23
 158 -42 158 -42 133 0 c 0,24,25
 120 21 120 21 120 45 c 0,26,27
 120 94 120 94 162 119 c 0,28,29
 183 132 183 132 207 132 c 0,30,31
 348 132 348 132 393 165 c 128,-1,32
 438 198 438 198 438 285 c 0,33,34
 438 397 438 397 412 566 c 0,35,36
 384 753 384 753 384 875 c 0,37,38
 384 1084 384 1084 400 1193 c 0,39,40
 403 1213 403 1213 406 1234 c 1,41,42
 295 1240 295 1240 186 1256 c 0,43,44
 140 1263 140 1263 121 1307 c 0,45,46
 111 1332 111 1332 114 1357 c 0,0,1
EndSplineSet
PairPos2: "'kern' Horizontal Kerning in Arabic lookup 2 per glyph data 0" uni0622 dx=300 dy=0 dh=300 dv=0 dx=0 dy=0 dh=0 dv=0
EndChar

StartChar: asciicircum
Encoding: 62 94 62
Width: 718
GlyphClass: 2
Flags: W
LayerCount: 2
Fore
SplineSet
154 1126 m 0,0,1
 128 1143 128 1143 131 1176 c 0,2,3
 133 1187 133 1187 138 1196 c 2,4,-1
 304 1464 l 2,5,6
 319 1488 319 1488 355 1484 c 0,7,8
 375 1481 375 1481 385 1469 c 2,9,-1
 577 1228 l 2,10,11
 597 1204 597 1204 582 1174 c 0,12,13
 576 1164 576 1164 569 1158 c 0,14,15
 545 1139 545 1139 515 1153 c 0,16,17
 505 1158 505 1158 499 1166 c 2,18,-1
 350 1352 l 1,19,-1
 222 1142 l 2,20,21
 205 1115 205 1115 172 1120 c 0,22,23
 162 1121 162 1121 154 1126 c 0,0,1
EndSplineSet
EndChar

StartChar: underscore
Encoding: 63 95 63
Width: 600
GlyphClass: 2
Flags: W
LayerCount: 2
Fore
SplineSet
688 45 m 0,0,1
 688 -4 688 -4 645 -30 c 0,2,3
 624 -42 624 -42 600 -42 c 2,4,-1
 0 -42 l 2,5,6
 -49 -42 -49 -42 -75 0 c 0,7,8
 -88 21 -88 21 -88 45 c 0,9,10
 -88 94 -88 94 -45 120 c 0,11,12
 -24 132 -24 132 0 132 c 2,13,-1
 600 132 l 2,14,15
 649 132 649 132 675 90 c 0,16,17
 688 69 688 69 688 45 c 0,0,1
EndSplineSet
EndChar

StartChar: grave
Encoding: 64 96 64
Width: 539
GlyphClass: 2
Flags: W
LayerCount: 2
Fore
SplineSet
150 1522 m 0,0,1
 174 1541 174 1541 204 1526 c 0,2,3
 214 1521 214 1521 220 1513 c 0,4,5
 311 1397 311 1397 403 1195 c 0,6,7
 404 1192 404 1192 405 1190 c 0,8,9
 418 1162 418 1162 397 1136 c 0,10,11
 389 1127 389 1127 380 1123 c 0,12,13
 351 1110 351 1110 326 1132 c 0,14,15
 318 1140 318 1140 314 1148 c 0,16,17
 236 1318 236 1318 155 1431 c 0,18,19
 147 1442 147 1442 140 1451 c 0,20,21
 120 1477 120 1477 138 1507 c 0,22,23
 143 1516 143 1516 150 1522 c 0,0,1
EndSplineSet
EndChar

StartChar: a
Encoding: 65 97 65
Width: 1269
GlyphClass: 2
Flags: W
LayerCount: 2
Fore
SplineSet
521 102 m 0,0,1
 762 102 762 102 841 420 c 0,2,3
 851.572684569 462.290738277 851.572684569 462.290738277 858.838219464 509.211486098 c 2,4,-1
 910.323958663 883.913254713 l 1,5,6
 884.813173809 853.242620635 884.813173809 853.242620635 840 855 c 0,7,8
 815 856 815 856 795 869 c 0,9,10
 727 914 727 914 650 914 c 0,11,12
 496 914 496 914 380 778 c 0,13,14
 279 659 279 659 254 496 c 0,15,16
 248 457 248 457 248 419 c 0,17,18
 248 241 248 241 351 157 c 0,19,20
 419 102 419 102 521 102 c 0,0,1
923.588305537 980.448223628 m 1,21,-1
 926 998 l 2,22,23
 932 1044 932 1044 976 1065 c 0,24,25
 994.461538462 1072.69230769 994.461538462 1072.69230769 1012.92307692 1072.69230769 c 0,26,27
 1018.46153846 1072.69230769 1018.46153846 1072.69230769 1024 1072 c 0,28,29
 1070 1066 1070 1066 1091 1023 c 0,30,31
 1100.6 1003.8 1100.6 1003.8 1100.6 983.96 c 0,32,33
 1100.6 979 1100.6 979 1100 974 c 2,34,-1
 1036 507 l 2,35,36
 1033.77331262 490.967850843 1033.77331262 490.967850843 1031.22124751 475.354044469 c 2,37,-1
 1028 452 l 2,38,39
 1016 361 1016 361 1016 293 c 0,40,41
 1016 182 1016 182 1052 151 c 0,42,43
 1075 132 1075 132 1113 132 c 0,44,45
 1158 132 1158 132 1183 92 c 0,46,47
 1197 69 1197 69 1197 45 c 0,48,49
 1197 -4 1197 -4 1154 -30 c 0,50,51
 1133 -42 1133 -42 1109 -42 c 0,52,53
 947.91079818 -42 947.91079818 -42 880.677099703 100.098986371 c 1,54,55
 866.433309402 82.2848023345 866.433309402 82.2848023345 851 66 c 0,56,57
 720 -72 720 -72 521 -72 c 0,58,59
 308 -72 308 -72 182 84 c 0,60,61
 78 214 78 214 72 400 c 0,62,63
 72 410 72 410 72 419 c 0,64,65
 72 603 72 603 166 776 c 0,66,67
 271 969 271 969 445 1046 c 0,68,69
 542 1088 542 1088 650 1088 c 0,70,71
 786 1088 786 1088 893 1015 c 0,72,73
 914.184342697 1001.23017725 914.184342697 1001.23017725 923.588305537 980.448223628 c 1,21,-1
EndSplineSet
EndChar

StartChar: b
Encoding: 66 98 66
Width: 1163
GlyphClass: 2
Flags: W
LayerCount: 2
Fore
SplineSet
245 1448 m 0,0,1
 294 1446 294 1446 318 1404 c 0,2,3
 330 1382 330 1382 329 1358 c 2,4,-1
 317.033293609 983.043199735 l 1,5,6
 368.626961222 1024.6972691 368.626961222 1024.6972691 430 1051 c 0,7,8
 519 1088 519 1088 618 1088 c 0,9,10
 863 1088 863 1088 991 881 c 1,11,12
 1088 716 1088 716 1090 495 c 0,13,14
 1090 291 1090 291 962 135 c 0,15,16
 837 -17 837 -17 643 -59 c 0,17,18
 580 -72 580 -72 515 -72 c 0,19,20
 427 -72 427 -72 352 -52 c 0,21,22
 308 -40 308 -40 292 4 c 0,23,24
 284 30 284 30 290 55 c 0,25,26
 302 99 302 99 345 115 c 0,27,28
 371 124 371 124 396 118 c 0,29,30
 457 102 457 102 515 102 c 0,31,32
 683 102 683 102 798 213 c 0,33,34
 906 319 906 319 915 471 c 0,35,36
 916 483 916 483 916 495 c 0,37,38
 916 724 916 724 809 836 c 0,39,40
 733 914 733 914 618 914 c 0,41,42
 413 912 413 912 312 690 c 0,43,44
 309.857267811 685.285989185 309.857267811 685.285989185 307.393144537 680.985195481 c 2,45,-1
 287 42 l 2,46,47
 285 -7 285 -7 243 -31 c 0,48,49
 221 -43 221 -43 197 -42 c 0,50,51
 148 -40 148 -40 124 2 c 0,52,53
 112 24 112 24 113 48 c 2,54,-1
 155 1364 l 2,55,56
 157 1413 157 1413 199 1437 c 0,57,58
 221 1449 221 1449 245 1448 c 0,0,1
EndSplineSet
EndChar

StartChar: c
Encoding: 67 99 67
Width: 1031
GlyphClass: 2
Flags: W
LayerCount: 2
Fore
SplineSet
921 850 m 0,0,1
 889 813 889 813 839 822 c 0,2,3
 815 826 815 826 798 841 c 0,4,5
 713 914 713 914 611 914 c 0,6,7
 482 914 482 914 377 784 c 0,8,9
 279 662 279 662 254 495 c 0,10,11
 248 452 248 452 248 411 c 0,12,13
 248 151 248 151 449 109 c 0,14,15
 486 102 486 102 528 102 c 0,16,17
 680 102 680 102 818 183 c 0,18,19
 823 186 823 186 826 188 c 0,20,21
 868 213 868 213 913 189 c 0,22,23
 934 177 934 177 946 158 c 0,24,25
 971 115 971 115 946 70 c 0,26,27
 934 49 934 49 916 38 c 0,28,29
 733 -72 733 -72 528 -72 c 0,30,31
 279 -72 279 -72 157 111 c 0,32,33
 72 238 72 238 72 411 c 0,34,35
 72 593 72 593 158 768 c 0,36,37
 258 969 258 969 423 1047 c 0,38,39
 512 1088 512 1088 611 1088 c 0,40,41
 779 1087 779 1087 912 973 c 0,42,43
 949 941 949 941 940 891 c 0,44,45
 936 867 936 867 921 850 c 0,0,1
EndSplineSet
EndChar

StartChar: d
Encoding: 68 100 68
Width: 1197
GlyphClass: 2
Flags: W
LayerCount: 2
Fore
SplineSet
972 1448 m 0,0,1
 1020 1447 1020 1447 1045 1405 c 0,2,3
 1057 1383 1057 1383 1057 1359 c 2,4,-1
 1038 510 l 1,5,6
 1038 211 1038 211 1063 139 c 0,7,8
 1072 116 1072 116 1085 100 c 0,9,10
 1116 63 1116 63 1098 14 c 0,11,12
 1089 -8 1089 -8 1072 -23 c 0,13,14
 1034 -54 1034 -54 986 -36 c 0,15,16
 964 -27 964 -27 949 -10 c 0,17,18
 915.292718353 30.890800687 915.292718353 30.890800687 895.631208933 88.575459472 c 1,19,20
 869.598559403 60.4800115363 869.598559403 60.4800115363 840 36 c 0,21,22
 707 -72 707 -72 537 -72 c 0,23,24
 321 -72 321 -72 192 87 c 0,25,26
 76 232 76 232 72 452 c 0,27,28
 72 459 72 459 72 465 c 0,29,30
 72 658 72 658 162 824 c 0,31,32
 264 1012 264 1012 437 1066 c 0,33,34
 499 1086 499 1086 567 1086 c 0,35,36
 736.72950823 1086 736.72950823 1086 873.90853516 955.798074801 c 1,37,-1
 883 1363 l 2,38,39
 884 1411 884 1411 926 1436 c 0,40,41
 948 1448 948 1448 972 1448 c 0,0,1
870.214561706 790.34694798 m 1,42,43
 841.995274191 776.899502305 841.995274191 776.899502305 808 788 c 0,44,45
 786 796 786 796 771 812 c 0,46,47
 677 912 677 912 567 912 c 0,48,49
 443 912 443 912 351 793 c 0,50,51
 260 673 260 673 249 501 c 0,52,53
 248 483 248 483 248 465 c 0,54,55
 248 239 248 239 375 150 c 0,56,57
 443 102 443 102 537 102 c 0,58,59
 700 102 700 102 803 253 c 0,60,61
 840.370646369 309.535080404 840.370646369 309.535080404 864.886648688 378.924804418 c 1,62,63
 864.000000433 437.92589204 864.000000433 437.92589204 864 512 c 2,64,-1
 870.214561706 790.34694798 l 1,42,43
EndSplineSet
EndChar

StartChar: e
Encoding: 69 101 69
Width: 1131
GlyphClass: 2
Flags: W
LayerCount: 2
Fore
SplineSet
703 914 m 0,0,1
 555 914 555 914 441 795 c 0,2,3
 330 679 330 679 307 513 c 0,4,5
 304.402577757 493.779075405 304.402577757 493.779075405 303.154475976 474.828014901 c 1,6,7
 524.496731572 517.514741926 524.496731572 517.514741926 724 635 c 0,8,9
 851 712 851 712 852 800 c 0,10,11
 852 869 852 869 782 899 c 0,12,13
 746 914 746 914 703 914 c 0,0,1
128.082420393 451.202963697 m 1,14,15
 131.024675784 650.741383661 131.024675784 650.741383661 239 820 c 0,16,17
 352 998 352 998 533 1060 c 0,18,19
 615 1088 615 1088 703 1088 c 0,20,21
 827 1088 827 1088 920 1017 c 0,22,23
 1025 936 1025 936 1026 805 c 0,24,25
 1026 647 1026 647 871 525 c 0,26,27
 842 503 842 503 812 485 c 0,28,29
 578.965929051 347.019300096 578.965929051 347.019300096 317.726415811 300.118674255 c 1,30,31
 348.922257123 180.209189397 348.922257123 180.209189397 442 135 c 0,32,33
 511 102 511 102 620 102 c 0,34,35
 819 103 819 103 922 196 c 0,36,37
 960 230 960 230 1009 214 c 0,38,39
 1031 206 1031 206 1046 190 c 0,40,41
 1080 152 1080 152 1064 103 c 0,42,43
 1056 81 1056 81 1040 66 c 0,44,45
 886 -72 886 -72 620 -72 c 0,46,47
 394 -72 394 -72 262 62 c 0,48,49
 176.180105501 149.100788447 176.180105501 149.100788447 145.323302754 279.679843492 c 1,50,51
 103.767013933 280.682255646 103.767013933 280.682255646 78 318 c 0,52,53
 65 338 65 338 63 361 c 0,54,55
 59 410 59 410 101 439 c 0,56,57
 113.915656966 447.395177028 113.915656966 447.395177028 128.082420393 451.202963697 c 1,14,15
EndSplineSet
EndChar

StartChar: f
Encoding: 70 102 70
Width: 773
GlyphClass: 2
Flags: W
LayerCount: 2
Fore
SplineSet
73 822 m 0,0,1
 69 871 69 871 110 900 c 0,2,3
 130 914 130 914 154 916 c 0,4,5
 205.232786109 919.574380426 205.232786109 919.574380426 251.497051773 921.019394947 c 1,6,7
 260.89743101 1149.87174111 260.89743101 1149.87174111 276 1316 c 0,8,9
 296 1547 296 1547 390 1642 c 0,10,11
 445 1696 445 1696 519 1696 c 0,12,13
 602 1695 602 1695 677 1612 c 0,14,15
 711 1573 711 1573 694 1525 c 0,16,17
 686 1504 686 1504 670 1489 c 0,18,19
 630 1455 630 1455 584 1474 c 1,20,21
 556 1501 556 1501 530 1502 c 0,22,23
 498 1502 498 1502 472 1418 c 0,24,25
 455 1363 455 1363 450 1301 c 0,26,27
 435.845902231 1140.33186317 435.845902231 1140.33186317 426.813679501 918.786583021 c 1,28,29
 517.547432393 913.983246319 517.547432393 913.983246319 623 902 c 0,30,31
 670 896 670 896 691 854 c 0,32,33
 703 831 703 831 700 806 c 0,34,35
 694 759 694 759 651 738 c 0,36,37
 627 727 627 727 603 730 c 0,38,39
 517.093840607 740.334575566 517.093840607 740.334575566 420.757656593 743.993935374 c 1,40,41
 411.947892227 441.218950689 411.947892227 441.218950689 411 45 c 0,42,43
 411 20 411 20 411 -4 c 0,44,45
 411 -53 411 -53 368 -79 c 0,46,47
 347 -91 347 -91 323 -91 c 0,48,49
 274 -91 274 -91 249 -49 c 0,50,51
 236 -28 236 -28 236 -4 c 0,52,53
 236 422.354419093 236 422.354419093 245.389364188 745.425832117 c 1,54,55
 196.435402732 744.484522672 196.435402732 744.484522672 166 742 c 0,56,57
 116 738 116 738 88 779 c 0,58,59
 75 799 75 799 73 822 c 0,0,1
EndSplineSet
EndChar

StartChar: g
Encoding: 71 103 71
Width: 1177
GlyphClass: 2
Flags: W
LayerCount: 2
Fore
SplineSet
970 1058 m 0,0,1
 1019 1060 1019 1060 1047 1019 c 0,2,3
 1060 998 1060 998 1061 975 c 0,4,5
 1064 899 1064 899 1064 764 c 0,6,7
 1064 318 1064 318 1051 151 c 0,8,9
 1032 -82 1032 -82 978 -224 c 0,10,11
 915 -389 915 -389 749 -471 c 0,12,13
 633 -528 633 -528 503 -528 c 0,14,15
 314 -528 314 -528 172 -418 c 0,16,17
 127 -384 127 -384 92 -341 c 0,18,19
 60 -302 60 -302 79 -254 c 0,20,21
 88 -232 88 -232 105 -218 c 0,22,23
 144 -186 144 -186 192 -205 c 0,24,25
 214 -214 214 -214 228 -231 c 0,26,27
 306 -328 306 -328 445 -348 c 0,28,29
 474 -352 474 -352 503 -352 c 0,30,31
 651 -352 651 -352 745 -265 c 0,32,33
 792 -221 792 -221 814 -162 c 0,34,35
 845.439392292 -80.1577724457 845.439392292 -80.1577724457 863.679722452 66.9326465505 c 1,36,37
 724.369646888 -72.0000000642 724.369646888 -72.0000000642 524 -72 c 0,38,39
 340 -72 340 -72 218 49 c 0,40,41
 82 186 82 186 82 420 c 0,42,43
 82 613 82 613 167 787 c 0,44,45
 266 990 266 990 434 1058 c 0,46,47
 509 1088 509 1088 593 1088 c 0,48,49
 722 1087 722 1087 820 1029 c 0,50,51
 860 1004 860 1004 861 955 c 0,52,53
 861 929 861 929 849 908 c 0,54,55
 824 868 824 868 775 867 c 0,56,57
 749 867 749 867 728 879 c 0,58,59
 678 910 678 910 603 914 c 0,60,61
 598 914 598 914 593 914 c 0,62,63
 469 914 469 914 373 788 c 0,64,65
 278 663 278 663 260 487 c 0,66,67
 256 453 256 453 256 420 c 0,68,69
 256 184 256 184 413 122 c 0,70,71
 462 102 462 102 524 102 c 0,72,73
 727 102 727 102 831 325 c 0,74,75
 866 401 866 401 886 495 c 0,76,77
 887.023838119 499.607271537 887.023838119 499.607271537 888.404079191 503.931517062 c 0,78,79
 890.000000176 613.750759389 890.000000176 613.750759389 890 764 c 0,80,81
 890 901 890 901 887 967 c 0,82,83
 885 1016 885 1016 926 1044 c 0,84,85
 947 1057 947 1057 970 1058 c 0,0,1
EndSplineSet
EndChar

StartChar: h
Encoding: 72 104 72
Width: 1126
GlyphClass: 2
Flags: W
LayerCount: 2
Fore
SplineSet
303 1473 m 0,0,1
 352 1469 352 1469 375 1426 c 0,2,3
 386 1404 386 1404 384 1380 c 2,4,-1
 351.625049839 917.405351313 l 1,5,6
 362.703482045 932.497130883 362.703482045 932.497130883 374 946 c 0,7,8
 495 1087 495 1087 654 1088 c 0,9,10
 898 1088 898 1088 973 843 c 0,11,12
 1002 748 1002 748 1002 626 c 0,13,14
 1002 529 1002 529 988 414 c 0,15,16
 974 303 974 303 974 227 c 0,17,18
 974 109 974 109 1006 36 c 0,19,20
 1027 -11 1027 -11 996 -52 c 0,21,22
 982 -71 982 -71 962 -80 c 0,23,24
 915 -101 915 -101 874 -70 c 0,25,26
 855 -56 855 -56 846 -36 c 0,27,28
 800 69 800 69 800 227 c 0,29,30
 800 319 800 319 814 436 c 0,31,32
 828 545 828 545 828 626 c 0,33,34
 828 820 828 820 761 878 c 0,35,36
 721 912 721 912 654 912 c 0,37,38
 543 912 543 912 438 714 c 0,39,40
 369.479203364 584.902846918 369.479203364 584.902846918 314.76462265 390.719247349 c 1,41,-1
 287 -6 l 2,42,43
 283 -55 283 -55 240 -78 c 0,44,45
 218 -89 218 -89 194 -87 c 0,46,47
 145 -83 145 -83 122 -40 c 0,48,49
 111 -18 111 -18 113 6 c 2,50,-1
 210 1392 l 2,51,52
 214 1441 214 1441 257 1464 c 0,53,54
 279 1475 279 1475 303 1473 c 0,0,1
EndSplineSet
EndChar

StartChar: k
Encoding: 75 107 75
Width: 1019
GlyphClass: 2
Flags: W
LayerCount: 2
Fore
SplineSet
264 1448 m 0,0,1
 313 1446 313 1446 337 1402 c 0,2,3
 348 1381 348 1381 347 1357 c 2,4,-1
 317.369636977 686.859956298 l 1,5,6
 478.087380455 787.644982315 478.087380455 787.644982315 618 929 c 0,7,8
 666 978 666 978 706 1026 c 0,9,10
 737 1063 737 1063 787 1057 c 0,11,12
 812 1054 812 1054 830 1039 c 0,13,14
 867 1008 867 1008 860 958 c 0,15,16
 856 934 856 934 842 916 c 0,17,18
 665 701 665 701 412 542 c 0,19,20
 390 528 390 528 369 516 c 1,21,22
 573 298 573 298 803 140 c 0,23,24
 856 104 856 104 904 76 c 0,25,26
 945 52 945 52 946 2 c 0,27,28
 946 -23 946 -23 934 -44 c 0,29,30
 910 -86 910 -86 860 -87 c 0,31,32
 835 -88 835 -88 814 -76 c 0,33,34
 559.73729792 73.6238208392 559.73729792 73.6238208392 301.649180357 331.315629083 c 1,35,-1
 287 0 l 2,36,37
 285 -49 285 -49 241 -73 c 0,38,39
 220 -84 220 -84 196 -83 c 0,40,41
 147 -81 147 -81 123 -37 c 0,42,43
 112 -16 112 -16 113 8 c 2,44,-1
 173 1365 l 2,45,46
 175 1414 175 1414 219 1438 c 0,47,48
 240 1449 240 1449 264 1448 c 0,0,1
EndSplineSet
EndChar

StartChar: l
Encoding: 76 108 76
Width: 419
GlyphClass: 2
Flags: W
LayerCount: 2
Fore
SplineSet
223 1437 m 0,0,1
 272 1435 272 1435 296 1391 c 0,2,3
 307 1370 307 1370 306 1346 c 0,4,5
 288 964 288 964 288 0 c 0,6,7
 288 -49 288 -49 245 -75 c 0,8,9
 224 -87 224 -87 200 -87 c 0,10,11
 151 -87 151 -87 126 -45 c 0,12,13
 113 -24 113 -24 113 0 c 0,14,15
 113 942 113 942 132 1354 c 0,16,17
 134 1403 134 1403 178 1427 c 0,18,19
 199 1438 199 1438 223 1437 c 0,0,1
EndSplineSet
EndChar

StartChar: m
Encoding: 77 109 77
Width: 1582
GlyphClass: 2
Flags: W
LayerCount: 2
Fore
SplineSet
200 1074 m 0,0,1
 247 1084 247 1084 282 1048 c 0,2,3
 299 1029 299 1029 304 1006 c 0,4,5
 307.376190139 989.646579012 307.376190139 989.646579012 310.396172152 973.092790962 c 1,6,7
 312.188050401 975.056537919 312.188050401 975.056537919 314 977 c 0,8,9
 419 1087 419 1087 550 1088 c 0,10,11
 758.690203762 1088 758.690203762 1088 840.596857465 903.147648443 c 1,12,13
 935.757739538 1047.10323395 935.757739538 1047.10323395 1071 1080 c 0,14,15
 1107 1088 1107 1088 1142 1088 c 0,16,17
 1344 1088 1344 1088 1423 887 c 0,18,19
 1464 783 1464 783 1464 651 c 0,20,21
 1464 559 1464 559 1457 406 c 0,22,23
 1451 275 1451 275 1451 169 c 0,24,25
 1451 82 1451 82 1468 23 c 0,26,27
 1480 -25 1480 -25 1445 -61 c 0,28,29
 1428 -78 1428 -78 1406 -84 c 0,30,31
 1358 -97 1358 -97 1321 -62 c 0,32,33
 1304 -45 1304 -45 1298 -23 c 0,34,35
 1275 61 1275 61 1275 169 c 0,36,37
 1275 241 1275 241 1283 414 c 0,38,39
 1290 565 1290 565 1290 651 c 0,40,41
 1290 864 1290 864 1188 905 c 0,42,43
 1167 914 1167 914 1142 914 c 0,44,45
 1080 914 1080 914 1012 835 c 0,46,47
 919 726 919 726 898 564 c 0,48,49
 895 541 895 541 894 518 c 0,50,51
 893.947482475 517.14221376 893.947482475 517.14221376 893.882706624 516.292088883 c 0,52,53
 892.25368071 286.842668365 892.25368071 286.842668365 868 -7 c 0,54,55
 864 -55 864 -55 821 -77 c 0,56,57
 798 -89 798 -89 774 -87 c 0,58,59
 726 -83 726 -83 703 -40 c 0,60,61
 692 -17 692 -17 694 7 c 0,62,63
 718.528584619 297.56938703 718.528584619 297.56938703 719.916728337 522.277519187 c 0,64,65
 719.916728337 522.706195623 719.916728337 522.706195623 719.921944023 523.135221901 c 0,66,67
 720.00000004 536.178690668 720.00000004 536.178690668 720 549 c 0,68,69
 720 767 720 767 678 843 c 0,70,71
 638 913 638 913 550 914 c 0,72,73
 498 914 498 914 443 857 c 0,74,75
 356 767 356 767 334 594 c 0,76,77
 333.776996581 592.290307122 333.776996581 592.290307122 333.502881503 590.615149318 c 0,78,79
 331.819111357 557.064832546 331.819111357 557.064832546 329 518 c 2,80,-1
 287 1 l 2,81,82
 283 -47 283 -47 240 -70 c 0,83,84
 217 -81 217 -81 193 -79 c 0,85,86
 145 -75 145 -75 122 -32 c 0,87,88
 111 -9 111 -9 113 15 c 2,89,-1
 155 532 l 2,90,91
 160 595 160 595 160 678 c 0,92,93
 160 855 160 855 134 970 c 0,94,95
 124 1018 124 1018 160 1053 c 0,96,97
 178 1069 178 1069 200 1074 c 0,0,1
EndSplineSet
EndChar

StartChar: n
Encoding: 78 110 78
Width: 1126
GlyphClass: 2
Flags: W
LayerCount: 2
Fore
SplineSet
158 1071 m 0,0,1
 196 1103 196 1103 244 1085 c 0,2,3
 266 1077 266 1077 280 1060 c 0,4,5
 323.609577177 1006.69940567 323.609577177 1006.69940567 335.261690069 881.005371842 c 1,6,7
 365.490481846 925.931806318 365.490481846 925.931806318 398 960 c 0,8,9
 520 1088 520 1088 681 1088 c 0,10,11
 947 1088 947 1088 991 753 c 0,12,13
 1000 687 1000 687 1000 609 c 0,14,15
 1000 513 1000 513 988 414 c 0,16,17
 976 318 976 318 976 221 c 0,18,19
 976 104 976 104 1006 36 c 0,20,21
 1027 -11 1027 -11 996 -52 c 0,22,23
 982 -71 982 -71 962 -80 c 0,24,25
 915 -101 915 -101 874 -70 c 0,26,27
 855 -56 855 -56 846 -36 c 0,28,29
 800 69 800 69 800 221 c 0,30,31
 800 314 800 314 814 436 c 0,32,33
 826 528 826 528 826 609 c 0,34,35
 826 837 826 837 751 891 c 0,36,37
 722 912 722 912 681 912 c 0,38,39
 508 912 508 912 379 568 c 0,40,41
 350.300375061 489.554358499 350.300375061 489.554358499 324.346311663 397.38090914 c 1,42,43
 311.469458587 221.181228146 311.469458587 221.181228146 288 -9 c 0,44,45
 283 -55 283 -55 241 -77 c 0,46,47
 216 -89 216 -89 191 -87 c 0,48,49
 145 -82 145 -82 122 -39 c 0,50,51
 111 -16 111 -16 113 9 c 0,52,53
 136.422154465 239.24419767 136.422154465 239.24419767 149.493416093 409.921936622 c 0,54,55
 149.103691985 420.350846674 149.103691985 420.350846674 151.05625677 430.612450375 c 0,56,57
 165.999999497 631.304730222 165.999999497 631.304730222 166 746 c 0,58,59
 166 922 166 922 138 959 c 0,60,61
 114 994 114 994 134 1039 c 0,62,63
 143 1058 143 1058 158 1071 c 0,0,1
EndSplineSet
EndChar

StartChar: o
Encoding: 79 111 79
Width: 1109
GlyphClass: 2
Flags: W
LayerCount: 2
Fore
SplineSet
567 1088 m 0,0,1
 779 1088 779 1088 910 920 c 0,2,3
 1017 785 1017 785 1033 595 c 0,4,5
 1036 566 1036 566 1036 538 c 0,6,7
 1036 343 1036 343 942 179 c 0,8,9
 838 -2 838 -2 667 -54 c 0,10,11
 606 -72 606 -72 540 -72 c 0,12,13
 342 -72 342 -72 210 85 c 0,14,15
 96 220 96 220 76 416 c 0,16,17
 72 452 72 452 72 486 c 0,18,19
 72 692 72 692 168 854 c 0,20,21
 280 1043 280 1043 476 1080 c 0,22,23
 521 1088 521 1088 567 1088 c 0,0,1
567 914 m 0,24,25
 420 914 420 914 331 785 c 0,26,27
 248 665 248 665 248 486 c 0,28,29
 248 314 248 314 340 202 c 0,30,31
 423 103 423 103 540 102 c 0,32,33
 662 102 662 102 754 214 c 0,34,35
 849 330 849 330 861 499 c 0,36,37
 862 519 862 519 862 538 c 0,38,39
 862 701 862 701 775 810 c 0,40,41
 691 913 691 913 567 914 c 0,24,25
EndSplineSet
EndChar

StartChar: p
Encoding: 80 112 80
Width: 1187
GlyphClass: 2
Flags: W
LayerCount: 2
Fore
SplineSet
189 -520 m 0,0,1
 140 -518 140 -518 116 -474 c 0,2,3
 105 -453 105 -453 106 -429 c 2,4,-1
 138 258 l 2,5,6
 152 486 152 486 152 603 c 0,7,8
 152 832 152 832 102 932 c 0,9,10
 80 978 80 978 108 1021 c 0,11,12
 121 1040 121 1040 141 1050 c 0,13,14
 186 1072 186 1072 229 1044 c 0,15,16
 248 1030 248 1030 258 1010 c 0,17,18
 289.537707336 945.572969299 289.537707336 945.572969299 306.866457724 856.584741638 c 1,19,20
 429.142845267 1033.03571132 429.142845267 1033.03571132 601 1076 c 0,21,22
 649 1088 649 1088 698 1088 c 0,23,24
 866 1088 866 1088 981 961 c 0,25,26
 1107 822 1107 822 1114 592 c 0,27,28
 1114 579 1114 579 1114 568 c 0,29,30
 1114 376 1114 376 1014 216 c 0,31,32
 877 -1 877 -1 609 -56 c 0,33,34
 527 -72 527 -72 436 -72 c 0,35,36
 387 -72 387 -72 361 -30 c 0,37,38
 348 -9 348 -9 348 15 c 0,39,40
 348 64 348 64 391 90 c 0,41,42
 412 102 412 102 436 102 c 0,43,44
 735 102 735 102 864 299 c 0,45,46
 940 416 940 416 940 568 c 0,47,48
 940 782 940 782 825 870 c 0,49,50
 768 914 768 914 698 914 c 0,51,52
 599 914 599 914 505 820 c 0,53,54
 363 677 363 677 326 404 c 0,55,56
 319 348 319 348 316 288 c 0,57,58
 315.575104382 277.590057359 315.575104382 277.590057359 313.254576718 268.308466571 c 0,59,60
 312.64009254 258.281469627 312.64009254 258.281469627 312 248 c 2,61,-1
 280 -437 l 2,62,63
 278 -486 278 -486 234 -510 c 0,64,65
 213 -521 213 -521 189 -520 c 0,0,1
EndSplineSet
EndChar

StartChar: q
Encoding: 81 113 81
Width: 1163
GlyphClass: 2
Flags: W
LayerCount: 2
Fore
SplineSet
970 1064 m 0,0,1
 1018 1060 1018 1060 1041 1017 c 0,2,3
 1052 994 1052 994 1050 970 c 0,4,5
 1016 512 1016 512 1016 87 c 0,6,7
 1016 -130 1016 -130 1028 -421 c 0,8,9
 1030 -470 1030 -470 988 -498 c 0,10,11
 968 -511 968 -511 944 -512 c 0,12,13
 895 -514 895 -514 867 -473 c 0,14,15
 854 -452 854 -452 853 -429 c 0,16,17
 842.430634468 -168.609267358 842.430634468 -168.609267358 842.016858731 67.7773439505 c 1,18,19
 797.500155513 22.557470527 797.500155513 22.557470527 745 -9 c 0,20,21
 638 -74 638 -74 506 -74 c 0,22,23
 256 -74 256 -74 144 145 c 0,24,25
 72 286 72 286 72 484 c 0,26,27
 72 685 72 685 157 847 c 0,28,29
 263 1049 263 1049 458 1082 c 0,30,31
 495 1088 495 1088 532 1088 c 0,32,33
 705 1088 705 1088 820 971 c 0,34,35
 835 956 835 956 848 940 c 0,36,37
 879 901 879 901 861 853 c 0,38,39
 851 830 851 830 834 816 c 0,40,41
 795 784 795 784 747 804 c 0,42,43
 726 813 726 813 712 830 c 0,44,45
 645 913 645 913 532 914 c 0,46,47
 405 914 405 914 325 787 c 0,48,49
 248 664 248 664 248 484 c 0,50,51
 249 103 249 103 506 102 c 0,52,53
 745 104 745 104 846 429 c 0,54,55
 846.575364767 430.947388444 846.575364767 430.947388444 847.215370525 432.834052752 c 0,56,57
 855.316252908 704.161057128 855.316252908 704.161057128 876 984 c 0,58,59
 880 1032 880 1032 923 1055 c 0,60,61
 946 1066 946 1066 970 1064 c 0,0,1
EndSplineSet
EndChar

StartChar: r
Encoding: 82 114 82
Width: 905
GlyphClass: 2
Flags: W
LayerCount: 2
Fore
SplineSet
831 1008 m 0,0,1
 840 960 840 960 803 926 c 0,2,3
 784 910 784 910 762 905 c 0,4,5
 541 862 541 862 439 681 c 0,6,7
 359 538 359 538 324 238 c 0,8,9
 320.528145485 209.593917602 320.528145485 209.593917602 316.956672894 174.712667481 c 0,10,11
 310.732405175 79.6730239223 310.732405175 79.6730239223 301 -9 c 0,12,13
 299.993447578 -18.2602822813 299.993447578 -18.2602822813 297.446910669 -26.5884686471 c 0,14,15
 287.702476316 -59.9730939506 287.702476316 -59.9730939506 254 -78 c 0,16,17
 234.13181538 -87.5021752529 234.13181538 -87.5021752529 213.517421383 -87.3036288794 c 0,18,19
 209.288131608 -87.3430502626 209.288131608 -87.3430502626 205 -87 c 0,20,21
 195.739717719 -85.9934475781 195.739717719 -85.9934475781 187.411531353 -83.4469106694 c 0,22,23
 154.026906049 -73.7024763163 154.026906049 -73.7024763163 136 -40 c 0,24,25
 126.497824747 -20.1318153803 126.497824747 -20.1318153803 126.696371121 0.482578616802 c 0,26,27
 126.656949737 4.71186839161 126.656949737 4.71186839161 127 9 c 0,28,29
 127.520137666 14.2013766611 127.520137666 14.2013766611 128.030255235 19.3964443572 c 0,30,31
 132.587211925 73.8505691999 132.587211925 73.8505691999 137.266299748 123.114154181 c 0,32,33
 153.999999236 332.825093627 153.999999236 332.825093627 154 532 c 0,34,35
 154 812 154 812 117 942 c 0,36,37
 116 945 116 945 116 946 c 0,38,39
 101 994 101 994 137 1031 c 0,40,41
 154 1048 154 1048 176 1055 c 0,42,43
 225 1070 225 1070 262 1033 c 0,44,45
 277 1017 277 1017 284 996 c 0,46,47
 305.137951653 923.938801184 305.137951653 923.938801184 316.121062395 814.02774079 c 1,48,49
 364.321170574 887.078273534 364.321170574 887.078273534 426 939 c 0,50,51
 548 1042 548 1042 728 1077 c 0,52,53
 776 1086 776 1086 810 1049 c 0,54,55
 826 1030 826 1030 831 1008 c 0,0,1
EndSplineSet
EndChar

StartChar: s
Encoding: 83 115 83
Width: 980
GlyphClass: 2
Flags: W
LayerCount: 2
Fore
SplineSet
834 732 m 0,0,1
 785 717 785 717 747 752 c 0,2,3
 731 768 731 768 724 789 c 0,4,5
 696 875 696 875 594 903 c 0,6,7
 554 914 554 914 507 914 c 0,8,9
 408 914 408 914 341 852 c 0,10,11
 296 808 296 808 295 760 c 0,12,13
 297 673 297 673 401 624 c 0,14,15
 452 601 452 601 547 577 c 0,16,17
 745 527 745 527 830 439 c 0,18,19
 908 357 908 357 908 239 c 0,20,21
 908 82 908 82 755 -5 c 0,22,23
 637 -72 637 -72 488 -72 c 0,24,25
 308 -72 308 -72 180 8 c 0,26,27
 122 45 122 45 88 92 c 0,28,29
 60 135 60 135 83 180 c 0,30,31
 94 202 94 202 112 214 c 0,32,33
 161 244 161 244 232 190 c 1,34,35
 278 139 278 139 385 114 c 0,36,37
 437 102 437 102 488 102 c 0,38,39
 637 102 637 102 702 168 c 0,40,41
 732 199 732 199 732 237 c 0,42,43
 732 332 732 332 589 383 c 0,44,45
 552 396 552 396 505 407 c 0,46,47
 341 446 341 446 258 502 c 0,48,49
 121 596 121 596 120 760 c 0,50,51
 120 894 120 894 234 990 c 0,52,53
 338 1079 338 1079 478 1089 c 0,54,55
 493 1090 493 1090 507 1090 c 0,56,57
 669 1090 669 1090 783 998 c 0,58,59
 862 933 862 933 892 841 c 0,60,61
 907 792 907 792 871 755 c 0,62,63
 855 739 855 739 834 732 c 0,0,1
EndSplineSet
EndChar

StartChar: t
Encoding: 84 116 84
Width: 775
GlyphClass: 2
Flags: W
LayerCount: 2
Fore
SplineSet
412 1302 m 0,0,1
 459 1296 459 1296 480 1253 c 0,2,3
 491 1230 491 1230 488 1206 c 0,4,5
 470.570640437 1055.74690032 470.570640437 1055.74690032 458.378911474 918.949093043 c 1,6,7
 549.041830141 916.164286585 549.041830141 916.164286585 626 906 c 0,8,9
 673 900 673 900 694 857 c 0,10,11
 705 833 705 833 702 809 c 0,12,13
 696 763 696 763 653 742 c 0,14,15
 629 731 629 731 604 734 c 0,16,17
 527.677302866 742.979140839 527.677302866 742.979140839 444.635858214 745.239534161 c 1,18,19
 430 531.320259548 430 531.320259548 430 355 c 0,20,21
 430 194 430 194 465 141 c 0,22,23
 491 103 491 103 538 102 c 0,24,25
 564 102 564 102 596 108 c 0,26,27
 643 117 643 117 677 80 c 0,28,29
 693 61 693 61 698 38 c 0,30,31
 707 -9 707 -9 670 -43 c 0,32,33
 651 -59 651 -59 628 -64 c 0,34,35
 585 -72 585 -72 538 -72 c 0,36,37
 256 -71 256 -71 256 355 c 0,38,39
 256 528.513877871 256 528.513877871 270.579222211 742.606590896 c 1,40,41
 219.631905678 739.618706303 219.631905678 739.618706303 170 734 c 0,42,43
 121 728 121 728 91 768 c 0,44,45
 77 787 77 787 74 810 c 0,46,47
 68 859 68 859 108 889 c 0,48,49
 127 903 127 903 150 906 c 0,50,51
 214.464039796 914.130599614 214.464039796 914.130599614 284.324540824 917.539295651 c 1,52,53
 297.224658269 1063.59329403 297.224658269 1063.59329403 316 1226 c 0,54,55
 322 1273 322 1273 365 1294 c 0,56,57
 388 1305 388 1305 412 1302 c 0,0,1
EndSplineSet
EndChar

StartChar: u
Encoding: 85 117 85
Width: 1103
GlyphClass: 2
Flags: W
LayerCount: 2
Fore
SplineSet
868 1058 m 0,0,1
 917 1055 917 1055 940 1012 c 0,2,3
 951 990 951 990 950 966 c 0,4,5
 942 821 942 821 942 639 c 0,6,7
 942 368 942 368 963 209 c 0,8,9
 973 137 973 137 988 62 c 0,10,11
 998 15 998 15 960 -19 c 0,12,13
 942 -35 942 -35 920 -40 c 0,14,15
 873 -50 873 -50 839 -12 c 0,16,17
 823 6 823 6 818 28 c 0,18,19
 809.00652903 71.8661135055 809.00652903 71.8661135055 801.562660694 117.248142632 c 1,20,21
 783.721813117 88.6040597919 783.721813117 88.6040597919 764 65 c 0,22,23
 648 -72 648 -72 454 -72 c 0,24,25
 221 -72 221 -72 144 164 c 0,26,27
 112 264 112 264 112 392 c 0,28,29
 112 720 112 720 155 955 c 0,30,31
 159 974 159 974 162 990 c 0,32,33
 171 1034 171 1034 215 1051 c 0,34,35
 242 1061 242 1061 267 1056 c 0,36,37
 311 1046 311 1046 329 1002 c 0,38,39
 339 977 339 977 334 952 c 0,40,41
 299 796 299 796 290 509 c 0,42,43
 288 449 288 449 288 392 c 0,44,45
 288 176 288 176 372 123 c 0,46,47
 406 102 406 102 454 102 c 0,48,49
 585 102 585 102 654 206 c 0,50,51
 726.16924933 315.229134121 726.16924933 315.229134121 766 588.053026167 c 1,52,-1
 766 639 l 2,53,54
 766 793 766 793 776 976 c 0,55,56
 779 1025 779 1025 822 1048 c 0,57,58
 844 1059 844 1059 868 1058 c 0,0,1
EndSplineSet
EndChar

StartChar: v
Encoding: 86 118 86
Width: 1084
GlyphClass: 2
Flags: W
LayerCount: 2
Fore
SplineSet
123 1050 m 0,0,1
 170 1071 170 1071 212 1042 c 0,2,3
 230 1028 230 1028 240 1008 c 0,4,5
 434 594 434 594 512 335 c 0,6,7
 522 303 522 303 530 273 c 1,8,9
 739 647 739 647 840 996 c 0,10,11
 854 1041 854 1041 898 1055 c 0,12,13
 923 1062 923 1062 948 1055 c 0,14,15
 993 1041 993 1041 1007 997 c 0,16,17
 1015 971 1015 971 1008 946 c 0,18,19
 871 476 871 476 576 -1 c 0,20,21
 557 -31 557 -31 526 -40 c 0,22,23
 479 -54 479 -54 441 -18 c 0,24,25
 422 2 422 2 416 28 c 0,26,27
 355 341 355 341 125 837 c 0,28,29
 105 881 105 881 80 934 c 0,30,31
 59 981 59 981 89 1022 c 0,32,33
 103 1041 103 1041 123 1050 c 0,0,1
EndSplineSet
EndChar

StartChar: w
Encoding: 87 119 87
Width: 1501
GlyphClass: 2
Flags: W
LayerCount: 2
Fore
SplineSet
345 1030 m 0,0,1
 388 1005 388 1005 389 956 c 0,2,3
 389 931 389 931 378 911 c 0,4,5
 329 824 329 824 286 647 c 0,6,7
 248 491 248 491 248 374 c 0,8,9
 249 103 249 103 418 102 c 0,10,11
 525 102 525 102 603 265 c 0,12,13
 681 429 681 429 697 681 c 0,14,15
 701 737 701 737 744 760 c 0,16,17
 764 769 764 769 786 768 c 0,18,19
 834 764 834 764 857 720 c 0,20,21
 866 702 866 702 866 682 c 0,22,23
 868 339 868 339 912 215 c 0,24,25
 954 103 954 103 1038 102 c 0,26,27
 1148 102 1148 102 1207 237 c 0,28,29
 1254 346 1254 346 1254 513 c 0,30,31
 1254 696 1254 696 1197 854 c 0,32,33
 1185 887 1185 887 1172 912 c 0,34,35
 1150 957 1150 957 1178 1000 c 0,36,37
 1192 1020 1192 1020 1212 1030 c 0,38,39
 1257 1052 1257 1052 1300 1024 c 0,40,41
 1320 1010 1320 1010 1330 990 c 0,42,43
 1415 818 1415 818 1427 572 c 0,44,45
 1428 542 1428 542 1428 513 c 0,46,47
 1428 257 1428 257 1334 99 c 0,48,49
 1231 -71 1231 -71 1038 -72 c 0,50,51
 847 -72 847 -72 767 199 c 0,52,53
 759 226 759 226 752 255 c 1,54,55
 671 45 671 45 542 -33 c 0,56,57
 477 -72 477 -72 406 -72 c 0,58,59
 200 -72 200 -72 116 129 c 0,60,61
 72 236 72 236 72 374 c 0,62,63
 72 598 72 598 160 845 c 0,64,65
 192 937 192 937 226 997 c 0,66,67
 251 1040 251 1040 300 1041 c 0,68,69
 325 1041 325 1041 345 1030 c 0,0,1
EndSplineSet
EndChar

StartChar: x
Encoding: 88 120 88
Width: 1137
GlyphClass: 2
Flags: W
LayerCount: 2
Fore
SplineSet
196 1036 m 0,0,1
 241 1058 241 1058 284 1030 c 0,2,3
 304 1016 304 1016 314 996 c 0,4,5
 400.628306585 820.591130767 400.628306585 820.591130767 552.107499492 617.389024538 c 1,6,-1
 887 1026 l 2,7,8
 918 1063 918 1063 968 1057 c 0,9,10
 992 1053 992 1053 1010 1039 c 0,11,12
 1047 1008 1047 1008 1041 958 c 0,13,14
 1037 934 1037 934 1023 916 c 2,15,-1
 662.865967746 475.685183206 l 1,16,17
 752.739921765 365.568189649 752.739921765 365.568189649 860 248 c 0,18,19
 948 152 948 152 1038 62 c 0,20,21
 1074 26 1074 26 1060 -24 c 0,22,23
 1053 -46 1053 -46 1038 -62 c 0,24,25
 1001 -99 1001 -99 952 -84 c 0,26,27
 931 -77 931 -77 916 -62 c 0,28,29
 710.039049997 143.960950003 710.039049997 143.960950003 549.600689828 337.202352846 c 1,30,-1
 228 -56 l 2,31,32
 197 -93 197 -93 147 -86 c 0,33,34
 122 -83 122 -83 104 -68 c 0,35,36
 67 -37 67 -37 74 13 c 0,37,38
 77 38 77 38 92 56 c 2,39,-1
 437.654817998 477.742356551 l 1,40,41
 330.064832085 618.937192413 330.064832085 618.937192413 248 753 c 0,42,43
 195 839 195 839 156 918 c 0,44,45
 134 963 134 963 162 1006 c 0,46,47
 176 1026 176 1026 196 1036 c 0,0,1
EndSplineSet
EndChar

StartChar: y
Encoding: 89 121 89
Width: 1127
GlyphClass: 2
Flags: W
LayerCount: 2
Fore
SplineSet
918 1051 m 0,0,1
 967 1053 967 1053 995 1011 c 0,2,3
 1008 991 1008 991 1009 967 c 0,4,5
 1014 837 1014 837 1014 546 c 0,6,7
 1014 241 1014 241 999 101 c 0,8,9
 956 -297 956 -297 758 -437 c 0,10,11
 639 -522 639 -522 462 -522 c 0,12,13
 248 -522 248 -522 124 -389 c 0,14,15
 104 -368 104 -368 88 -344 c 0,16,17
 60 -301 60 -301 81 -256 c 0,18,19
 92 -234 92 -234 110 -222 c 0,20,21
 153 -194 153 -194 198 -215 c 0,22,23
 220 -226 220 -226 232 -244 c 0,24,25
 305 -346 305 -346 462 -346 c 0,26,27
 677 -346 677 -346 763 -148 c 0,28,29
 793.422210845 -78.9824470389 793.422210845 -78.9824470389 811.68021054 28.3832970023 c 1,30,31
 788.446028786 9.03870905292 788.446028786 9.03870905292 763 -7 c 0,32,33
 658 -72 658 -72 526 -72 c 0,34,35
 174 -72 174 -72 126 394 c 0,36,37
 118 478 118 478 118 589 c 0,38,39
 118 785 118 785 139 980 c 0,40,41
 144 1026 144 1026 186 1048 c 0,42,43
 210 1061 210 1061 236 1058 c 0,44,45
 282 1053 282 1053 304 1010 c 0,46,47
 315 987 315 987 313 962 c 0,48,49
 292 779 292 779 292 589 c 0,50,51
 292 299 292 299 359 191 c 0,52,53
 416 103 416 103 526 102 c 0,54,55
 724 102 724 102 810 324 c 0,56,57
 822 354 822 354 832 388 c 0,58,59
 834.931054949 397.421248051 834.931054949 397.421248051 839.177072101 405.483702337 c 1,60,61
 839.999999498 467.101113509 839.999999498 467.101113509 840 546 c 0,62,63
 840 816 840 816 834 960 c 0,64,65
 832 1009 832 1009 874 1037 c 0,66,67
 894 1050 894 1050 918 1051 c 0,0,1
EndSplineSet
EndChar

StartChar: z
Encoding: 90 122 90
Width: 1054
GlyphClass: 2
Flags: W
LayerCount: 2
Fore
SplineSet
74 868 m 0,0,1
 66 917 66 917 105 949 c 0,2,3
 124 964 124 964 146 968 c 0,4,5
 360 1002 360 1002 538 1002 c 0,6,7
 758 1002 758 1002 890 921 c 0,8,9
 893 920 893 920 894 919 c 0,10,11
 936 893 936 893 934 841 c 0,12,13
 931 802 931 802 903 778 c 0,14,15
 773 669 773 669 578 433 c 0,16,17
 425 248 425 248 331 100 c 1,18,19
 584 116 584 116 894 116 c 0,20,21
 943 116 943 116 969 74 c 0,22,23
 982 53 982 53 982 29 c 0,24,25
 982 -20 982 -20 939 -46 c 0,26,27
 918 -58 918 -58 894 -58 c 0,28,29
 528 -58 528 -58 207 -82 c 0,30,31
 189 -84 189 -84 174 -85 c 0,32,33
 119 -89 119 -89 91 -43 c 0,34,35
 66 0 66 0 88 42 c 0,36,37
 204 263 204 263 458 563 c 0,38,39
 574 700 574 700 675 799 c 1,40,41
 559 825 559 825 435 821 c 0,42,43
 301 817 301 817 174 796 c 0,44,45
 125 788 125 788 93 827 c 0,46,47
 78 846 78 846 74 868 c 0,0,1
EndSplineSet
EndChar

StartChar: braceleft
Encoding: 91 123 91
Width: 695
GlyphClass: 2
Flags: W
LayerCount: 2
Fore
SplineSet
582 93 m 0,0,1
 582 44 582 44 540 19 c 0,2,3
 519 6 519 6 495 6 c 0,4,5
 402 6 402 6 342 42.5 c 128,-1,6
 282 79 282 79 256.5 137 c 128,-1,7
 231 195 231 195 220 265 c 128,-1,8
 209 335 209 335 206.5 405 c 128,-1,9
 204 475 204 475 198 533 c 128,-1,10
 192 591 192 591 168.5 627.5 c 128,-1,11
 145 664 145 664 100 664 c 0,12,13
 71.7803846712 664 71.7803846712 664 51.1892465831 678.261935711 c 0,14,15
 36.2663908919 688.474503056 36.2663908919 688.474503056 25 706 c 0,16,17
 12 728 12 728 12 752 c 0,18,19
 12 800 12 800 54 827 c 0,20,21
 76 840 76 840 100 840 c 0,22,23
 171 840 171 840 193 929 c 0,24,25
 203 971 203 971 210 1113 c 0,26,27
 218 1282 218 1282 254 1360 c 0,28,29
 318 1497 318 1497 495 1498 c 0,30,31
 544 1498 544 1498 570 1456 c 0,32,33
 583 1435 583 1435 583 1411 c 0,34,35
 583 1362 583 1362 540 1336 c 0,36,37
 519 1324 519 1324 495 1324 c 0,38,39
 412 1324 412 1324 387 1230 c 0,40,41
 376 1184 376 1184 371 1040 c 0,42,43
 365 876 365 876 334 802 c 0,44,45
 321.839861879 773.276915127 321.839861879 773.276915127 304.492881554 750.531885675 c 1,46,47
 328.11168978 714.204921092 328.11168978 714.204921092 341.5 668.5 c 0,48,49
 356 619 356 619 360 564.5 c 128,-1,50
 364 510 364 510 365.5 455.5 c 128,-1,51
 367 401 367 401 371 351.5 c 128,-1,52
 375 302 375 302 386 263.5 c 128,-1,53
 397 225 397 225 424 202.5 c 128,-1,54
 451 180 451 180 495 180 c 0,55,56
 544 180 544 180 569 138 c 0,57,58
 582 117 582 117 582 93 c 0,0,1
EndSplineSet
EndChar

StartChar: bar
Encoding: 92 124 92
Width: 417
GlyphClass: 2
Flags: W
LayerCount: 2
Fore
SplineSet
217 1546 m 0,0,1
 266 1546 266 1546 291 1504 c 0,2,3
 304 1483 304 1483 304 1459 c 0,4,5
 304 839 304 839 288 -2 c 0,6,7
 287 -51 287 -51 244 -75 c 0,8,9
 222 -88 222 -88 198 -87 c 0,10,11
 150 -86 150 -86 125 -44 c 0,12,13
 113 -22 113 -22 113 2 c 0,14,15
 130 891 130 891 130 1459 c 0,16,17
 130 1508 130 1508 172 1533 c 0,18,19
 193 1546 193 1546 217 1546 c 0,0,1
EndSplineSet
EndChar

StartChar: braceright
Encoding: 93 125 93
Width: 695
GlyphClass: 2
Flags: W
LayerCount: 2
Fore
SplineSet
112 1411 m 0,0,1
 112 1460 112 1460 155 1486 c 0,2,3
 176 1498 176 1498 200 1498 c 0,4,5
 293 1498 293 1498 353 1461.5 c 128,-1,6
 413 1425 413 1425 438.5 1367 c 128,-1,7
 464 1309 464 1309 475 1239 c 128,-1,8
 486 1169 486 1169 488.5 1099 c 128,-1,9
 491 1029 491 1029 497 971 c 128,-1,10
 503 913 503 913 526.5 876.5 c 128,-1,11
 550 840 550 840 595 840 c 0,12,13
 644 840 644 840 670 797 c 0,14,15
 682 776 682 776 682 752 c 0,16,17
 682 703 682 703 640 677 c 0,18,19
 619 664 619 664 595 664 c 0,20,21
 524 664 524 664 502 575 c 0,22,23
 492 533 492 533 485 391 c 0,24,25
 477 222 477 222 441 144 c 0,26,27
 377 7 377 7 200 6 c 0,28,29
 151 6 151 6 125 48 c 0,30,31
 112 69 112 69 112 93 c 0,32,33
 112 142 112 142 155 168 c 0,34,35
 176 180 176 180 200 180 c 0,36,37
 283 180 283 180 308 274 c 0,38,39
 319 320 319 320 324 464 c 0,40,41
 330 628 330 628 361 702 c 0,42,43
 373.160138121 730.723084873 373.160138121 730.723084873 390.507118446 753.468114325 c 1,44,45
 366.88831022 789.795078908 366.88831022 789.795078908 353.5 835.5 c 0,46,47
 339 885 339 885 335 939.5 c 128,-1,48
 331 994 331 994 329.5 1048.5 c 128,-1,49
 328 1103 328 1103 324 1152.5 c 128,-1,50
 320 1202 320 1202 309 1240.5 c 128,-1,51
 298 1279 298 1279 271 1301.5 c 128,-1,52
 244 1324 244 1324 200 1324 c 0,53,54
 151 1324 151 1324 125 1366 c 0,55,56
 112 1387 112 1387 112 1411 c 0,0,1
EndSplineSet
PairPos2: "'kern' Horizontal Kerning in Arabic lookup 2 per glyph data 0" uni0622 dx=300 dy=0 dh=300 dv=0 dx=0 dy=0 dh=0 dv=0
EndChar

StartChar: asciitilde
Encoding: 94 126 94
Width: 870
GlyphClass: 2
Flags: W
LayerCount: 2
Fore
SplineSet
100 1104 m 0,0,1
 72 1113 72 1113 66 1144 c 0,2,3
 64 1156 64 1156 67 1167 c 0,4,5
 107 1287 107 1287 202 1326 c 0,6,7
 238 1340 238 1340 279 1340 c 0,8,9
 373 1340 373 1340 476 1268 c 0,10,11
 480 1266 480 1266 482 1264 c 0,12,13
 544 1222 544 1222 591 1222 c 0,14,15
 679 1223 679 1223 726 1338 c 0,16,17
 737 1366 737 1366 770 1368 c 0,18,19
 782 1368 782 1368 792 1364 c 0,20,21
 820 1351 820 1351 822 1319 c 0,22,23
 822 1307 822 1307 818 1298 c 0,24,25
 763 1170 763 1170 659 1134 c 0,26,27
 626 1122 626 1122 591 1122 c 0,28,29
 501 1123 501 1123 420 1184 c 0,30,31
 356 1231 356 1231 312 1239 c 0,32,33
 298 1241 298 1241 284 1241 c 0,34,35
 206 1241 206 1241 169 1154 c 0,36,37
 166 1145 166 1145 163 1137 c 0,38,39
 154 1109 154 1109 123 1103 c 0,40,41
 111 1101 111 1101 100 1104 c 0,0,1
EndSplineSet
EndChar

StartChar: cent
Encoding: 97 162 97
Width: 1031
GlyphClass: 2
Flags: W
LayerCount: 2
Fore
SplineSet
921 850 m 0,0,1
 889 813 889 813 839 822 c 0,2,3
 815 826 815 826 798 841 c 0,4,5
 713 914 713 914 611 914 c 0,6,7
 482 914 482 914 377 784 c 0,8,9
 279 662 279 662 254 495 c 0,10,11
 248 452 248 452 248 411 c 0,12,13
 248 151 248 151 449 109 c 0,14,15
 486 102 486 102 528 102 c 0,16,17
 680 102 680 102 818 183 c 0,18,19
 823 186 823 186 826 188 c 0,20,21
 868 213 868 213 913 189 c 0,22,23
 934 177 934 177 946 158 c 0,24,25
 971 115 971 115 946 70 c 0,26,27
 934 49 934 49 916 38 c 0,28,29
 780.987410564 -43.1551084043 780.987410564 -43.1551084043 634 -64.4361111712 c 1,30,-1
 634 -365 l 2,31,32
 634 -414 634 -414 592 -439 c 0,33,34
 571 -452 571 -452 547 -452 c 0,35,36
 498 -452 498 -452 473 -410 c 0,37,38
 460 -389 460 -389 460 -365 c 2,39,-1
 460 -68.3274241537 l 1,40,41
 261.716978404 -46.0754676055 261.716978404 -46.0754676055 157 111 c 0,42,43
 72 238 72 238 72 411 c 0,44,45
 72 593 72 593 158 768 c 0,46,47
 258 969 258 969 423 1047 c 0,48,49
 441.288863448 1055.42520676 441.288863448 1055.42520676 460 1062.11909378 c 1,50,-1
 460 1316 l 2,51,52
 460 1365 460 1365 502 1391 c 0,53,54
 523 1404 523 1404 547 1404 c 0,55,56
 596 1404 596 1404 622 1361 c 0,57,58
 634 1340 634 1340 634 1316 c 2,59,-1
 634 1087.32492923 l 1,60,61
 788.170026143 1079.13997759 788.170026143 1079.13997759 912 973 c 0,62,63
 949 941 949 941 940 891 c 0,64,65
 936 867 936 867 921 850 c 0,0,1
EndSplineSet
EndChar

StartChar: sterling
Encoding: 98 163 98
Width: 1454
GlyphClass: 2
Flags: W
LayerCount: 2
Fore
SplineSet
1306 342 m 0,0,1
 1355 341 1355 341 1380 298 c 0,2,3
 1392 276 1392 276 1392 253 c 0,4,5
 1378 70 1378 70 1156 -16 c 0,6,7
 1010 -72 1010 -72 828 -72 c 0,8,9
 619 -72 619 -72 387 22 c 1,10,11
 320 -20 320 -20 225 -20 c 0,12,13
 134 -20 134 -20 89 33 c 0,14,15
 62 66 62 66 62 110 c 0,16,17
 62 183 62 183 141 216 c 0,18,19
 179 232 179 232 219 232 c 0,20,21
 277 232 277 232 330 220 c 1,22,23
 398.48297211 315.208034397 398.48297211 315.208034397 409.771828744 577.115990732 c 1,24,25
 366.702756214 583.324310946 366.702756214 583.324310946 328 593 c 0,26,27
 284 604 284 604 267 648 c 0,28,29
 258 674 258 674 264 700 c 0,30,31
 276 744 276 744 319 760 c 0,32,33
 345 769 345 769 370 763 c 0,34,35
 390.288549001 757.815148589 390.288549001 757.815148589 412 753.799109532 c 1,36,-1
 412 939 l 2,37,38
 412 1178 412 1178 446 1284 c 0,39,40
 496 1433 496 1433 622 1434 c 0,41,42
 742 1434 742 1434 790 1338 c 0,43,44
 814 1290 814 1290 814 1226 c 0,45,46
 814 1125 814 1125 767 1109 c 0,47,48
 759 1106 759 1106 752 1106 c 0,49,50
 724 1107 724 1107 710 1120 c 1,51,52
 703 1182 703 1182 657 1189 c 0,53,54
 652 1190 652 1190 648 1190 c 0,55,56
 586 1188 586 1188 586 939 c 2,57,-1
 586 740.02384621 l 1,58,59
 726.437606821 740.859786322 726.437606821 740.859786322 882 771 c 0,60,61
 930 780 930 780 964 743 c 0,62,63
 980 724 980 724 985 702 c 0,64,65
 994 654 994 654 957 620 c 0,66,67
 938 604 938 604 916 599 c 0,68,69
 747.893034374 566.558304879 747.893034374 566.558304879 583.65186703 566.009445586 c 1,70,71
 574.63570005 346.593207411 574.63570005 346.593207411 531 226 c 0,72,73
 519 194 519 194 505 168 c 1,74,75
 686 102 686 102 828 102 c 0,76,77
 1164 102 1164 102 1213 251 c 0,78,79
 1216 261 1216 261 1218 271 c 0,80,81
 1230 321 1230 321 1275 337 c 0,82,83
 1290 342 1290 342 1306 342 c 0,0,1
EndSplineSet
EndChar

StartChar: currency
Encoding: 99 164 99
Width: 1109
GlyphClass: 2
Flags: W
LayerCount: 2
Fore
SplineSet
567 914 m 0,0,1
 420 914 420 914 331 785 c 0,2,3
 248 665 248 665 248 486 c 0,4,5
 248 314 248 314 340 202 c 0,6,7
 423 103 423 103 540 102 c 0,8,9
 662 102 662 102 754 214 c 0,10,11
 760.777845904 222.276106577 760.777845904 222.276106577 767.133203784 230.821994666 c 0,12,13
 769.517611474 234.46571292 769.517611474 234.46571292 772.231716139 237.816367168 c 0,14,15
 850.204271703 346.960160423 850.204271703 346.960160423 861 499 c 0,16,17
 862 519 862 519 862 538 c 0,18,19
 862 701 862 701 775 810 c 0,20,21
 691 913 691 913 567 914 c 0,0,1
1017 1036 m 0,22,23
 1055 1003 1055 1003 1044 953 c 0,24,25
 1039 929 1039 929 1024 912 c 2,26,-1
 962.071402762 841.401399148 l 1,27,28
 1021.41008248 732.630270567 1021.41008248 732.630270567 1033 595 c 0,29,30
 1036 566 1036 566 1036 538 c 0,31,32
 1036 349.910526981 1036 349.910526981 948.544402712 190.662793494 c 1,33,-1
 1025 102 l 2,34,35
 1058 64 1058 64 1041 16 c 0,36,37
 1033 -6 1033 -6 1016 -21 c 0,38,39
 978 -54 978 -54 930 -37 c 0,40,41
 908 -29 908 -29 893 -12 c 2,42,-1
 840.737888421 47.7281275186 l 1,43,44
 764.834695174 -24.2490985435 764.834695174 -24.2490985435 667 -54 c 0,45,46
 606 -72 606 -72 540 -72 c 0,47,48
 377.33322428 -72 377.33322428 -72 259.212711057 33.966109273 c 1,49,-1
 216 -14 l 2,50,51
 182 -52 182 -52 132 -40 c 0,52,53
 109 -35 109 -35 92 -20 c 0,54,55
 54 14 54 14 66 64 c 0,56,57
 71 87 71 87 86 104 c 2,58,-1
 149.031935331 173.335128864 l 1,59,60
 89.8797831104 279.978125518 89.8797831104 279.978125518 76 416 c 0,61,62
 72 452 72 452 72 486 c 0,63,64
 72 679.032255992 72 679.032255992 156.293981005 833.429770691 c 1,65,-1
 86 910 l 2,66,67
 52 947 52 947 66 996 c 0,68,69
 74 1019 74 1019 90 1034 c 0,70,71
 127 1068 127 1068 176 1054 c 0,72,73
 199 1046 199 1046 214 1030 c 2,74,-1
 264.97864074 975.443910787 l 1,75,76
 354.295443953 1057.02516034 354.295443953 1057.02516034 476 1080 c 0,77,78
 521 1088 521 1088 567 1088 c 0,79,80
 735.458602284 1088 735.458602284 1088 852.772616739 981.922336356 c 1,81,-1
 894 1028 l 2,82,83
 928 1066 928 1066 977 1056 c 0,84,85
 1000 1051 1000 1051 1017 1036 c 0,22,23
EndSplineSet
EndChar

StartChar: brokenbar
Encoding: 101 166 101
Width: 419
GlyphClass: 2
Flags: W
LayerCount: 2
Fore
SplineSet
220 584 m 0,0,1
 269 583 269 583 294 541 c 0,2,3
 306 519 306 519 306 496 c 0,4,5
 300 208 300 208 288 -5 c 0,6,7
 285 -54 285 -54 242 -77 c 0,8,9
 220 -88 220 -88 196 -87 c 0,10,11
 147 -84 147 -84 124 -41 c 0,12,13
 113 -19 113 -19 114 5 c 0,14,15
 126 219 126 219 132 498 c 0,16,17
 133 547 133 547 175 572 c 0,18,19
 197 584 197 584 220 584 c 0,0,1
204 1448 m 0,20,21
 253 1448 253 1448 279 1406 c 0,22,23
 292 1385 292 1385 292 1361 c 0,24,25
 292 1112 292 1112 288 894 c 0,26,27
 287 846 287 846 245 821 c 0,28,29
 223 808 223 808 198 808 c 0,30,31
 149 809 149 809 124 851 c 0,32,33
 113 872 113 872 113 896 c 0,34,35
 116 1059 116 1059 116 1361 c 0,36,37
 116 1410 116 1410 159 1436 c 0,38,39
 180 1448 180 1448 204 1448 c 0,20,21
EndSplineSet
EndChar

StartChar: section
Encoding: 102 167 102
Width: 916
GlyphClass: 2
Flags: W
LayerCount: 2
Fore
SplineSet
779 1074 m 0,0,1
 732 1064 732 1064 696 1099 c 0,2,3
 679 1118 679 1118 674 1140 c 0,4,5
 659 1212 659 1212 573 1242 c 0,6,7
 528 1258 528 1258 472 1258 c 0,8,9
 366 1258 366 1258 296 1197 c 0,10,11
 247 1154 247 1154 246 1104 c 0,12,13
 246 1026 246 1026 319 993 c 0,14,15
 368.69251249 971.020619476 368.69251249 971.020619476 468.612102961 959.999873928 c 0,16,17
 468.806028427 959.999873928 468.806028427 959.999873928 469 960 c 0,18,19
 480.559662977 960 480.559662977 960 490.839278888 957.606869129 c 0,20,21
 696.906889997 933.853365181 696.906889997 933.853365181 791 832 c 0,22,23
 854 761 854 761 854 662 c 0,24,25
 854 523.973502102 854 523.973502102 729.124251964 449.397384287 c 1,26,27
 853.088170502 355.804549233 853.088170502 355.804549233 854 209 c 0,28,29
 854 42 854 42 676 -31 c 0,30,31
 577 -72 577 -72 457 -72 c 0,32,33
 254 -71 254 -71 96 54 c 0,34,35
 58 85 58 85 64 135 c 0,36,37
 68 160 68 160 82 178 c 0,38,39
 114 217 114 217 163 210 c 0,40,41
 186 206 186 206 204 192 c 0,42,43
 319 102 319 102 457 102 c 0,44,45
 591 102 591 102 649 157 c 0,46,47
 678 185 678 185 678 221 c 0,48,49
 678 305 678 305 558 350 c 0,50,51
 503 370 503 370 434 378 c 0,52,53
 218 400 218 400 126 510 c 0,54,55
 70 578 70 578 70 673 c 0,56,57
 70 795.382020228 70 795.382020228 179.931021301 873.197410199 c 1,58,59
 168.801513122 881.263868739 168.801513122 881.263868739 159 890 c 0,60,61
 72 969 72 969 72 1104 c 0,62,63
 72 1248 72 1248 203 1345 c 0,64,65
 310 1424 310 1424 446 1433 c 0,66,67
 460 1434 460 1434 472 1434 c 0,68,69
 627 1434 627 1434 733 1354 c 0,70,71
 822 1287 822 1287 846 1178 c 0,72,73
 856 1130 856 1130 819 1095 c 0,74,75
 801 1079 801 1079 779 1074 c 0,0,1
451.446563147 552.060157957 m 1,76,77
 556.757985148 553.570518063 556.757985148 553.570518063 626 593 c 0,78,79
 677 624 677 624 678 664 c 0,80,81
 676.042037615 759.940156886 676.042037615 759.940156886 468.985581583 784.000000183 c 1,82,83
 368.994881439 783.996828317 368.994881439 783.996828317 298 740 c 0,84,85
 248 708 248 708 247 670 c 0,86,87
 248.997271867 574.130950383 248.997271867 574.130950383 451.446563147 552.060157957 c 1,76,77
EndSplineSet
EndChar

StartChar: dieresis
Encoding: 103 168 103
Width: 688
GlyphClass: 2
Flags: W
LayerCount: 2
Fore
SplineSet
285 1224 m 0,0,1
 285 1165 285 1165 236 1137 c 0,2,3
 212 1123 212 1123 184 1123 c 0,4,5
 138 1123 138 1123 115 1170 c 0,6,7
 104 1192 104 1192 104 1214 c 0,8,9
 104 1265 104 1265 147 1291 c 0,10,11
 169 1304 169 1304 194 1304 c 0,12,13
 244 1304 244 1304 271 1267 c 0,14,15
 285 1247 285 1247 285 1224 c 0,0,1
584 1210 m 0,16,17
 584 1156 584 1156 535 1133 c 0,18,19
 515 1123 515 1123 493 1123 c 0,20,21
 442 1123 442 1123 415 1167 c 0,22,23
 403 1189 403 1189 403 1210 c 0,24,25
 403 1268 403 1268 446 1293 c 0,26,27
 465 1304 465 1304 485 1304 c 0,28,29
 542 1304 542 1304 570 1259 c 0,30,31
 584 1236 584 1236 584 1210 c 0,16,17
EndSplineSet
EndChar

StartChar: ordfeminine
Encoding: 105 170 105
Width: 936
GlyphClass: 2
Flags: W
LayerCount: 2
Fore
SplineSet
713 1492 m 0,0,1
 736 1482 736 1482 733 1454 c 0,2,3
 732 1448 732 1448 730 1443 c 0,4,5
 697 1374 697 1374 677 1245 c 0,6,7
 674.960659494 1231.17780324 674.960659494 1231.17780324 673.383420638 1217.92039666 c 0,8,9
 672.209095684 1190.61027159 672.209095684 1190.61027159 668.798172719 1164.7557105 c 0,10,11
 668.00000024 1148.89008317 668.00000024 1148.89008317 668 1134 c 0,12,13
 668 1004 668 1004 715 953 c 0,14,15
 734 933 734 933 756 932 c 0,16,17
 781 932 781 932 790 909 c 0,18,19
 792 902 792 902 792 896 c 0,20,21
 792 871 792 871 769 862 c 0,22,23
 762 860 762 860 756 860 c 0,24,25
 650.11102507 860 650.11102507 860 613.025315608 993.511098466 c 1,26,27
 612.020930011 991.750165733 612.020930011 991.750165733 611 990 c 0,28,29
 534 861 534 861 394 860 c 0,30,31
 274 860 274 860 202 960 c 0,32,33
 144 1043 144 1043 144 1156 c 0,34,35
 144 1298 144 1298 228 1397 c 0,36,37
 313 1494 313 1494 437 1495 c 0,38,39
 570 1495 570 1495 633 1401 c 0,40,41
 634.117314457 1399.31040253 634.117314457 1399.31040253 635.204180472 1397.59852557 c 1,42,43
 639.379726341 1411.33169086 639.379726341 1411.33169086 644 1425 c 0,44,45
 654 1455 654 1455 664 1475 c 0,46,47
 674 1498 674 1498 702 1495 c 0,48,49
 708 1494 708 1494 713 1492 c 0,0,1
394 932 m 0,50,51
 508 932 508 932 565 1058 c 0,52,53
 588.042961425 1110.31375026 588.042961425 1110.31375026 596.735164178 1170.77252572 c 0,54,55
 598.087859398 1204.5044431 598.087859398 1204.5044431 601.929501163 1237.87338911 c 0,56,57
 601.999999998 1242.41668813 601.999999998 1242.41668813 602 1247 c 0,58,59
 602 1411 602 1411 460 1422 c 0,60,61
 449 1423 449 1423 437 1423 c 0,62,63
 337 1423 337 1423 272 1337 c 0,64,65
 216 1261 216 1261 216 1156 c 0,66,67
 216 1030 216 1030 291 968 c 0,68,69
 336 932 336 932 394 932 c 0,50,51
EndSplineSet
EndChar

StartChar: logicalnot
Encoding: 107 172 107
Width: 975
GlyphClass: 2
Flags: W
LayerCount: 2
Fore
SplineSet
62 661 m 0,0,1
 62 710 62 710 105 736 c 0,2,3
 126 748 126 748 150 748 c 2,4,-1
 795 748 l 2,5,6
 844 748 844 748 870 702 c 0,7,8
 882 681 882 681 882 661 c 2,9,-1
 882 388 l 2,10,11
 882 339 882 339 840 313 c 0,12,13
 819 300 819 300 795 300 c 0,14,15
 746 300 746 300 720 343 c 0,16,17
 708 364 708 364 708 388 c 2,18,-1
 708 574 l 1,19,-1
 150 574 l 2,20,21
 101 574 101 574 75 616 c 0,22,23
 62 637 62 637 62 661 c 0,0,1
EndSplineSet
EndChar

StartChar: degree
Encoding: 111 176 111
Width: 830
GlyphClass: 2
Flags: W
LayerCount: 2
Fore
SplineSet
686 1398 m 0,0,1
 686 1288 686 1288 598 1209 c 0,2,3
 513 1133 513 1133 400 1133 c 0,4,5
 296 1133 296 1133 218 1212 c 0,6,7
 144 1290 144 1290 144 1391 c 0,8,9
 144 1501 144 1501 225 1587 c 1,10,11
 312 1672 312 1672 414 1675 c 0,12,13
 528 1675 528 1675 610 1587 c 0,14,15
 686 1504 686 1504 686 1398 c 0,0,1
614 1398 m 0,16,17
 614 1482 614 1482 549 1546 c 0,18,19
 489 1603 489 1603 414 1603 c 0,20,21
 340 1603 340 1603 278 1537 c 0,22,23
 217 1471 217 1471 216 1391 c 0,24,25
 216 1311 216 1311 281 1253 c 0,26,27
 336 1205 336 1205 400 1205 c 0,28,29
 496 1205 496 1205 561 1274 c 0,30,31
 614 1330 614 1330 614 1398 c 0,16,17
EndSplineSet
EndChar

StartChar: uni00B2
Encoding: 113 178 113
Width: 718
GlyphClass: 2
Flags: W
LayerCount: 2
Fore
SplineSet
180 1262 m 0,0,1
 155 1262 155 1262 146 1285 c 0,2,3
 144 1292 144 1292 144 1298 c 0,4,5
 144 1395 144 1395 209 1459 c 0,6,7
 265 1513 265 1513 343 1513 c 0,8,9
 438 1513 438 1513 490 1439 c 0,10,11
 524 1389 524 1389 524 1327 c 0,12,13
 524 1215 524 1215 436 1115 c 0,14,15
 411 1085 411 1085 363 1040 c 2,16,-1
 282 962 l 1,17,-1
 536 976 l 2,18,19
 562 979 562 979 572 953 c 0,20,21
 573 947 573 947 574 942 c 0,22,23
 577 916 577 916 551 906 c 0,24,25
 545 905 545 905 540 904 c 2,26,-1
 189 885 l 2,27,28
 173 886 173 886 163 894 c 0,29,30
 143 911 143 911 154 936 c 0,31,32
 157 943 157 943 162 948 c 2,33,-1
 313 1094 l 2,34,35
 395 1175 395 1175 419 1211 c 0,36,37
 452 1264 452 1264 452 1327 c 0,38,39
 452 1398 452 1398 398 1428 c 0,40,41
 373 1441 373 1441 343 1441 c 0,42,43
 273 1441 273 1441 237 1379 c 0,44,45
 216 1343 216 1343 216 1298 c 0,46,47
 216 1273 216 1273 193 1264 c 0,48,49
 186 1262 186 1262 180 1262 c 0,0,1
EndSplineSet
EndChar

StartChar: uni00B3
Encoding: 114 179 114
Width: 664
GlyphClass: 2
Flags: W
LayerCount: 2
Fore
SplineSet
201 1312 m 0,0,1
 178 1317 178 1317 174 1342 c 0,2,3
 173 1349 173 1349 174 1356 c 0,4,5
 191 1432 191 1432 256 1471 c 0,6,7
 296 1495 296 1495 343 1495 c 0,8,9
 422 1495 422 1495 470 1429 c 0,10,11
 504 1383 504 1383 504 1326 c 0,12,13
 504 1253.01935991 504 1253.01935991 435.97397182 1205.46592453 c 1,14,15
 464.597335125 1191.34028554 464.597335125 1191.34028554 486 1167 c 0,16,17
 518 1129 518 1129 520 1076 c 0,18,19
 520 973 520 973 434 919 c 0,20,21
 379 884 379 884 310 884 c 0,22,23
 222 885 222 885 158 936 c 0,24,25
 138 952 138 952 146 976 c 0,26,27
 149 983 149 983 152 987 c 0,28,29
 168 1007 168 1007 193 997 c 0,30,31
 199 995 199 995 203 992 c 0,32,33
 247 956 247 956 310 956 c 0,34,35
 394 956 394 956 431 1014 c 0,36,37
 448 1042 448 1042 448 1076 c 0,38,39
 446 1136 446 1136 379 1150 c 0,40,41
 362 1153 362 1153 343 1153 c 0,42,43
 320.870073595 1153 320.870073595 1153 294.927342006 1148.33990482 c 0,44,45
 282.054751543 1145.56772253 282.054751543 1145.56772253 266 1142 c 0,46,47
 240 1136 240 1136 227 1158 c 0,48,49
 223 1164 223 1164 222 1170 c 0,50,51
 218.274972111 1187.88013387 218.274972111 1187.88013387 230.090876913 1200.20993464 c 0,52,53
 233.725264061 1204.48350935 233.725264061 1204.48350935 239 1208 c 0,54,55
 245 1211 245 1211 250 1212 c 0,56,57
 262.531705063 1214.85810817 262.531705063 1214.85810817 274.048354311 1217.08784858 c 0,58,59
 417.08320825 1250.91054386 417.08320825 1250.91054386 431 1314 c 0,60,61
 432 1320 432 1320 432 1326 c 0,62,63
 432 1379 432 1379 389 1408 c 0,64,65
 367 1423 367 1423 343 1423 c 0,66,67
 285 1423 285 1423 256 1371 c 0,68,69
 248 1356 248 1356 244 1340 c 0,70,71
 239 1317 239 1317 215 1312 c 0,72,73
 208 1311 208 1311 201 1312 c 0,0,1
EndSplineSet
EndChar

StartChar: acute
Encoding: 115 180 115
Width: 522
GlyphClass: 2
Flags: W
LayerCount: 2
Fore
SplineSet
393 1520 m 0,0,1
 418 1499 418 1499 410 1468 c 0,2,3
 407 1457 407 1457 401 1450 c 0,4,5
 282 1301 282 1301 225 1187 c 0,6,7
 215 1167 215 1167 206 1148 c 0,8,9
 193 1121 193 1121 162 1119 c 0,10,11
 150 1119 150 1119 140 1123 c 0,12,13
 113 1134 113 1134 110 1167 c 0,14,15
 110 1179 110 1179 114 1190 c 0,16,17
 174 1324 174 1324 296 1479 c 0,18,19
 307 1493 307 1493 322 1512 c 0,20,21
 342 1536 342 1536 375 1529 c 0,22,23
 385 1526 385 1526 393 1520 c 0,0,1
EndSplineSet
EndChar

StartChar: mu
Encoding: 116 181 116
Width: 1099
GlyphClass: 2
Flags: W
LayerCount: 2
Fore
SplineSet
298 1100 m 0,0,1
 342 1088 342 1088 358 1045 c 0,2,3
 367 1019 367 1019 361 994 c 0,4,5
 345.122024186 932.371924384 345.122024186 932.371924384 332.865279537 873.858107605 c 0,6,7
 305.480737247 729.611672562 305.480737247 729.611672562 293 532 c 0,8,9
 292.515274713 523.565780001 292.515274713 523.565780001 292.077541197 515.216145099 c 0,10,11
 293.825999314 295.09321066 293.825999314 295.09321066 335 207 c 0,12,13
 385 103 385 103 511 102 c 0,14,15
 752.472607602 102 752.472607602 102 790.646720108 743.687019488 c 1,16,17
 792.27459026 924.099386788 792.27459026 924.099386788 798 1020 c 0,18,19
 801 1069 801 1069 844 1092 c 0,20,21
 866 1103 866 1103 890 1102 c 0,22,23
 891.486845819 1101.90896862 891.486845819 1101.90896862 892.949752274 1101.78110779 c 0,24,25
 936.804804401 1098.96792819 936.804804401 1098.96792819 960 1060 c 0,26,27
 973 1039 973 1039 973 1015 c 0,28,29
 972 753 972 753 966 660 c 0,30,31
 965.091616194 645.871732713 965.091616194 645.871732713 964.048382294 632.016153354 c 0,32,33
 964.00000031 610.019111383 964.00000031 610.019111383 964 587 c 0,34,35
 964 266 964 266 986 57 c 0,36,37
 991 9 991 9 951 -21 c 0,38,39
 931 -36 931 -36 908 -39 c 0,40,41
 860 -44 860 -44 830 -4 c 0,42,43
 815 16 815 16 812 39 c 0,44,45
 809.970733135 59.4771474553 809.970733135 59.4771474553 808.128644705 80.8391380349 c 1,46,47
 697.12976897 -71.5437995344 697.12976897 -71.5437995344 511 -72 c 0,48,49
 385.56421255 -72 385.56421255 -72 300.383057213 -14.472990278 c 1,50,51
 312.124752621 -211.194355773 312.124752621 -211.194355773 335 -438 c 0,52,53
 340 -486 340 -486 300 -516 c 0,54,55
 280 -531 280 -531 257 -534 c 0,56,57
 209 -539 209 -539 179 -499 c 0,58,59
 164 -479 164 -479 161 -456 c 0,60,61
 112 38 112 38 112 367 c 0,62,63
 112 471.383116253 112 471.383116253 118.504567261 571.087508646 c 0,64,65
 123.00864503 734.409218563 123.00864503 734.409218563 167.718896967 937.937102331 c 0,66,67
 168.355808125 940.971169588 168.355808125 940.971169588 169 944 c 0,68,69
 178.535729054 989.077991891 178.535729054 989.077991891 188.822945693 1027.39258606 c 0,70,71
 189.903234365 1031.68805387 189.903234365 1031.68805387 191 1036 c 0,72,73
 202 1080 202 1080 246 1097 c 0,74,75
 272 1106 272 1106 298 1100 c 0,0,1
EndSplineSet
EndChar

StartChar: paragraph
Encoding: 117 182 117
Width: 1319
GlyphClass: 2
Flags: W
LayerCount: 2
Fore
SplineSet
1217 1081 m 0,0,1
 1179 1048 1179 1048 1131 1064 c 0,2,3
 1108 1072 1108 1072 1093 1089 c 0,4,5
 946 1258 946 1258 715 1258 c 0,6,7
 542 1258 542 1258 410 1147 c 0,8,9
 283 1042 283 1042 255 886 c 0,10,11
 248 848 248 848 248 811 c 0,12,13
 248 654 248 654 374 537 c 0,14,15
 456.854952862 460.257297759 456.854952862 460.257297759 566 425.025270688 c 1,16,-1
 566 1020 l 2,17,18
 566 1054 566 1054 597 1069 c 0,19,20
 608 1074 608 1074 620 1074 c 0,21,22
 654 1074 654 1074 669 1043 c 0,23,24
 674 1032 674 1032 674 1020 c 2,25,-1
 674 401.129251667 l 2,26,27
 674.499777431 401.064274408 674.499777431 401.064274408 675 401 c 0,28,29
 713 396 713 396 750 396 c 0,30,31
 812.279633777 396 812.279633777 396 872 409.161947422 c 1,32,-1
 872 960 l 2,33,34
 872 997 872 997 903 1010 c 0,35,36
 913 1014 913 1014 923 1014 c 0,37,38
 958 1014 958 1014 971 980 c 0,39,40
 974 970 974 970 974 960 c 2,41,-1
 974 437.733030911 l 1,42,43
 1006.06934297 440.4212592 1006.06934297 440.4212592 1035 418 c 0,44,45
 1054 402 1054 402 1062 381 c 0,46,47
 1079 335 1079 335 1048 295 c 0,48,49
 1032 276 1032 276 1011 268 c 0,50,51
 992.573678015 261.035720824 992.573678015 261.035720824 974 255.081882991 c 1,52,-1
 974 -442 l 2,53,54
 974 -479 974 -479 943 -492 c 0,55,56
 933 -496 933 -496 923 -496 c 0,57,58
 888 -496 888 -496 875 -462 c 0,59,60
 872 -452 872 -452 872 -442 c 2,61,-1
 872 230.190798334 l 1,62,63
 811.743079045 220 811.743079045 220 750 220 c 0,64,65
 711.512967128 220 711.512967128 220 674 223.661143656 c 1,66,-1
 674 -382 l 2,67,68
 674 -416 674 -416 643 -431 c 0,69,70
 632 -436 632 -436 620 -436 c 0,71,72
 586 -436 586 -436 571 -405 c 0,73,74
 566 -394 566 -394 566 -382 c 2,75,-1
 566 242.290364778 l 1,76,77
 458.149014314 269.291477568 458.149014314 269.291477568 359 329 c 0,78,79
 173 442 173 442 105 625 c 0,80,81
 72 714 72 714 72 811 c 0,82,83
 72 1030 72 1030 216 1201 c 0,84,85
 347 1357 347 1357 545 1411 c 0,86,87
 629 1434 629 1434 715 1434 c 0,88,89
 985 1434 985 1434 1178 1253 c 0,90,91
 1203 1230 1203 1230 1225 1205 c 0,92,93
 1258 1167 1258 1167 1242 1119 c 0,94,95
 1234 1096 1234 1096 1217 1081 c 0,0,1
EndSplineSet
EndChar

StartChar: cedilla
Encoding: 119 184 119
Width: 717
GlyphClass: 2
Flags: W
LayerCount: 2
Fore
SplineSet
259 55 m 0,0,1
 290 94 290 94 340 86 c 0,2,3
 364 82 364 82 382 68 c 0,4,5
 499 -25 499 -25 573 -145 c 0,6,7
 644 -260 644 -260 644 -361 c 0,8,9
 644 -505 644 -505 496 -560 c 0,10,11
 420 -588 420 -588 319 -588 c 0,12,13
 211 -588 211 -588 136 -566 c 0,14,15
 93 -554 93 -554 78 -510 c 0,16,17
 69 -483 69 -483 76 -457 c 0,18,19
 88 -413 88 -413 132 -398 c 0,20,21
 158 -389 158 -389 184 -396 c 0,22,23
 250 -414 250 -414 319 -414 c 0,24,25
 461 -409 461 -409 467 -342 c 1,26,27
 467 -279 467 -279 363 -158 c 0,28,29
 314 -102 314 -102 272 -68 c 0,30,31
 233 -37 233 -37 241 13 c 0,32,33
 245 37 245 37 259 55 c 0,0,1
EndSplineSet
EndChar

StartChar: uni00B9
Encoding: 120 185 120
Width: 526
GlyphClass: 2
Flags: W
LayerCount: 2
Fore
SplineSet
324 797 m 0,0,1
 299 800 299 800 291 823 c 0,2,3
 290 830 290 830 290 836 c 2,4,-1
 324 1380 l 1,5,6
 252 1327 252 1327 174 1296 c 0,7,8
 150 1285 150 1285 132 1307 c 0,9,10
 128 1312 128 1312 126 1316 c 0,11,12
 116 1339 116 1339 138 1357 c 0,13,14
 143 1360 143 1360 147 1362 c 0,15,16
 247 1402 247 1402 342 1486 c 0,17,18
 353 1494 353 1494 366 1495 c 0,19,20
 391 1495 391 1495 400 1471 c 0,21,22
 402 1463 402 1463 402 1456 c 2,23,-1
 362 830 l 2,24,25
 359 804 359 804 336 798 c 0,26,27
 330 797 330 797 324 797 c 0,0,1
EndSplineSet
EndChar

StartChar: onequarter
Encoding: 123 188 123
Width: 2006
GlyphClass: 2
Flags: W
LayerCount: 2
Fore
SplineSet
442 -1 m 0,0,1
 414 27 414 27 425 65 c 0,2,3
 430 78 430 78 439 88 c 0,4,5
 761 430 761 430 1090 882 c 0,6,7
 1325 1204 1325 1204 1458 1444 c 0,8,9
 1477 1477 1477 1477 1516 1476 c 0,10,11
 1531 1474 1531 1474 1543 1468 c 0,12,13
 1577 1448 1577 1448 1573 1409 c 0,14,15
 1572 1395 1572 1395 1566 1384 c 0,16,17
 1363 1018 1363 1018 989 540 c 0,18,19
 750 235 750 235 531 2 c 0,20,21
 504 -26 504 -26 467 -15 c 0,22,23
 452 -11 452 -11 442 -1 c 0,0,1
1609 319 m 0,24,25
 1644 316 1644 316 1660 282 c 0,26,27
 1666 266 1666 266 1665 251 c 2,28,-1
 1636.95136031 -36.3836033819 l 1,29,30
 1677.68165998 -31.382439926 1677.68165998 -31.382439926 1718 -25 c 0,31,32
 1781 -15 1781 -15 1832 -2 c 0,33,34
 1868 7 1868 7 1894 -24 c 0,35,36
 1903 -35 1903 -35 1906 -48 c 0,37,38
 1915 -83 1915 -83 1886 -110 c 0,39,40
 1874 -120 1874 -120 1860 -124 c 0,41,42
 1748.85220906 -150.638726755 1748.85220906 -150.638726755 1624.41483099 -164.831649698 c 1,43,-1
 1604 -374 l 2,44,45
 1601 -409 1601 -409 1567 -425 c 0,46,47
 1551 -431 1551 -431 1536 -430 c 0,48,49
 1501 -427 1501 -427 1485 -393 c 0,50,51
 1479 -377 1479 -377 1480 -362 c 2,52,-1
 1498.1711193 -175.820498955 l 1,53,54
 1408.68588011 -181.313724197 1408.68588011 -181.313724197 1313 -181 c 0,55,56
 1173 -180 1173 -180 1062 -164 c 0,57,58
 1050 -164 1050 -164 1038 -156 c 0,59,60
 1006 -137 1006 -137 1008 -99 c 0,61,62
 1010 -80 1010 -80 1020 -65 c 0,63,64
 1139 95 1139 95 1298 378 c 0,65,66
 1412 582 1412 582 1463 708 c 0,67,68
 1477 744 1477 744 1515 747 c 0,69,70
 1530 748 1530 748 1544 743 c 0,71,72
 1580 729 1580 729 1583 691 c 0,73,74
 1584 676 1584 676 1579 662 c 0,75,76
 1487 433 1487 433 1252 58 c 0,77,78
 1216 0 1216 0 1183 -50 c 1,79,80
 1349.90698216 -59.6757670817 1349.90698216 -59.6757670817 1510.59698007 -48.5063516974 c 1,81,-1
 1541 263 l 2,82,83
 1544 298 1544 298 1578 314 c 0,84,85
 1594 320 1594 320 1609 319 c 0,24,25
382 458 m 0,86,87
 345 460 345 460 329 495 c 0,88,89
 323 509 323 509 324 524 c 2,90,-1
 386 1472 l 1,91,92
 276 1387 276 1387 192 1336 c 0,93,94
 159 1316 159 1316 125 1338 c 0,95,96
 113 1347 113 1347 106 1358 c 0,97,98
 86 1392 86 1392 109 1425 c 0,99,100
 117 1436 117 1436 128 1443 c 0,101,102
 256 1517 256 1517 378 1632 c 0,103,104
 396 1648 396 1648 421 1649 c 2,105,-1
 456 1649 l 2,106,107
 493 1649 493 1649 511 1616 c 0,108,109
 519 1600 519 1600 518 1583 c 2,110,-1
 448 516 l 2,111,112
 446 479 446 479 411 463 c 0,113,114
 397 457 397 457 382 458 c 0,86,87
EndSplineSet
EndChar

StartChar: onehalf
Encoding: 124 189 124
Width: 2060
GlyphClass: 2
Flags: W
LayerCount: 2
Fore
SplineSet
1293 307 m 0,0,1
 1256 307 1256 307 1238 341 c 0,2,3
 1231 355 1231 355 1231 370 c 0,4,5
 1231 524 1231 524 1322 637 c 0,6,7
 1423 761 1423 761 1583 767 c 0,8,9
 1590 767 1590 767 1597 767 c 0,10,11
 1752 767 1752 767 1845 654 c 0,12,13
 1923 558 1923 558 1923 424 c 0,14,15
 1923 218 1923 218 1725 13 c 0,16,17
 1679 -34 1679 -34 1620 -86 c 2,18,-1
 1420 -262 l 1,19,20
 1552 -255 1552 -255 1679 -256 c 0,21,22
 1758 -257 1758 -257 1904 -265 c 0,23,24
 1942 -267 1942 -267 1957 -302 c 0,25,26
 1963 -316 1963 -316 1962 -330 c 0,27,28
 1960 -367 1960 -367 1925 -383 c 0,29,30
 1911 -390 1911 -390 1896 -389 c 0,31,32
 1739 -381 1739 -381 1604 -381 c 0,33,34
 1409 -381 1409 -381 1256 -397 c 0,35,36
 1219 -401 1219 -401 1197 -366 c 0,37,38
 1172 -328 1172 -328 1201 -295 c 0,39,40
 1204 -291 1204 -291 1207 -288 c 2,41,-1
 1494 -28 l 2,42,43
 1685 146 1685 146 1749 261 c 0,44,45
 1797 346 1797 346 1797 424 c 0,46,47
 1797 547 1797 547 1712 607 c 0,48,49
 1660 643 1660 643 1590 643 c 0,50,51
 1473 643 1473 643 1406 546 c 0,52,53
 1355 471 1355 471 1355 370 c 0,54,55
 1355 332 1355 332 1322 314 c 0,56,57
 1307 307 1307 307 1293 307 c 0,0,1
382 458 m 0,58,59
 345 460 345 460 329 495 c 0,60,61
 323 509 323 509 324 524 c 2,62,-1
 386 1472 l 1,63,64
 276 1387 276 1387 192 1336 c 0,65,66
 159 1316 159 1316 125 1338 c 0,67,68
 113 1347 113 1347 106 1358 c 0,69,70
 86 1392 86 1392 109 1425 c 0,71,72
 117 1436 117 1436 128 1443 c 0,73,74
 256 1517 256 1517 378 1632 c 0,75,76
 396 1648 396 1648 421 1649 c 2,77,-1
 456 1649 l 2,78,79
 493 1649 493 1649 511 1616 c 0,80,81
 519 1600 519 1600 518 1583 c 2,82,-1
 448 516 l 2,83,84
 446 479 446 479 411 463 c 0,85,86
 397 457 397 457 382 458 c 0,58,59
442 -1 m 0,87,88
 414 27 414 27 425 65 c 0,89,90
 430 78 430 78 439 88 c 0,91,92
 762 431 762 431 1090 882 c 0,93,94
 1325 1204 1325 1204 1458 1444 c 0,95,96
 1477 1477 1477 1477 1516 1476 c 0,97,98
 1531 1474 1531 1474 1543 1468 c 0,99,100
 1577 1448 1577 1448 1573 1409 c 0,101,102
 1572 1395 1572 1395 1566 1384 c 0,103,104
 1363 1018 1363 1018 989 540 c 0,105,106
 750 235 750 235 531 2 c 0,107,108
 504 -26 504 -26 467 -15 c 0,109,110
 452 -11 452 -11 442 -1 c 0,87,88
EndSplineSet
EndChar

StartChar: threequarters
Encoding: 125 190 125
Width: 2156
GlyphClass: 2
Flags: W
LayerCount: 2
Fore
SplineSet
1759 319 m 0,0,1
 1794 316 1794 316 1810 282 c 0,2,3
 1816 266 1816 266 1815 251 c 2,4,-1
 1786.95136031 -36.3836033819 l 1,5,6
 1827.68165998 -31.382439926 1827.68165998 -31.382439926 1868 -25 c 0,7,8
 1931 -15 1931 -15 1982 -2 c 0,9,10
 2018 7 2018 7 2044 -24 c 0,11,12
 2053 -35 2053 -35 2056 -48 c 0,13,14
 2065 -83 2065 -83 2036 -110 c 0,15,16
 2024 -120 2024 -120 2010 -124 c 0,17,18
 1898.85220906 -150.638726755 1898.85220906 -150.638726755 1774.41483099 -164.831649698 c 1,19,-1
 1754 -374 l 2,20,21
 1751 -409 1751 -409 1717 -425 c 0,22,23
 1701 -431 1701 -431 1686 -430 c 0,24,25
 1651 -427 1651 -427 1635 -393 c 0,26,27
 1629 -377 1629 -377 1630 -362 c 2,28,-1
 1648.1711193 -175.820498955 l 1,29,30
 1558.68588011 -181.313724197 1558.68588011 -181.313724197 1463 -181 c 0,31,32
 1323 -180 1323 -180 1212 -164 c 0,33,34
 1200 -164 1200 -164 1188 -156 c 0,35,36
 1156 -137 1156 -137 1158 -99 c 0,37,38
 1160 -80 1160 -80 1170 -65 c 0,39,40
 1289 95 1289 95 1448 378 c 0,41,42
 1562 582 1562 582 1613 708 c 0,43,44
 1627 744 1627 744 1665 747 c 0,45,46
 1680 748 1680 748 1694 743 c 0,47,48
 1730 729 1730 729 1733 691 c 0,49,50
 1734 676 1734 676 1729 662 c 0,51,52
 1637 433 1637 433 1402 58 c 0,53,54
 1366 0 1366 0 1333 -50 c 1,55,56
 1499.90698216 -59.6757670817 1499.90698216 -59.6757670817 1660.59698007 -48.5063516974 c 1,57,-1
 1691 263 l 2,58,59
 1694 298 1694 298 1728 314 c 0,60,61
 1744 320 1744 320 1759 319 c 0,0,1
592 -1 m 0,62,63
 564 27 564 27 575 65 c 0,64,65
 580 78 580 78 589 88 c 0,66,67
 911 430 911 430 1240 882 c 0,68,69
 1475 1204 1475 1204 1608 1444 c 0,70,71
 1627 1477 1627 1477 1666 1476 c 0,72,73
 1681 1474 1681 1474 1693 1468 c 0,74,75
 1727 1448 1727 1448 1723 1409 c 0,76,77
 1722 1395 1722 1395 1716 1384 c 0,78,79
 1513 1018 1513 1018 1139 540 c 0,80,81
 900 235 900 235 681 2 c 0,82,83
 654 -26 654 -26 617 -15 c 0,84,85
 602 -11 602 -11 592 -1 c 0,62,63
787 828 m 1,86,87
 787 662 787 662 662 562 c 0,88,89
 553 475 553 475 402 475 c 0,90,91
 242 475 242 475 123 572 c 0,92,93
 121 573 121 573 120 574 c 0,94,95
 91 598 91 598 99 636 c 0,96,97
 103 651 103 651 112 662 c 0,98,99
 137 692 137 692 176 682 c 0,100,101
 190 678 190 678 200 670 c 0,102,103
 288 604 288 604 402 601 c 0,104,105
 540 601 540 601 612 681 c 0,106,107
 662 737 662 737 662 818 c 0,108,109
 660 911 660 911 576 953 c 0,110,111
 527 977 527 977 464 977 c 0,112,113
 431.082518879 977 431.082518879 977 386.70257887 968.761357884 c 0,114,115
 356.472293611 961.082294555 356.472293611 961.082294555 321 953 c 0,116,117
 284 944 284 944 258 975 c 0,118,119
 255.838643789 977.881808281 255.838643789 977.881808281 254.023322693 980.821289552 c 0,120,121
 248.792881102 988.923132559 248.792881102 988.923132559 246 998 c 0,122,123
 243.316976503 1008.43398027 243.316976503 1008.43398027 244.011080236 1018.15698626 c 0,124,125
 244.906025858 1043.63085964 244.906025858 1043.63085964 268 1063 c 0,126,127
 280 1072 280 1072 293 1075 c 0,128,129
 533 1130 533 1130 601 1220 c 0,130,131
 633 1263 633 1263 633 1316 c 0,132,133
 633 1433 633 1433 553 1478 c 0,134,135
 518 1497 518 1497 476 1497 c 0,136,137
 386 1497 386 1497 324 1429 c 0,138,139
 287 1388 287 1388 275 1337 c 0,140,141
 267 1302 267 1302 232 1291 c 0,142,143
 216 1286 216 1286 200 1290 c 0,144,145
 165 1298 165 1298 154 1333 c 0,146,147
 149 1349 149 1349 153 1365 c 0,148,149
 182 1495 182 1495 298 1568 c 0,150,151
 383 1621 383 1621 479 1621 c 0,152,153
 599 1621 599 1621 677 1535 c 0,154,155
 757 1448 757 1448 757 1307 c 0,156,157
 757 1160.86986636 757 1160.86986636 626.460056485 1068.84510405 c 1,158,159
 664.113126619 1050.72771598 664.113126619 1050.72771598 696 1023 c 0,160,161
 783 947 783 947 787 828 c 1,86,87
EndSplineSet
EndChar

StartChar: AE
Encoding: 133 198 133
Width: 1908
GlyphClass: 2
Flags: W
LayerCount: 2
Fore
SplineSet
301 685 m 0,0,1
 297 735 297 735 338 764 c 0,2,3
 350.894512961 772.381433425 350.894512961 772.381433425 365.036039431 776.190484072 c 1,4,5
 374.590343965 839.923785408 374.590343965 839.923785408 382 908 c 0,6,7
 404 1110 404 1110 404 1325 c 0,8,9
 404 1371 404 1371 444 1397 c 0,10,11
 468 1413 468 1413 496 1412 c 0,12,13
 614 1406 614 1406 1224 1404 c 0,14,15
 1500 1404 1500 1404 1728 1459 c 0,16,17
 1776 1470 1776 1470 1811 1434 c 0,18,19
 1827 1416 1827 1416 1833 1394 c 0,20,21
 1844 1346 1844 1346 1808 1311 c 0,22,23
 1790 1295 1790 1295 1768 1289 c 0,24,25
 1511 1230 1511 1230 1224 1230 c 0,26,27
 1167.06293156 1230 1167.06293156 1230 1113.29539545 1230.12036199 c 1,28,29
 1114 1169.45179803 1114 1169.45179803 1114 1119 c 0,30,31
 1114 942.436590428 1114 942.436590428 1111.23759709 797.998903545 c 1,32,33
 1115.11054628 797.998903545 1115.11054628 797.998903545 1119 798 c 0,34,35
 1444 798 1444 798 1670 780 c 0,36,37
 1718 776 1718 776 1741 733 c 0,38,39
 1752 710 1752 710 1750 686 c 0,40,41
 1746 638 1746 638 1703 615 c 0,42,43
 1680 604 1680 604 1656 606 c 0,44,45
 1441 624 1441 624 1119 624 c 0,46,47
 1112.72619361 624 1112.72619361 624 1106.48648398 623.996260355 c 1,48,49
 1099.75693388 441.450009714 1099.75693388 441.450009714 1087 329 c 0,50,51
 1080 271 1080 271 1072 223 c 0,52,53
 1066 188 1066 188 1066 178 c 0,54,55
 1066 113 1066 113 1198 92 c 0,56,57
 1224 89 1224 89 1251 87 c 0,58,59
 1456 74 1456 74 1602 74 c 0,60,61
 1683 74 1683 74 1724 75 c 0,62,63
 1773 76 1773 76 1800 35 c 0,64,65
 1813 14 1813 14 1814 -10 c 0,66,67
 1815 -58 1815 -58 1774 -85 c 0,68,69
 1752 -98 1752 -98 1728 -99 c 0,70,71
 1684 -100 1684 -100 1602 -100 c 0,72,73
 1447 -100 1447 -100 1241 -87 c 0,74,75
 1056 -77 1056 -77 961 8 c 0,76,77
 890 74 890 74 890 173 c 0,78,79
 890 199 890 199 897 233 c 0,80,81
 920.57188098 370.04581965 920.57188098 370.04581965 931.222050961 623.086533377 c 1,82,83
 694.745114525 620.679014269 694.745114525 620.679014269 516.121670211 611.926273444 c 1,84,85
 430.052724468 185.2085937 430.052724468 185.2085937 226 -56 c 0,86,87
 195 -93 195 -93 145 -85 c 0,88,89
 122 -81 122 -81 104 -66 c 0,90,91
 67 -35 67 -35 75 15 c 0,92,93
 80 38 80 38 94 56 c 0,94,95
 258.862857841 250.302653884 258.862857841 250.302653884 337.055556576 620.112379957 c 1,96,97
 325.419912728 628.68219235 325.419912728 628.68219235 316 642 c 0,98,99
 303 662 303 662 301 685 c 0,0,1
545.667671216 788.831059547 m 1,100,101
 704.46463124 795.520457842 704.46463124 795.520457842 936.724376529 797.329461311 c 1,102,103
 940 943.462513682 940 943.462513682 940 1119 c 0,104,105
 940 1169.14388756 940 1169.14388756 939.252109025 1230.88008523 c 1,106,107
 728.550589081 1232.29793633 728.550589081 1232.29793633 578 1236 c 1,108,109
 573.41246901 994.210131343 573.41246901 994.210131343 545.667671216 788.831059547 c 1,100,101
EndSplineSet
EndChar

StartChar: Eth
Encoding: 143 208 143
Width: 1341
GlyphClass: 2
Flags: W
LayerCount: 2
Fore
SplineSet
348 1410 m 0,0,1
 451 1434 451 1434 556 1434 c 0,2,3
 899 1434 899 1434 1112 1263 c 0,4,5
 1340 1079 1340 1079 1355 745 c 0,6,7
 1356 723 1356 723 1356 701 c 0,8,9
 1356 434 1356 434 1203 227 c 0,10,11
 1061 35 1061 35 834 -37 c 0,12,13
 722 -72 722 -72 602 -72 c 0,14,15
 451 -72 451 -72 318 -20 c 0,16,17
 275 -3 275 -3 265 46 c 0,18,19
 263 60 263 60 264 73 c 0,20,21
 298.806460667 348.28746164 298.806460667 348.28746164 306.079064421 649.857241243 c 1,22,23
 201.243092538 647.902122608 201.243092538 647.902122608 94 640 c 0,24,25
 50 636 50 636 26 673 c 0,26,27
 16 690 16 690 14 708 c 0,28,29
 10 751 10 751 49 776 c 0,30,31
 66 786 66 786 84 788 c 0,32,33
 197.855040598 797.078142772 197.855040598 797.078142772 307.990064563 799.288562528 c 1,34,35
 308 805.139539351 308 805.139539351 308 811 c 0,36,37
 308 1046 308 1046 281 1309 c 0,38,39
 280 1313 280 1313 280 1316 c 0,40,41
 275 1363 275 1363 315 1394 c 0,42,43
 331 1406 331 1406 348 1410 c 0,0,1
462 1250 m 1,44,45
 482 1032 482 1032 482 811 c 0,46,47
 482 804.706270123 482 804.706270123 481.989178052 798.424865243 c 1,48,49
 572.316238563 795.652400998 572.316238563 795.652400998 660 788 c 0,50,51
 702 784 702 784 721 746 c 0,52,53
 730 727 730 727 728 708 c 0,54,55
 724 667 724 667 686 648 c 0,56,57
 667 638 667 638 647 640 c 0,58,59
 564.387596483 646.473359977 564.387596483 646.473359977 480.159831017 648.955825726 c 1,60,61
 473.8608303 375.199648795 473.8608303 375.199648795 446 126 c 1,62,63
 522 102 522 102 602 102 c 0,64,65
 822 102 822 102 981 241 c 0,66,67
 1134 374 1134 374 1171 582 c 0,68,69
 1182 641 1182 641 1182 701 c 0,70,71
 1182 1071 1182 1071 893 1198 c 0,72,73
 753 1258 753 1258 556 1258 c 0,74,75
 504 1258 504 1258 462 1250 c 1,44,45
EndSplineSet
EndChar

StartChar: multiply
Encoding: 150 215 150
Width: 872
GlyphClass: 2
Flags: W
LayerCount: 2
Fore
SplineSet
138 331 m 0,0,1
 100 362 100 362 105 411 c 0,2,3
 109 436 109 436 123 454 c 0,4,5
 214.40308137 569.909704635 214.40308137 569.909704635 322.03790825 685.819409271 c 1,6,7
 232.304479809 761.618898116 232.304479809 761.618898116 142 822 c 0,8,9
 127 832 127 832 114 840 c 0,10,11
 72 867 72 867 73 916 c 0,12,13
 74 940 74 940 86 960 c 0,14,15
 113 1002 113 1002 162 1001 c 0,16,17
 186 1000 186 1000 206 988 c 0,18,19
 324.323268204 913.733267829 324.323268204 913.733267829 443.834890511 811.738273269 c 1,20,21
 532.999880519 899.663048475 532.999880519 899.663048475 624 983 c 0,22,23
 662 1017 662 1017 711 1001 c 0,24,25
 733 993 733 993 748 977 c 0,26,27
 782 939 782 939 766 890 c 0,28,29
 758 868 758 868 742 853 c 0,30,31
 635.009521083 755.983209795 635.009521083 755.983209795 572.412605744 694.316849848 c 1,32,33
 578.704673347 688.196447177 578.704673347 688.196447177 585 682 c 0,34,35
 594 674 594 674 602 666 c 0,36,37
 739 529 739 529 790 430 c 0,38,39
 813 383 813 383 784 341 c 0,40,41
 771 322 771 322 752 312 c 0,42,43
 707 289 707 289 664 316 c 0,44,45
 644 330 644 330 634 350 c 0,46,47
 605 412 605 412 494 526 c 0,48,49
 485 535 485 535 478 542 c 0,50,51
 464.677179472 555.322820528 464.677179472 555.322820528 451.341630086 568.301961917 c 1,52,53
 353.021180429 461.350493777 353.021180429 461.350493777 261 346 c 0,54,55
 230 308 230 308 181 313 c 0,56,57
 156 317 156 317 138 331 c 0,0,1
EndSplineSet
EndChar

StartChar: Oslash
Encoding: 151 216 151
Width: 1494
GlyphClass: 2
Flags: W
LayerCount: 2
Fore
SplineSet
713 -72 m 0,0,1
 469 -72 469 -72 296 81 c 0,2,3
 290.505444943 85.8404413593 290.505444943 85.8404413593 285.144597615 90.7771522826 c 1,4,5
 234.510208878 19.5447851342 234.510208878 19.5447851342 187 -52 c 0,6,7
 169 -79 169 -79 136 -74 c 0,8,9
 126 -72 126 -72 118 -67 c 0,10,11
 91 -49 91 -49 96 -16 c 0,12,13
 98 -6 98 -6 103 2 c 0,14,15
 157.369757352 83.5546360287 157.369757352 83.5546360287 216.154752235 165.230001209 c 1,16,17
 116.671365774 291.702673157 116.671365774 291.702673157 85 467 c 0,18,19
 72 538 72 538 72 613 c 0,20,21
 72 873 72 873 206 1089 c 0,22,23
 335 1296 335 1296 542 1383 c 0,24,25
 665 1434 665 1434 799 1434 c 0,26,27
 1035.59959645 1434 1035.59959645 1434 1198.75426072 1262.03137831 c 1,28,29
 1260.21178089 1319.59935179 1260.21178089 1319.59935179 1325 1378 c 0,30,31
 1349 1400 1349 1400 1380 1387 c 0,32,33
 1390 1382 1390 1382 1396 1375 c 0,34,35
 1418 1351 1418 1351 1405 1320 c 0,36,37
 1400 1310 1400 1310 1393 1304 c 0,38,39
 1326.72634392 1243.86671461 1326.72634392 1243.86671461 1262.98572542 1184.1257138 c 1,40,41
 1367.63931044 1037.29151132 1367.63931044 1037.29151132 1400 834 c 0,42,43
 1412 759 1412 759 1412 684 c 0,44,45
 1412 408 1412 408 1262 204 c 0,46,47
 1122 15 1122 15 901 -47 c 0,48,49
 810 -72 810 -72 713 -72 c 0,0,1
713 102 m 0,50,51
 917 102 917 102 1060 236 c 0,52,53
 1209 375 1209 375 1234 602 c 0,54,55
 1238 643 1238 643 1238 684 c 0,56,57
 1238 903.81612982 1238 903.81612982 1134.80321382 1061.89846791 c 1,58,59
 696.291454593 636.312943614 696.291454593 636.312943614 388.079706621 230.906624602 c 1,60,61
 517.109648969 102.984373624 517.109648969 102.984373624 713 102 c 0,50,51
1071.94936066 1141.3854754 m 1,62,63
 981.667723769 1234.0325577 981.667723769 1234.0325577 858 1253 c 0,64,65
 829 1258 829 1258 799 1258 c 0,66,67
 603 1258 603 1258 452 1115 c 0,68,69
 308 977 308 977 264 766 c 0,70,71
 248 690 248 690 248 613 c 0,72,73
 248 435.647227252 248 435.647227252 324.805243037 311.380431309 c 1,74,75
 641.953668472 724.840119627 641.953668472 724.840119627 1071.94936066 1141.3854754 c 1,62,63
EndSplineSet
EndChar

StartChar: germandbls
Encoding: 158 223 158
Width: 1124
GlyphClass: 2
Flags: W
LayerCount: 2
Fore
SplineSet
561 1434 m 0,0,1
 729 1434 729 1434 833 1305 c 0,2,3
 914 1203 914 1203 920 1075 c 0,4,5
 920 1067 920 1067 920 1060 c 0,6,7
 920 910 920 910 849 821 c 0,8,9
 821 787 821 787 779 754 c 0,10,11
 699 689 699 689 698 626 c 0,12,13
 698 580 698 580 757 546 c 0,14,15
 766 540 766 540 778 534 c 0,16,17
 938 453 938 453 1002 355 c 0,18,19
 1052 276 1052 276 1052 182 c 0,20,21
 1052 41 1052 41 896 -29 c 0,22,23
 794 -74 794 -74 672 -74 c 0,24,25
 542 -73 542 -73 450 -23 c 0,26,27
 407 2 407 2 406 51 c 0,28,29
 406 76 406 76 417 96 c 0,30,31
 453 156 453 156 524 131 c 1,32,33
 592 100 592 100 673 100 c 0,34,35
 780 100 780 100 840 141 c 0,36,37
 874 165 874 165 875 196 c 0,38,39
 875 273 875 273 758 344 c 0,40,41
 732 360 732 360 698 378 c 0,42,43
 536 463 536 463 525 598 c 0,44,45
 524 609 524 609 524 619 c 0,46,47
 525 771 525 771 669 890 c 0,48,49
 723 934 723 934 736 982 c 0,50,51
 744 1012 744 1012 744 1060 c 0,52,53
 744 1146 744 1146 685 1206 c 0,54,55
 633 1258 633 1258 561 1258 c 0,56,57
 435 1258 435 1258 390 1094 c 0,58,59
 379 1052 379 1052 372 1000 c 0,60,61
 336 721 336 721 291 56 c 0,62,63
 288 8 288 8 287 -2 c 0,64,65
 283 -51 283 -51 240 -74 c 0,66,67
 218 -85 218 -85 194 -83 c 0,68,69
 145 -79 145 -79 122 -36 c 0,70,71
 111 -14 111 -14 113 10 c 0,72,73
 160 705 160 705 200 1022 c 0,74,75
 235 1290 235 1290 391 1387 c 0,76,77
 466 1434 466 1434 561 1434 c 0,0,1
EndSplineSet
EndChar

StartChar: ae
Encoding: 165 230 165
Width: 1885
GlyphClass: 2
Flags: W
LayerCount: 2
Fore
SplineSet
1781 784 m 0,0,1
 1781 576 1781 576 1548 462 c 0,2,3
 1393 386 1393 386 1200 374 c 0,4,5
 1175 372 1175 372 1153 372 c 0,6,7
 1111.45153773 372 1111.45153773 372 1055.58405292 376.662007338 c 1,8,9
 1071.48491389 171.745466293 1071.48491389 171.745466293 1247 119 c 0,10,11
 1303 102 1303 102 1372 102 c 0,12,13
 1507 102 1507 102 1623 170 c 0,14,15
 1655 190 1655 190 1680 212 c 0,16,17
 1718 246 1718 246 1767 230 c 0,18,19
 1789 222 1789 222 1804 206 c 0,20,21
 1838 168 1838 168 1822 119 c 0,22,23
 1814 97 1814 97 1798 82 c 0,24,25
 1662 -42 1662 -42 1455 -67 c 0,26,27
 1414 -72 1414 -72 1372 -72 c 0,28,29
 1165 -72 1165 -72 1031 49 c 0,30,31
 975.612774361 98.5183805381 975.612774361 98.5183805381 940.541739212 161.491191864 c 1,32,33
 911.819861792 116.76615779 911.819861792 116.76615779 877 79 c 0,34,35
 739 -72 739 -72 529 -72 c 0,36,37
 338 -72 338 -72 209 65 c 0,38,39
 94 187 94 187 75 362 c 0,40,41
 72 391 72 391 72 419 c 0,42,43
 72 600 72 600 162 775 c 0,44,45
 260 968 260 968 418 1045 c 0,46,47
 507 1088 507 1088 604 1088 c 0,48,49
 758 1088 758 1088 879 990 c 0,50,51
 885 985 885 985 891 980 c 0,52,53
 929 947 929 947 918 897 c 0,54,55
 913 873 913 873 898 856 c 0,56,57
 864 818 864 818 815 828 c 0,58,59
 793 834 793 834 776 848 c 0,60,61
 712 905 712 905 624 913 c 0,62,63
 613 914 613 914 604 914 c 0,64,65
 488 914 488 914 386 793 c 0,66,67
 286 676 286 676 257 516 c 0,68,69
 248 466 248 466 248 419 c 0,70,71
 248 277 248 277 335 185 c 0,72,73
 415 102 415 102 529 102 c 0,74,75
 741 102 741 102 837 341 c 0,76,77
 864 409 864 409 880 490 c 0,78,79
 912 659 912 659 952 966 c 0,80,81
 958 1013 958 1013 1001 1034 c 0,82,83
 1025 1045 1025 1045 1049 1042 c 0,84,85
 1095 1036 1095 1036 1116 993 c 0,86,87
 1122.67161282 978.443753848 1122.67161282 978.443753848 1124.19325996 963.519653009 c 1,88,89
 1189.50957783 1018.78716777 1189.50957783 1018.78716777 1268 1051 c 0,90,91
 1359 1088 1359 1088 1457 1088 c 0,92,93
 1580 1088 1580 1088 1675 1007 c 0,94,95
 1779 915 1779 915 1781 784 c 0,0,1
1070.37754301 550.372808829 m 1,96,97
 1110.62100753 548 1110.62100753 548 1153 548 c 0,98,99
 1297 548 1297 548 1439 613 c 0,100,101
 1571 673 1571 673 1600 750 c 0,102,103
 1606 768 1606 768 1606 784 c 0,104,105
 1606 839 1606 839 1553 880 c 0,106,107
 1509 914 1509 914 1457 914 c 0,108,109
 1315 914 1315 914 1200 793 c 0,110,111
 1103.88827422 690.772073489 1103.88827422 690.772073489 1070.37754301 550.372808829 c 1,96,97
EndSplineSet
EndChar

StartChar: eth
Encoding: 175 240 175
Width: 1089
GlyphClass: 2
Flags: W
LayerCount: 2
Fore
SplineSet
536 -72 m 0,0,1
 286 -72 286 -72 158 104 c 0,2,3
 62 237 62 237 62 427 c 0,4,5
 62 616 62 616 179 760 c 0,6,7
 295 902 295 902 475 934 c 0,8,9
 519 942 519 942 565 942 c 0,10,11
 614 942 614 942 640 899 c 0,12,13
 652 878 652 878 652 854 c 0,14,15
 652 805 652 805 610 779 c 0,16,17
 589 766 589 766 565 766 c 0,18,19
 421 766 421 766 327 664 c 0,20,21
 238 567 238 567 238 427 c 0,22,23
 240 103 240 103 536 102 c 0,24,25
 851 104 851 104 852 525 c 0,26,27
 852 710 852 710 754 894 c 0,28,29
 677.375759587 1036.73142822 677.375759587 1036.73142822 555.85604798 1143.59664202 c 0,30,31
 553.93299104 1142.30285299 553.93299104 1142.30285299 552 1141 c 0,32,33
 354 1008 354 1008 293 941 c 0,34,35
 259 903 259 903 209 915 c 0,36,37
 186 920 186 920 169 935 c 0,38,39
 131 969 131 969 143 1019 c 0,40,41
 148 1042 148 1042 163 1059 c 0,42,43
 238.284862551 1142.46799978 238.284862551 1142.46799978 399.952943235 1255.40004296 c 1,44,45
 338.385657117 1291.32300208 338.385657117 1291.32300208 269 1321 c 0,46,47
 247 1330 247 1330 226 1338 c 0,48,49
 183 1355 183 1355 173 1401 c 0,50,51
 167 1427 167 1427 176 1451 c 0,52,53
 193 1494 193 1494 238 1505 c 0,54,55
 264 1511 264 1511 288 1502 c 0,56,57
 438.691283084 1444.24775699 438.691283084 1444.24775699 560.5654814 1360.89658081 c 1,58,59
 717.379678654 1457.39166794 717.379678654 1457.39166794 816 1490 c 0,60,61
 865 1505 865 1505 902 1471 c 0,62,63
 919 1454 919 1454 926 1433 c 0,64,65
 941 1385 941 1385 907 1347 c 0,66,67
 891 1329 891 1329 869 1322 c 0,68,69
 813.942152548 1304.8708919 813.942152548 1304.8708919 707.613043422 1240.96143557 c 1,70,71
 806.607664464 1144.79645373 806.607664464 1144.79645373 879 1025 c 0,72,73
 1011 806 1011 806 1025 569 c 0,74,75
 1026 546 1026 546 1026 525 c 0,76,77
 1026 234 1026 234 881 73 c 0,78,79
 750 -72 750 -72 536 -72 c 0,0,1
EndSplineSet
EndChar

StartChar: oslash
Encoding: 183 248 183
Width: 1144
GlyphClass: 2
Flags: W
LayerCount: 2
Fore
SplineSet
593 914 m 0,0,1
 446 914 446 914 357 785 c 0,2,3
 274 665 274 665 274 486 c 0,4,5
 274 373.644961609 274 373.644961609 313.256903325 286.892251473 c 1,6,7
 473.68669441 507.460475961 473.68669441 507.460475961 657 725 c 0,8,9
 712.102790915 790.284828367 712.102790915 790.284828367 764.066666576 848.664043175 c 1,10,11
 691.034266421 913.209401077 691.034266421 913.209401077 593 914 c 0,0,1
108 -102 m 0,12,13
 80 -84 80 -84 86 -51 c 0,14,15
 89 -41 89 -41 93 -34 c 0,16,17
 145.964619574 48.0097335347 145.964619574 48.0097335347 202.030778285 129.608969243 c 1,18,19
 118.810544882 251.256660155 118.810544882 251.256660155 102 416 c 0,20,21
 98 452 98 452 98 486 c 0,22,23
 98 692 98 692 194 854 c 0,24,25
 306 1043 306 1043 502 1080 c 0,26,27
 547 1088 547 1088 593 1088 c 0,28,29
 764.700673275 1088 764.700673275 1088 883.269208391 977.800009743 c 1,30,31
 938.708364718 1035.46227802 938.708364718 1035.46227802 990 1084 c 0,32,33
 1013 1106 1013 1106 1044 1093 c 0,34,35
 1053 1088 1053 1088 1060 1081 c 0,36,37
 1082 1056 1082 1056 1069 1025 c 0,38,39
 1064 1016 1064 1016 1058 1010 c 0,40,41
 1005.03378313 959.63212584 1005.03378313 959.63212584 949.630675857 902.073427566 c 1,42,43
 1044.04832373 772.551155749 1044.04832373 772.551155749 1059 595 c 0,44,45
 1062 566 1062 566 1062 538 c 0,46,47
 1062 343 1062 343 968 179 c 0,48,49
 864 -2 864 -2 693 -54 c 0,50,51
 632 -72 632 -72 566 -72 c 0,52,53
 391.229855836 -72 391.229855836 -72 267.881602735 50.3217711632 c 1,54,55
 220.206644841 -19.1325734599 220.206644841 -19.1325734599 177 -86 c 0,56,57
 159 -113 159 -113 127 -109 c 0,58,59
 116 -107 116 -107 108 -102 c 0,12,13
370.915586891 196.256872181 m 1,60,61
 452.443838338 102.970565483 452.443838338 102.970565483 566 102 c 0,62,63
 688 102 688 102 780 214 c 0,64,65
 875 330 875 330 887 499 c 0,66,67
 888 519 888 519 888 538 c 0,68,69
 888 672.90030716 888 672.90030716 828.410475372 770.814012826 c 1,70,71
 658.196412332 579.364570943 658.196412332 579.364570943 467 326 c 0,72,73
 417.206273169 260.114398034 417.206273169 260.114398034 370.915586891 196.256872181 c 1,60,61
EndSplineSet
EndChar

StartChar: thorn
Encoding: 189 254 189
Width: 1166
GlyphClass: 2
Flags: W
LayerCount: 2
Fore
SplineSet
624 1088 m 0,0,1
 836 1088 836 1088 967 920 c 0,2,3
 1074 785 1074 785 1090 595 c 0,4,5
 1093 566 1093 566 1093 538 c 0,6,7
 1093 343 1093 343 999 179 c 0,8,9
 895 -2 895 -2 724 -54 c 0,10,11
 663 -72 663 -72 597 -72 c 0,12,13
 419.66499419 -72 419.66499419 -72 295.272251488 53.9384137543 c 1,14,-1
 287 -366 l 2,15,16
 286 -415 286 -415 244 -440 c 0,17,18
 222 -452 222 -452 198 -452 c 0,19,20
 149 -451 149 -451 124 -409 c 0,21,22
 113 -388 113 -388 113 -364 c 2,23,-1
 129.346345786 465.817436089 l 2,24,25
 129 475.995304491 129 475.995304491 129 486 c 0,26,27
 129 514.639045217 129 514.639045217 130.855469683 542.42766683 c 2,28,-1
 147 1362 l 2,29,30
 148 1411 148 1411 190 1436 c 0,31,32
 212 1448 212 1448 236 1448 c 0,33,34
 285 1447 285 1447 310 1405 c 0,35,36
 321 1384 321 1384 321 1360 c 2,37,-1
 313.263721045 967.270074248 l 1,38,39
 405.304426745 1055.89420301 405.304426745 1055.89420301 533 1080 c 0,40,41
 578 1088 578 1088 624 1088 c 0,0,1
624 914 m 0,42,43
 477 914 477 914 388 785 c 0,44,45
 305 665 305 665 305 486 c 0,46,47
 305 314 305 314 397 202 c 0,48,49
 480 103 480 103 597 102 c 0,50,51
 719 102 719 102 811 214 c 0,52,53
 906 330 906 330 918 499 c 0,54,55
 919 519 919 519 919 538 c 0,56,57
 919 701 919 701 832 810 c 0,58,59
 748 913 748 913 624 914 c 0,42,43
EndSplineSet
EndChar

StartChar: dotlessi
Encoding: 191 305 191
Width: 415
GlyphClass: 2
Flags: W
LayerCount: 2
Fore
SplineSet
219 1058 m 0,0,1
 268 1056 268 1056 292 1012 c 0,2,3
 303 991 303 991 302 967 c 0,4,5
 288 673 288 673 288 0 c 0,6,7
 288 -49 288 -49 245 -75 c 0,8,9
 224 -87 224 -87 200 -87 c 0,10,11
 151 -87 151 -87 126 -45 c 0,12,13
 113 -24 113 -24 113 0 c 0,14,15
 113 649 113 649 128 975 c 0,16,17
 130 1024 130 1024 174 1048 c 0,18,19
 195 1059 195 1059 219 1058 c 0,0,1
EndSplineSet
EndChar

StartChar: OE
Encoding: 192 338 192
Width: 2327
GlyphClass: 2
Flags: W
LayerCount: 2
Fore
SplineSet
696 102 m 0,0,1
 993 102 993 102 1111 398 c 0,2,3
 1161.12601631 523.039623099 1161.12601631 523.039623099 1183.64085196 712.707615846 c 1,4,5
 1180.03676079 728.639679908 1180.03676079 728.639679908 1182 745 c 0,6,7
 1183.9420666 759.889177253 1183.9420666 759.889177253 1189.86528925 772.054404909 c 1,8,9
 1202.00000121 904.325588947 1202.00000121 904.325588947 1202 1065 c 0,10,11
 1202 1196 1202 1196 1196 1325 c 0,12,13
 1193 1376 1193 1376 1239 1403 c 0,14,15
 1266 1419 1266 1419 1294 1416 c 0,16,17
 1687 1363 1687 1363 1856 1360 c 0,18,19
 1873 1360 1873 1360 1889 1360 c 0,20,21
 2030 1360 2030 1360 2128 1384 c 0,22,23
 2175 1394 2175 1394 2211 1359 c 0,24,25
 2229 1341 2229 1341 2234 1318 c 0,26,27
 2244 1271 2244 1271 2209 1235 c 0,28,29
 2191 1217 2191 1217 2168 1212 c 0,30,31
 2039 1184 2039 1184 1889 1184 c 0,32,33
 1719 1184 1719 1184 1374 1229 c 1,34,35
 1378 1123 1378 1123 1378 1065 c 0,36,37
 1378 927.46774008 1378 927.46774008 1368.56271739 806.876553333 c 1,38,39
 1511.89435357 792 1511.89435357 792 1701 792 c 0,40,41
 1875 792 1875 792 1991 808 c 0,42,43
 2039 814 2039 814 2070 775 c 0,44,45
 2085 755 2085 755 2088 732 c 0,46,47
 2094 683 2094 683 2055 652 c 0,48,49
 2036 637 2036 637 2013 634 c 0,50,51
 1865 616 1865 616 1701 616 c 0,52,53
 1521.27363311 616 1521.27363311 616 1348.93878819 634.478804917 c 1,54,55
 1300.81484326 321.211962003 1300.81484326 321.211962003 1173 151 c 0,56,57
 1004 -71 1004 -71 696 -72 c 0,58,59
 470 -72 470 -72 301 84 c 0,60,61
 142 232 142 232 91 463 c 0,62,63
 72 551 72 551 72 643 c 0,64,65
 72 878 72 878 182 1085 c 0,66,67
 293 1296 293 1296 474 1383 c 0,68,69
 581 1434 581 1434 699 1434 c 0,70,71
 894 1434 894 1434 1036 1289 c 0,72,73
 1062 1262 1062 1262 1084 1232 c 0,74,75
 1113 1192 1113 1192 1092 1145 c 0,76,77
 1082 1123 1082 1123 1064 1110 c 0,78,79
 1024 1081 1024 1081 977 1102 c 0,80,81
 955 1112 955 1112 942 1130 c 0,82,83
 848 1257 848 1257 699 1258 c 0,84,85
 547 1258 547 1258 423 1122 c 0,86,87
 299 987 299 987 261 784 c 0,88,89
 248 714 248 714 248 643 c 0,90,91
 248 417 248 417 372 263 c 0,92,93
 481 129 481 129 639 106 c 0,94,95
 668 102 668 102 696 102 c 0,0,1
1234 125 m 0,96,97
 1244 169 1244 169 1288 187 c 0,98,99
 1313 197 1313 197 1338 192 c 0,100,101
 1586 136 1586 136 1849 136 c 0,102,103
 2004 136 2004 136 2154 158 c 0,104,105
 2202 165 2202 165 2235 126 c 0,106,107
 2250 107 2250 107 2254 84 c 0,108,109
 2261 36 2261 36 2222 3 c 0,110,111
 2203 -12 2203 -12 2180 -16 c 0,112,113
 2020 -40 2020 -40 1849 -40 c 0,114,115
 1570 -40 1570 -40 1300 20 c 0,116,117
 1256 29 1256 29 1239 73 c 0,118,119
 1229 100 1229 100 1234 125 c 0,96,97
EndSplineSet
EndChar

StartChar: uni0237
Encoding: 194 567 194
Width: 404
GlyphClass: 2
Flags: W
LayerCount: 2
Fore
SplineSet
201 1058 m 0,0,1
 250 1058 250 1058 275 1016 c 0,2,3
 288 995 288 995 288 971 c 0,4,5
 288 446 288 446 280 222 c 0,6,7
 267 -121 267 -121 223 -269 c 0,8,9
 167 -455 167 -455 32 -492 c 0,10,11
 -6 -502 -6 -502 -50 -502 c 0,12,13
 -99 -502 -99 -502 -125 -459 c 0,14,15
 -137 -438 -137 -438 -137 -414 c 0,16,17
 -137 -365 -137 -365 -95 -339 c 0,18,19
 -74 -326 -74 -326 -50 -326 c 0,20,21
 21 -326 21 -326 55 -229 c 0,22,23
 94 -115 94 -115 106 228 c 0,24,25
 114 449 114 449 114 971 c 0,26,27
 114 1020 114 1020 156 1045 c 0,28,29
 177 1058 177 1058 201 1058 c 0,0,1
EndSplineSet
EndChar

StartChar: uni060C
Encoding: 195 1548 195
Width: 644
GlyphClass: 2
Flags: W
LayerCount: 2
Fore
SplineSet
335 -21 m 0,0,1
 232 -21 232 -21 179 66 c 0,2,3
 144 124 144 124 144 204 c 0,4,5
 144 388 144 388 254 545 c 0,6,7
 287 592 287 592 326 630 c 0,8,9
 344 648 344 648 369 636 c 0,10,11
 374 632 374 632 378 629 c 0,12,13
 396 611 396 611 382 586 c 0,14,15
 379 581 379 581 376 578 c 0,16,17
 264.782108145 469.683444454 264.782108145 469.683444454 229.323988302 317.407515232 c 1,18,19
 260.434109906 357.008171261 260.434109906 357.008171261 322 362 c 0,20,21
 329 363 329 363 335 363 c 0,22,23
 424 363 424 363 472 278 c 0,24,25
 500 226 500 226 500 168 c 0,26,27
 500 74 500 74 443 20 c 0,28,29
 399 -21 399 -21 335 -21 c 0,0,1
219.551794266 262.282804085 m 1,30,31
 215.999999999 232.979956848 215.999999999 232.979956848 216 204 c 0,32,33
 216 77 216 77 302 55 c 0,34,35
 318 51 318 51 335 51 c 0,36,37
 402 51 402 51 422 120 c 0,38,39
 428 142 428 142 428 168 c 0,40,41
 428 236 428 236 384 272 c 0,42,43
 361 291 361 291 335 291 c 0,44,45
 302 291 302 291 284 271 c 0,46,47
 281 268 281 268 280 266 c 0,48,49
 266 242 266 242 241 248 c 0,50,51
 236 250 236 250 232 252 c 0,52,53
 224.185712533 256.558334356 224.185712533 256.558334356 219.551794266 262.282804085 c 1,30,31
EndSplineSet
EndChar

StartChar: uni061F
Encoding: 198 1567 198
Width: 1105
GlyphClass: 2
Flags: W
LayerCount: 2
Fore
SplineSet
456 89 m 0,0,1
 456 155 456 155 508 196 c 0,2,3
 543 222 543 222 587 222 c 0,4,5
 656 222 656 222 696 166 c 0,6,7
 720 131 720 131 720 89 c 0,8,9
 720 21 720 21 663 -19 c 0,10,11
 628 -42 628 -42 587 -42 c 0,12,13
 520 -42 520 -42 481 12 c 0,14,15
 456 47 456 47 456 89 c 0,0,1
774 833 m 0,16,17
 733 857 733 857 731 906 c 0,18,19
 730 932 730 932 742 952 c 0,20,21
 761 987 761 987 767 1047 c 0,22,23
 768 1057 768 1057 768 1066 c 0,24,25
 768 1163 768 1163 698 1206 c 0,26,27
 663 1228 663 1228 617 1228 c 0,28,29
 483 1228 483 1228 398 1129 c 0,30,31
 338 1060 338 1060 338 989 c 0,32,33
 338 932 338 932 438 845 c 0,34,35
 456 829 456 829 480 809 c 0,36,37
 601 709 601 709 645 623 c 0,38,39
 681 552 681 552 682 473 c 0,40,41
 682 421 682 421 639 395 c 0,42,43
 619 384 619 384 596 384 c 0,44,45
 540 384 540 384 516 430 c 0,46,47
 508 449 508 449 507 469 c 0,48,49
 505 547 505 547 435 617 c 0,50,51
 407 645 407 645 366 677 c 0,52,53
 265 757 265 757 222 815 c 0,54,55
 162 897 162 897 162 983 c 0,56,57
 162 1110 162 1110 250 1225 c 0,58,59
 354 1361 354 1361 520 1395 c 0,60,61
 568 1404 568 1404 617 1404 c 0,62,63
 756 1404 756 1404 850 1304 c 0,64,65
 942 1205 942 1205 942 1066 c 0,66,67
 942 945 942 945 894 864 c 0,68,69
 870 823 870 823 820 821 c 0,70,71
 795 821 795 821 774 833 c 0,16,17
EndSplineSet
EndChar

StartChar: uni0660
Encoding: 250 1632 250
Width: 737
GlyphClass: 2
Flags: W
LayerCount: 2
Fore
SplineSet
95 395 m 0,0,1
 95 515 95 515 192 594 c 0,2,3
 278 664 278 664 392 664 c 0,4,5
 508 664 508 664 582 576 c 0,6,7
 642 502 642 502 642 404 c 0,8,9
 642 287 642 287 566 201 c 0,10,11
 489 116 489 116 380 115 c 0,12,13
 261 115 261 115 176 201 c 0,14,15
 95 284 95 284 95 395 c 0,0,1
225 395 m 0,16,17
 225 330 225 330 281 283 c 0,18,19
 326 245 326 245 380 245 c 0,20,21
 437 245 437 245 478 300 c 0,22,23
 512 346 512 346 512 404 c 0,24,25
 512 485 512 485 453 519 c 0,26,27
 425 534 425 534 392 534 c 0,28,29
 305 534 305 534 255 473 c 0,30,31
 225 437 225 437 225 395 c 0,16,17
EndSplineSet
EndChar

StartChar: uni0661
Encoding: 251 1633 251
Width: 580
GlyphClass: 2
Flags: W
LayerCount: 2
Fore
SplineSet
152 1254 m 0,0,1
 199 1271 199 1271 238 1237 c 0,2,3
 255 1221 255 1221 263 1200 c 0,4,5
 390 831 390 831 435 605 c 0,6,7
 488 332 488 332 488 0 c 0,8,9
 488 -49 488 -49 445 -75 c 0,10,11
 424 -87 424 -87 400 -87 c 0,12,13
 351 -87 351 -87 326 -45 c 0,14,15
 313 -24 313 -24 313 0 c 0,16,17
 313 367 313 367 243 661 c 0,18,19
 203 833 203 833 97 1142 c 0,20,21
 80 1189 80 1189 114 1228 c 0,22,23
 131 1246 131 1246 152 1254 c 0,0,1
EndSplineSet
EndChar

StartChar: uni0662
Encoding: 252 1634 252
Width: 1014
GlyphClass: 2
Flags: W
LayerCount: 2
Fore
SplineSet
146 1246 m 0,0,1
 193 1265 193 1265 233 1234 c 0,2,3
 240.943396367 1227.38050303 240.943396367 1227.38050303 247.134084321 1219.78727947 c 0,4,5
 256.609867143 1208.80156173 256.609867143 1208.80156173 262 1196 c 0,6,7
 357 953 357 953 414 867 c 0,8,9
 488 757 488 757 572 756 c 0,10,11
 719 756 719 756 755 1015 c 0,12,13
 766 1095 766 1095 766 1196 c 0,14,15
 766 1244 766 1244 808 1271 c 0,16,17
 830 1284 830 1284 854 1284 c 0,18,19
 902 1284 902 1284 929 1242 c 0,20,21
 942 1220 942 1220 942 1196 c 0,22,23
 942 899 942 899 839 733 c 0,24,25
 744 583 744 583 578 582 c 0,26,27
 518.274265053 582 518.274265053 582 463.63537331 603.341353677 c 1,28,29
 479.316879005 540.373237845 479.316879005 540.373237845 491 481 c 0,30,31
 539 239 539 239 539 0 c 0,32,33
 539 -49 539 -49 496 -75 c 0,34,35
 475 -87 475 -87 451 -87 c 0,36,37
 402 -87 402 -87 377 -45 c 0,38,39
 364 -24 364 -24 364 0 c 0,40,41
 364 405 364 405 209 848 c 0,42,43
 196.657045286 883.345733953 196.657045286 883.345733953 182.661549201 921.130932796 c 0,44,45
 176.774122075 933.827785354 176.774122075 933.827785354 171 947 c 0,46,47
 150 993 150 993 98 1134 c 0,48,49
 88.2047700859 1159.92854977 88.2047700859 1159.92854977 94.6772905009 1184.19712506 c 0,50,51
 98.7608308932 1201.68110742 98.7608308932 1201.68110742 111 1218 c 0,52,53
 125 1237 125 1237 146 1246 c 0,0,1
EndSplineSet
EndChar

StartChar: uni0663
Encoding: 253 1635 253
Width: 1285
GlyphClass: 2
Flags: W
LayerCount: 2
Fore
SplineSet
1106 1303 m 0,0,1
 1154 1307 1154 1307 1184 1267 c 0,2,3
 1198 1246 1198 1246 1200 1223 c 0,4,5
 1209 1124 1209 1124 1209 1040 c 0,6,7
 1208 581 1208 581 940 580 c 0,8,9
 797.719122254 580 797.719122254 580 719.414640628 694.949459694 c 1,10,11
 661.638127149 596.996389579 661.638127149 596.996389579 551 583 c 0,12,13
 530 580 530 580 509 580 c 0,14,15
 470.839795718 580 470.839795718 580 436.634868551 588.643012953 c 1,16,17
 446.4278769 542.26927485 446.4278769 542.26927485 454 499 c 0,18,19
 497 255 497 255 497 0 c 0,20,21
 497 -49 497 -49 454 -75 c 0,22,23
 433 -87 433 -87 409 -87 c 0,24,25
 360 -87 360 -87 335 -45 c 0,26,27
 322 -24 322 -24 322 0 c 0,28,29
 322 370 322 370 221 742 c 0,30,31
 177 901 177 901 97 1131 c 0,32,33
 80 1178 80 1178 114 1217 c 0,34,35
 130 1235 130 1235 151 1243 c 0,36,37
 166.666666667 1248.66666667 166.666666667 1248.66666667 181.444444444 1248.66666667 c 0,38,39
 211 1248.66666667 211 1248.66666667 237 1226 c 0,40,41
 255 1210 255 1210 263 1189 c 0,42,43
 367 889 367 889 415 815 c 1,44,45
 459 759 459 759 506 756 c 0,46,47
 570 756 570 756 594 824 c 0,48,49
 623 903 623 903 623 1166 c 0,50,51
 623 1196.63745787 623 1196.63745787 635.134028839 1217.16322498 c 0,52,53
 645.304600052 1234.51233628 645.304600052 1234.51233628 664 1245 c 0,54,55
 681 1254 681 1254 700 1254 c 0,56,57
 735.310995455 1254 735.310995455 1254 758.158520007 1231.66961464 c 0,58,59
 767.528832446 1223.06880917 767.528832446 1223.06880917 775 1211 c 0,60,61
 788 1190 788 1190 788 1166 c 0,62,63
 788 860 788 860 856 786 c 0,64,65
 885 756 885 756 927 756 c 0,66,67
 1036 758 1036 758 1036 1008 c 0,68,69
 1036 1086 1036 1086 1026 1209 c 0,70,71
 1022 1258 1022 1258 1063 1287 c 0,72,73
 1083 1301 1083 1301 1106 1303 c 0,0,1
EndSplineSet
EndChar

StartChar: uni0664
Encoding: 254 1636 254
Width: 1037
GlyphClass: 2
Flags: W
LayerCount: 2
Fore
SplineSet
738 1182 m 0,0,1
 738 1134 738 1134 696 1107 c 0,2,3
 674 1094 674 1094 650 1094 c 0,4,5
 485 1094 485 1094 370 1032 c 0,6,7
 273 978 273 978 272 905 c 0,8,9
 272 822 272 822 374 743 c 0,10,11
 446.805051019 688.396211736 446.805051019 688.396211736 528.786998461 665.911560933 c 0,12,13
 537.935796992 664.3702709 537.935796992 664.3702709 546.774345224 660.524267705 c 0,14,15
 582.995644648 646.636707745 582.995644648 646.636707745 597 609 c 0,16,17
 598.081394528 605.875971365 598.081394528 605.875971365 598.946231665 602.766380173 c 0,18,19
 608.006590245 573.613336656 608.006590245 573.613336656 596.524267705 547.225654776 c 0,20,21
 582.636707745 511.004355352 582.636707745 511.004355352 545 497 c 0,22,23
 543.456202587 496.465608588 543.456202587 496.465608588 541.915930707 495.984101468 c 0,24,25
 400.434398543 439.399216228 400.434398543 439.399216228 313 350 c 0,26,27
 249 283 249 283 248 226 c 0,28,29
 248 140 248 140 378 115 c 0,30,31
 445 102 445 102 560 102 c 0,32,33
 719 102 719 102 832 146 c 0,34,35
 838 148 838 148 842 150 c 0,36,37
 888 170 888 170 930 139 c 0,38,39
 949 124 949 124 958 104 c 0,40,41
 978 57 978 57 946 16 c 0,42,43
 932 -1 932 -1 912 -10 c 0,44,45
 767 -72 767 -72 537 -72 c 0,46,47
 73 -70 73 -70 72 211 c 0,48,49
 72 394 72 394 275 545 c 0,50,51
 294.372915972 559.126084563 294.372915972 559.126084563 314.397411584 572.234075936 c 1,52,53
 284.113949094 591.656383158 284.113949094 591.656383158 255 615 c 0,54,55
 97 743 97 743 96 905 c 0,56,57
 96 1102 96 1102 314 1201 c 0,58,59
 459 1267 459 1267 637 1270 c 0,60,61
 644 1270 644 1270 650 1270 c 0,62,63
 698 1270 698 1270 725 1228 c 0,64,65
 738 1206 738 1206 738 1182 c 0,0,1
EndSplineSet
EndChar

StartChar: uni0665
Encoding: 255 1637 255
Width: 1150
GlyphClass: 2
Flags: W
LayerCount: 2
Fore
SplineSet
583 -72 m 0,0,1
 360 -72 360 -72 219 38 c 0,2,3
 73 153 73 153 72 348 c 0,4,5
 72.8553751087 656.790414256 72.8553751087 656.790414256 428.569039897 989.725825543 c 1,6,7
 351.549426283 1051.09618406 351.549426283 1051.09618406 262 1115 c 0,8,9
 221 1144 221 1144 225 1194 c 0,10,11
 228 1217 228 1217 241 1236 c 0,12,13
 270 1277 270 1277 320 1273 c 0,14,15
 343 1270 343 1270 362 1257 c 0,16,17
 475.277926683 1176.87658844 475.277926683 1176.87658844 564.383150124 1107.14319844 c 1,18,19
 601.286739843 1133.69899883 601.286739843 1133.69899883 646 1116 c 0,20,21
 668 1107 668 1107 682 1090 c 0,22,23
 714 1051 714 1051 696 1003 c 0,24,25
 695.282619472 1001.24640315 695.282619472 1001.24640315 694.51441083 999.543634457 c 0,26,27
 718.736326059 978.136054833 718.736326059 978.136054833 740 958 c 0,28,29
 1077 638 1077 638 1078 332 c 0,30,31
 1078 117 1078 117 902 9 c 0,32,33
 771 -72 771 -72 583 -72 c 0,0,1
564.330447956 874.745206108 m 1,34,35
 436.594108179 754.949884541 436.594108179 754.949884541 353 631 c 0,36,37
 248 473 248 473 248 348 c 0,38,39
 248 181 248 181 412 126 c 0,40,41
 484 102 484 102 583 102 c 0,42,43
 899 106 899 106 902 332 c 0,44,45
 901.274061331 569.381944718 901.274061331 569.381944718 564.330447956 874.745206108 c 1,34,35
EndSplineSet
EndChar

StartChar: uni0666
Encoding: 256 1638 256
Width: 1136
GlyphClass: 2
Flags: W
LayerCount: 2
Fore
SplineSet
74 1142 m 0,0,1
 66 1191 66 1191 105 1223 c 0,2,3
 124 1238 124 1238 146 1242 c 0,4,5
 279 1264 279 1264 412 1264 c 0,6,7
 758 1264 758 1264 855 1044 c 0,8,9
 890 963 890 963 890 856 c 0,10,11
 890 528 890 528 914 388 c 0,12,13
 938 252 938 252 1020 72 c 0,14,15
 1027 54 1027 54 1036 36 c 0,16,17
 1057 -11 1057 -11 1027 -52 c 0,18,19
 1013 -71 1013 -71 993 -80 c 0,20,21
 947 -101 947 -101 904 -71 c 0,22,23
 886 -56 886 -56 876 -36 c 0,24,25
 776 179 776 179 744 352 c 0,26,27
 714 522 714 522 714 856 c 0,28,29
 714 991 714 991 653 1039 c 0,30,31
 594 1086 594 1086 432 1088 c 0,32,33
 422 1088 422 1088 412 1088 c 0,34,35
 282 1088 282 1088 174 1070 c 0,36,37
 125 1062 125 1062 93 1101 c 0,38,39
 78 1120 78 1120 74 1142 c 0,0,1
EndSplineSet
EndChar

StartChar: uni0667
Encoding: 257 1639 257
Width: 1158
GlyphClass: 2
Flags: W
LayerCount: 2
Fore
SplineSet
114 1240 m 0,0,1
 156 1267 156 1267 202 1242 c 0,2,3
 222 1230 222 1230 234 1212 c 0,4,5
 409 935 409 935 488 749 c 0,6,7
 554 592 554 592 593 423 c 1,8,9
 656 728 656 728 810 1032 c 0,10,11
 856 1123 856 1123 922 1240 c 0,12,13
 947 1283 947 1283 996 1284 c 0,14,15
 1021 1285 1021 1285 1042 1273 c 0,16,17
 1085 1248 1085 1248 1086 1199 c 0,18,19
 1085 1174 1085 1174 1074 1154 c 0,20,21
 894 837 894 837 815 609 c 0,22,23
 720 338 720 338 684 -9 c 0,24,25
 679 -55 679 -55 637 -77 c 0,26,27
 625 -84 625 -84 612 -86 c 0,28,29
 563 -95 563 -95 530 -56 c 0,30,31
 513 -35 513 -35 510 -9 c 0,32,33
 471 368 471 368 342 661 c 0,34,35
 262 840 262 840 86 1120 c 0,36,37
 59 1162 59 1162 84 1208 c 0,38,39
 96 1228 96 1228 114 1240 c 0,0,1
EndSplineSet
EndChar

StartChar: uni0668
Encoding: 258 1640 258
Width: 1168
GlyphClass: 2
Flags: W
LayerCount: 2
Fore
SplineSet
1054 -88 m 0,0,1
 1012 -114 1012 -114 966 -90 c 0,2,3
 946 -78 946 -78 934 -60 c 0,4,5
 756 227 756 227 677 426 c 0,6,7
 616 578 616 578 579 743 c 1,8,9
 516 458 516 458 372 190 c 0,10,11
 318 89 318 89 234 -46 c 0,12,13
 209 -86 209 -86 160 -87 c 0,14,15
 134 -86 134 -86 114 -74 c 0,16,17
 74 -49 74 -49 73 0 c 0,18,19
 74 26 74 26 86 46 c 0,20,21
 266 336 266 336 345 532 c 0,22,23
 452 802 452 802 491 1175 c 0,24,25
 496 1222 496 1222 538 1244 c 0,26,27
 550 1250 550 1250 562 1252 c 0,28,29
 612 1261 612 1261 645 1222 c 0,30,31
 662 1201 662 1201 665 1175 c 0,32,33
 705 793 705 793 827 503 c 0,34,35
 907 313 907 313 1082 32 c 0,36,37
 1108 -10 1108 -10 1084 -56 c 0,38,39
 1072 -76 1072 -76 1054 -88 c 0,0,1
EndSplineSet
EndChar

StartChar: uni0669
Encoding: 259 1641 259
Width: 1022
GlyphClass: 2
Flags: W
LayerCount: 2
Fore
SplineSet
451 1286 m 0,0,1
 726 1286 726 1286 792 948 c 0,2,3
 808 869 808 869 811 774 c 0,4,5
 826 352 826 352 871 175 c 0,6,7
 892 95 892 95 920 40 c 0,8,9
 943 -4 943 -4 915 -47 c 0,10,11
 902 -67 902 -67 882 -78 c 0,12,13
 838 -101 838 -101 795 -73 c 0,14,15
 776 -59 776 -59 765 -40 c 0,16,17
 678 127 678 127 653 444 c 0,18,19
 651.012517835 468.733111383 651.012517835 468.733111383 649.073802164 498.342871353 c 1,20,21
 632.885313415 488.46330175 632.885313415 488.46330175 614 486 c 0,22,23
 530 478 530 478 484 478 c 0,24,25
 294 478 294 478 182 571 c 0,26,27
 72 663 72 663 72 823 c 0,28,29
 72 975 72 975 145 1102 c 0,30,31
 241 1268 241 1268 415 1284 c 0,32,33
 433 1286 433 1286 451 1286 c 0,0,1
640.863127123 650.389580272 m 1,34,35
 638.387047952 704.743229255 638.387047952 704.743229255 636 768 c 0,36,37
 628 1014 628 1014 544 1081 c 0,38,39
 504 1112 504 1112 445 1112 c 0,40,41
 350 1112 350 1112 294 1012 c 0,42,43
 248 931 248 931 248 823 c 0,44,45
 248 704 248 704 349 669 c 0,46,47
 401 652 401 652 484 652 c 0,48,49
 552 652 552 652 592 658 c 0,50,51
 619.15122864 661.39390358 619.15122864 661.39390358 640.863127123 650.389580272 c 1,34,35
EndSplineSet
EndChar

StartChar: uni066B
Encoding: 261 1643 261
Width: 454
GlyphClass: 2
Flags: W
LayerCount: 2
Fore
SplineSet
388 584 m 0,0,1
 432 565 432 565 440 517 c 0,2,3
 443 492 443 492 434 470 c 2,4,-1
 52 -418 l 2,5,6
 33 -462 33 -462 -15 -470 c 0,7,8
 -40 -473 -40 -473 -62 -464 c 0,9,10
 -105 -445 -105 -445 -114 -397 c 0,11,12
 -118 -371 -118 -371 -108 -348 c 2,13,-1
 274 538 l 2,14,15
 293 582 293 582 341 590 c 0,16,17
 366 593 366 593 388 584 c 0,0,1
EndSplineSet
EndChar

StartChar: uni06F4
Encoding: 281 1780 281
Width: 1118
GlyphClass: 2
Flags: W
LayerCount: 2
Fore
SplineSet
1025 612 m 0,0,1
 1030 564 1030 564 990 534 c 0,2,3
 970 519 970 519 947 516 c 0,4,5
 881 510 881 510 824 510 c 0,6,7
 614.786775093 510 614.786775093 510 452.659147601 601.181633093 c 1,8,9
 427.165585467 602.666458126 427.165585467 602.666458126 408.608160573 616.289523328 c 1,10,11
 495.03095297 368.64026011 495.03095297 368.64026011 496 13 c 0,12,13
 496 6 496 6 496 0 c 0,14,15
 496 -49 496 -49 453 -75 c 0,16,17
 432 -87 432 -87 408 -87 c 0,18,19
 359 -87 359 -87 334 -45 c 0,20,21
 321 -24 321 -24 321 0 c 0,22,23
 321 382 321 382 230 634 c 0,24,25
 182 765 182 765 106 883 c 0,26,27
 82 922 82 922 101 965 c 0,28,29
 109 984 109 984 124 997 c 0,30,31
 163 1030 163 1030 211 1010 c 0,32,33
 236 1000 236 1000 251 980 c 0,34,35
 314.164026846 891.079768032 314.164026846 891.079768032 381.84085711 831.868825225 c 1,36,37
 412.417598645 1042.85239374 412.417598645 1042.85239374 538 1176 c 0,38,39
 641 1285 641 1285 799 1328 c 0,40,41
 847 1342 847 1342 883 1305 c 0,42,43
 900 1288 900 1288 906 1266 c 0,44,45
 919 1218 919 1218 884 1182 c 0,46,47
 867 1165 867 1165 845 1158 c 0,48,49
 585 1087 585 1087 552 786 c 0,50,51
 549.175704863 759.451625711 549.175704863 759.451625711 547.94673833 731.626988538 c 1,52,53
 667.557656924 686 667.557656924 686 824 686 c 0,54,55
 893 686 893 686 929 690 c 0,56,57
 977 695 977 695 1007 655 c 0,58,59
 1022 635 1022 635 1025 612 c 0,0,1
EndSplineSet
EndChar

StartChar: uni06F5
Encoding: 282 1781 282
Width: 1155
GlyphClass: 2
Flags: W
LayerCount: 2
Fore
SplineSet
293 1218 m 0,0,1
 320 1259 320 1259 370 1256 c 0,2,3
 394 1254 394 1254 414 1242 c 0,4,5
 522.222091863 1169.44547081 522.222091863 1169.44547081 613.623109893 1095.03225944 c 1,6,7
 655.750987035 1116.124327 655.750987035 1116.124327 697 1088 c 0,8,9
 715 1075 715 1075 726 1057 c 0,10,11
 745.677502739 1022.94278372 745.677502739 1022.94278372 733.851712176 989.458354593 c 1,12,13
 859.344678333 870.040649368 859.344678333 870.040649368 943 746 c 0,14,15
 1082 538 1082 538 1082 342 c 0,16,17
 1082 158 1082 158 993 39 c 0,18,19
 906 -75 906 -75 772 -76 c 0,20,21
 669.983950467 -75.281577116 669.983950467 -75.281577116 576.226003979 4.92108757523 c 1,22,23
 520.177086708 -45.0194435444 520.177086708 -45.0194435444 449 -64 c 0,24,25
 413 -74 413 -74 378 -74 c 0,26,27
 244 -74 244 -74 158 36 c 128,-1,28
 72 146 72 146 72 317 c 0,29,30
 72 623 72 623 329 881 c 0,31,32
 389.657871035 941.657871035 389.657871035 941.657871035 457.733841503 993.461881458 c 1,33,34
 389.185774926 1048.68750325 389.185774926 1048.68750325 318 1096 c 0,35,36
 277 1122 277 1122 279 1173 c 0,37,38
 280 1198 280 1198 293 1218 c 0,0,1
591.797939114 875.475164673 m 1,39,40
 476.365760027 794.019074132 476.365760027 794.019074132 390 685 c 0,41,42
 248 505 248 505 248 317 c 0,43,44
 248 149 248 149 335 109 c 0,45,46
 355 100 355 100 378 100 c 0,47,48
 445 102 445 102 498 182 c 0,49,50
 511.241992188 202.10821036 511.241992188 202.10821036 530.016300764 212.113929894 c 0,51,52
 563.861466898 231.888170233 563.861466898 231.888170233 604 216 c 0,53,54
 626 207 626 207 640 190 c 0,55,56
 708 107 708 107 767 99 c 0,57,58
 773 98 773 98 777 98 c 0,59,60
 844 98 844 98 880 178 c 0,61,62
 908 241 908 241 908 342 c 0,63,64
 908 558 908 558 632 836 c 0,65,66
 612.023126373 856.110052785 612.023126373 856.110052785 591.797939114 875.475164673 c 1,39,40
EndSplineSet
EndChar

StartChar: uni06F6
Encoding: 283 1782 283
Width: 976
GlyphClass: 2
Flags: W
LayerCount: 2
Fore
SplineSet
894 660 m 0,0,1
 918 614 918 614 888 571 c 0,2,3
 875 552 875 552 856 542 c 0,4,5
 570 398 570 398 390 159 c 0,6,7
 323 69 323 69 262 -42 c 0,8,9
 238 -85 238 -85 189 -87 c 0,10,11
 165 -87 165 -87 144 -76 c 0,12,13
 101 -52 101 -52 99 -3 c 0,14,15
 99 21 99 21 110 42 c 0,16,17
 250.009215227 297.310921885 250.009215227 297.310921885 444.393742702 473.020871203 c 1,18,19
 321.821647761 488.290673682 321.821647761 488.290673682 227 550 c 0,20,21
 73 653 73 653 72 839 c 0,22,23
 72 1000 72 1000 178 1128 c 0,24,25
 280 1251 280 1251 428 1279 c 0,26,27
 465 1286 465 1286 501 1286 c 0,28,29
 626 1285 626 1285 735 1206 c 0,30,31
 774 1177 774 1177 769 1127 c 0,32,33
 766 1103 766 1103 753 1084 c 0,34,35
 724 1045 724 1045 674 1050 c 0,36,37
 650 1053 650 1053 631 1066 c 0,38,39
 571 1112 571 1112 501 1112 c 0,40,41
 409 1112 409 1112 332 1035 c 1,42,43
 251 946 251 946 248 839 c 0,44,45
 248 722 248 722 364 671 c 0,46,47
 432 642 432 642 528 642 c 0,48,49
 641.513218599 642 641.513218599 642 769.585014548 694.774842423 c 0,50,51
 772.786300587 696.39315052 772.786300587 696.39315052 776 698 c 0,52,53
 822 722 822 722 865 692 c 0,54,55
 884 679 884 679 894 660 c 0,0,1
EndSplineSet
EndChar

StartChar: quoteleft
Encoding: 291 8216 291
Width: 644
GlyphClass: 2
Flags: W
LayerCount: 2
Fore
SplineSet
335 1378 m 0,0,1
 245 1378 245 1378 223 1286 c 0,2,3
 216 1258 216 1258 216 1225 c 0,4,5
 216 1194.8671108 216 1194.8671108 219.418518277 1165.5155972 c 1,6,7
 221.412527135 1168.27634435 221.412527135 1168.27634435 224 1171 c 0,8,9
 228 1175 228 1175 232 1178 c 0,10,11
 254 1191 254 1191 274 1171 c 0,12,13
 278 1167 278 1167 280 1163 c 0,14,15
 291 1143 291 1143 326 1139 c 0,16,17
 330 1138 330 1138 335 1138 c 0,18,19
 384 1138 384 1138 412 1192 c 0,20,21
 428 1224 428 1224 428 1261 c 0,22,23
 428 1346 428 1346 373 1371 c 0,24,25
 356 1378 356 1378 335 1378 c 0,0,1
228.388065129 1113.10774701 m 1,26,27
 252.06586824 1008.88172166 252.06586824 1008.88172166 321 915 c 0,28,29
 347 880 347 880 376 851 c 0,30,31
 396 831 396 831 384 808 c 0,32,33
 381 803 381 803 378 800 c 0,34,35
 359 781 359 781 335 793 c 0,36,37
 330 796 330 796 326 799 c 0,38,39
 201 919 201 919 160 1092 c 0,40,41
 144 1159 144 1159 144 1225 c 0,42,43
 144 1350 144 1350 221 1412 c 0,44,45
 270 1450 270 1450 335 1450 c 0,46,47
 435 1450 435 1450 479 1359 c 0,48,49
 500 1314 500 1314 500 1261 c 0,50,51
 500 1176 500 1176 448 1117 c 0,52,53
 401 1067 401 1067 335 1066 c 0,54,55
 268 1066 268 1066 230 1111 c 0,56,57
 229.180320643 1112.05387346 229.180320643 1112.05387346 228.388065129 1113.10774701 c 1,26,27
EndSplineSet
EndChar

StartChar: uniE000
Encoding: 302 57344 302
Width: 509
GlyphClass: 2
Flags: W
LayerCount: 2
Fore
SplineSet
108 141 m 0,0,1
 108 190 108 190 151 220 c 0,2,3
 179 239 179 239 212 239 c 0,4,5
 269 239 269 239 300 183 c 0,6,7
 312 160 312 160 312 141 c 0,8,9
 312 97 312 97 282 62 c 0,10,11
 254 30 254 30 209 30 c 0,12,13
 138 30 138 30 115 102 c 0,14,15
 108 123 108 123 108 141 c 0,0,1
EndSplineSet
EndChar

StartChar: uniE001
Encoding: 303 57345 303
Width: 660
GlyphClass: 2
Flags: W
LayerCount: 2
Fore
SplineSet
60 57 m 0,0,1
 34 92 34 92 55 132 c 0,2,3
 63 147 63 147 76 156 c 0,4,5
 212 254 212 254 380 254 c 0,6,7
 510 254 510 254 572 195 c 0,8,9
 615 153 615 153 610 90 c 0,10,11
 609 41 609 41 569 20 c 0,12,13
 553 13 553 13 536 13 c 0,14,15
 490 14 490 14 474 52 c 0,16,17
 471 59 471 59 470 66 c 0,18,19
 472 112 472 112 380 112 c 0,20,21
 253 111 253 111 160 42 c 0,22,23
 123 15 123 15 83 37 c 0,24,25
 69 45 69 45 60 57 c 0,0,1
EndSplineSet
EndChar

StartChar: uniE002
Encoding: 304 57346 304
Width: 696
GlyphClass: 2
Flags: W
LayerCount: 2
Fore
SplineSet
402 536 m 0,0,1
 512 536 512 536 574 479 c 0,2,3
 620 435 620 435 620 371 c 0,4,5
 620 260 620 260 511 155 c 0,6,7
 429 77 429 77 341 50 c 0,8,9
 300 37 300 37 269 69 c 0,10,11
 258 82 258 82 253 98 c 0,12,13
 238 151 238 151 297 183 c 0,14,15
 300 185 300 185 302 186 c 0,16,17
 355 206 355 206 415 264 c 0,18,19
 467 316 467 316 468 349 c 0,20,21
 466 394 466 394 390 395 c 0,22,23
 309 395 309 395 173 344 c 0,24,25
 139 332 139 332 126 324 c 0,26,27
 62 295 62 295 28 339 c 0,28,29
 2 376 2 376 23 415 c 0,30,31
 31 429 31 429 43 438 c 0,32,33
 116 491 116 491 258 520 c 0,34,35
 335 536 335 536 402 536 c 0,0,1
EndSplineSet
EndChar

StartChar: uniE003
Encoding: 305 57347 305
Width: 696
GlyphClass: 2
Flags: W
LayerCount: 2
Fore
SplineSet
436 66 m 0,0,1
 401 90 401 90 404 132 c 0,2,3
 406 151 406 151 416 166 c 0,4,5
 432 189 432 189 432 230 c 0,6,7
 432 301 432 301 366 325 c 0,8,9
 340 334 340 334 308 334 c 0,10,11
 247 334 247 334 213 287 c 0,12,13
 194 261 194 261 194 234 c 0,14,15
 194 178 194 178 236 132 c 0,16,17
 251 116 251 116 281 88 c 0,18,19
 312 59 312 59 302 17 c 0,20,21
 297 0 297 0 286 -12 c 0,22,23
 257 -43 257 -43 215 -32 c 0,24,25
 197 -27 197 -27 185 -16 c 0,26,27
 112 51 112 51 84 102 c 0,28,29
 50 163 50 163 50 234 c 0,30,31
 50 341 50 341 136 414 c 0,32,33
 212 478 212 478 308 478 c 0,34,35
 423 478 423 478 501 403 c 0,36,37
 574 333 574 333 574 230 c 0,38,39
 573 147 573 147 534 86 c 0,40,41
 510 51 510 51 468 55 c 0,42,43
 450 57 450 57 436 66 c 0,0,1
EndSplineSet
EndChar

StartChar: uniE007
Encoding: 309 57351 309
Width: 1067
GlyphClass: 2
Flags: W
LayerCount: 2
Fore
SplineSet
104 1380 m 0,0,1
 84 1418 84 1418 110 1455 c 0,2,3
 120 1468 120 1468 134 1476 c 2,4,-1
 728 1792 l 2,5,6
 767 1812 767 1812 803 1788 c 0,7,8
 816 1778 816 1778 824 1764 c 0,9,10
 844 1726 844 1726 818 1689 c 0,11,12
 808 1676 808 1676 794 1668 c 2,13,-1
 200 1350 l 2,14,15
 162 1330 162 1330 125 1356 c 0,16,17
 112 1366 112 1366 104 1380 c 0,0,1
EndSplineSet
EndChar

StartChar: uniE008
Encoding: 310 57352 310
Width: 250
GlyphClass: 2
Flags: W
LayerCount: 2
Fore
SplineSet
-88 45 m 0,0,1
 -88 94 -88 94 -45 120 c 0,2,3
 -24 132 -24 132 0 132 c 2,4,-1
 250 132 l 2,5,6
 299 132 299 132 325 90 c 0,7,8
 338 69 338 69 338 45 c 0,9,10
 338 -4 338 -4 295 -30 c 0,11,12
 274 -42 274 -42 250 -42 c 2,13,-1
 0 -42 l 2,14,15
 -49 -42 -49 -42 -75 0 c 0,16,17
 -88 21 -88 21 -88 45 c 0,0,1
EndSplineSet
EndChar

StartChar: uniE009
Encoding: 311 57353 311
Width: 150
GlyphClass: 2
Flags: W
LayerCount: 2
Fore
SplineSet
-88 45 m 0,0,1
 -88 94 -88 94 -45 120 c 0,2,3
 -24 132 -24 132 0 132 c 2,4,-1
 150 132 l 2,5,6
 199 132 199 132 225 90 c 0,7,8
 238 69 238 69 238 45 c 0,9,10
 238 -4 238 -4 195 -30 c 0,11,12
 174 -42 174 -42 150 -42 c 2,13,-1
 0 -42 l 2,14,15
 -49 -42 -49 -42 -75 0 c 0,16,17
 -88 21 -88 21 -88 45 c 0,0,1
EndSplineSet
EndChar

StartChar: uniE00C
Encoding: 314 57356 314
Width: 1069
GlyphClass: 2
Flags: W
LayerCount: 2
Fore
SplineSet
541 1058 m 0,0,1
 779 1058 779 1058 911 880 c 0,2,3
 1020 734 1020 734 1024 521 c 0,4,5
 1024 514 1024 514 1024 508 c 0,6,7
 1024 296 1024 296 919 146 c 0,8,9
 792 -34 792 -34 562 -42 c 0,10,11
 551 -42 551 -42 541 -42 c 0,12,13
 302 -42 302 -42 170 138 c 1,14,15
 62 294 62 294 60 508 c 0,16,17
 60 721 60 721 165 871 c 0,18,19
 292 1052 292 1052 526 1058 c 0,20,21
 534 1058 534 1058 541 1058 c 0,0,1
541 884 m 0,22,23
 355 884 355 884 278 727 c 0,24,25
 234 636 234 636 234 508 c 0,26,27
 234 287 234 287 355 191 c 0,28,29
 430 132 430 132 541 132 c 0,30,31
 727 132 727 132 804 289 c 0,32,33
 848 380 848 380 848 508 c 0,34,35
 848 729 848 729 727 825 c 0,36,37
 652 884 652 884 541 884 c 0,22,23
EndSplineSet
EndChar

StartChar: uniE00D
Encoding: 315 57357 315
Width: 950
GlyphClass: 2
Flags: W
LayerCount: 2
Fore
SplineSet
147 -88 m 0,0,1
 98 -88 98 -88 72 -45 c 0,2,3
 60 -24 60 -24 60 0 c 2,4,-1
 60 584 l 2,5,6
 60 779 60 779 161 910 c 0,7,8
 277 1057 277 1057 482 1058 c 0,9,10
 700 1058 700 1058 815 893 c 0,11,12
 904 765 904 765 904 584 c 2,13,-1
 904 0 l 2,14,15
 904 -49 904 -49 862 -75 c 0,16,17
 841 -88 841 -88 817 -88 c 0,18,19
 768 -88 768 -88 742 -45 c 0,20,21
 730 -24 730 -24 730 0 c 2,22,-1
 730 584 l 2,23,24
 730 810 730 810 583 867 c 0,25,26
 538 884 538 884 482 884 c 0,27,28
 297 884 297 884 249 709 c 0,29,30
 234 653 234 653 234 584 c 2,31,-1
 234 0 l 2,32,33
 234 -49 234 -49 192 -75 c 0,34,35
 171 -88 171 -88 147 -88 c 0,0,1
EndSplineSet
EndChar

StartChar: uniE00E
Encoding: 316 57358 316
Width: 850
GlyphClass: 2
Flags: W
LayerCount: 2
Fore
SplineSet
147 -88 m 0,0,1
 98 -88 98 -88 72 -45 c 0,2,3
 60 -24 60 -24 60 0 c 2,4,-1
 60 598 l 2,5,6
 60 801 60 801 157 928 c 0,7,8
 258 1057 258 1057 432 1058 c 0,9,10
 634 1058 634 1058 733 888 c 0,11,12
 804 767 804 767 804 598 c 2,13,-1
 804 0 l 2,14,15
 804 -49 804 -49 762 -75 c 0,16,17
 741 -88 741 -88 717 -88 c 0,18,19
 668 -88 668 -88 642 -45 c 0,20,21
 630 -24 630 -24 630 0 c 2,22,-1
 630 598 l 2,23,24
 630 844 630 844 480 879 c 0,25,26
 457 884 457 884 432 884 c 0,27,28
 276 884 276 884 242 701 c 0,29,30
 234 654 234 654 234 598 c 2,31,-1
 234 0 l 2,32,33
 234 -49 234 -49 192 -75 c 0,34,35
 171 -88 171 -88 147 -88 c 0,0,1
EndSplineSet
EndChar

StartChar: uniE012
Encoding: 319 57362 319
Width: 0
GlyphClass: 2
Flags: W
LayerCount: 2
Fore
SplineSet
416 1721 m 0,0,1
 416 1695 416 1695 392 1686 c 0,2,3
 386 1684 386 1684 380 1684 c 0,4,5
 270 1684 270 1684 181 1629 c 0,6,7
 117 1589 117 1589 116 1548 c 0,8,9
 116 1494 116 1494 229 1465 c 0,10,11
 230 1464 230 1464 231 1464 c 0,12,13
 382 1425 382 1425 391 1328 c 0,14,15
 392 1321 392 1321 392 1315 c 0,16,17
 392 1233 392 1233 279 1180 c 0,18,19
 170 1130 170 1130 14 1130 c 0,20,21
 -11 1130 -11 1130 -20 1153 c 0,22,23
 -22 1160 -22 1160 -22 1166 c 0,24,25
 -22 1191 -22 1191 1 1200 c 0,26,27
 8 1202 8 1202 14 1202 c 0,28,29
 197 1202 197 1202 284 1265 c 0,30,31
 319 1291 319 1291 320 1315 c 0,32,33
 320 1357 320 1357 255 1381 c 0,34,35
 236 1388 236 1388 213 1394 c 0,36,37
 71 1430 71 1430 49 1508 c 0,38,39
 44 1525 44 1525 44 1542 c 0,40,41
 44 1647 44 1647 170 1709 c 0,42,43
 267 1757 267 1757 380 1757 c 0,44,45
 405 1757 405 1757 414 1734 c 0,46,47
 416 1727 416 1727 416 1721 c 0,0,1
EndSplineSet
EndChar

StartChar: uniE014
Encoding: 321 57364 321
Width: 1693
GlyphClass: 2
Flags: W
LayerCount: 2
Fore
SplineSet
72 616 m 0,0,1
 72 924 72 924 246 1151 c 0,2,3
 391 1339 391 1339 609 1412 c 0,4,5
 719 1448 719 1448 831 1448 c 0,6,7
 1120 1448 1120 1448 1335 1292 c 0,8,9
 1520 1159 1520 1159 1588 956 c 0,10,11
 1620 860 1620 860 1620 760 c 0,12,13
 1620 429 1620 429 1420 215 c 0,14,15
 1231 13 1231 13 915 -31 c 0,16,17
 835 -42 835 -42 752 -42 c 0,18,19
 557 -42 557 -42 376 82 c 0,20,21
 204 201 204 201 124 379 c 0,22,23
 72 496 72 496 72 616 c 0,0,1
248 616 m 0,24,25
 248 465 248 465 367 327 c 0,26,27
 476 202 476 202 623 154 c 0,28,29
 690 132 690 132 752 132 c 0,30,31
 1102 132 1102 132 1286 321 c 0,32,33
 1446 486 1446 486 1446 760 c 0,34,35
 1446 926 1446 926 1329 1063 c 0,36,37
 1198 1216 1198 1216 982 1259 c 0,38,39
 908 1274 908 1274 831 1274 c 0,40,41
 649 1274 649 1274 496 1156 c 0,42,43
 326 1025 326 1025 271 805 c 0,44,45
 248 714 248 714 248 616 c 0,24,25
EndSplineSet
EndChar

StartChar: uniE015
Encoding: 322 57365 322
Width: 1693
GlyphClass: 2
Flags: W
LayerCount: 2
Fore
SplineSet
1058 922 m 0,0,1
 1036 896 1036 896 1002 906 c 0,2,3
 990 910 990 910 982 917 c 0,4,5
 930 964 930 964 859 964 c 0,6,7
 751 964 751 964 672 873 c 0,8,9
 597 785 597 785 597 672 c 0,10,11
 597 506 597 506 728 468 c 0,12,13
 763 458 763 458 806 458 c 0,14,15
 908 459 908 459 1000 514 c 0,16,17
 1030 533 1030 533 1060 511 c 0,18,19
 1068 504 1068 504 1074 496 c 0,20,21
 1093 466 1093 466 1071 436 c 0,22,23
 1064 428 1064 428 1056 422 c 0,24,25
 939 350 939 350 806 350 c 0,26,27
 636 350 636 350 550 471 c 0,28,29
 490 556 490 556 490 672 c 0,30,31
 490 814 490 814 579 929 c 0,32,33
 673 1051 673 1051 815 1069 c 0,34,35
 837 1072 837 1072 859 1072 c 0,36,37
 968 1071 968 1071 1053 998 c 0,38,39
 1079 976 1079 976 1069 942 c 0,40,41
 1065 930 1065 930 1058 922 c 0,0,1
EndSplineSet
EndChar

StartChar: uniE016
Encoding: 323 57366 323
Width: 1667
GlyphClass: 2
Flags: W
LayerCount: 2
Fore
SplineSet
558 856 m 0,0,1
 528 878 528 878 539 914 c 0,2,3
 542 923 542 923 548 931 c 0,4,5
 618 1025 618 1025 735 1049 c 0,6,7
 766 1055 766 1055 796 1055 c 0,8,9
 908 1055 908 1055 995 987 c 0,10,11
 1089 911 1089 911 1090 798 c 0,12,13
 1090 690 1090 690 1004 624 c 0,14,15
 964 594 964 594 914 580 c 1,16,17
 988 508 988 508 1104 443 c 0,18,19
 1134 427 1134 427 1131 391 c 0,20,21
 1129 380 1129 380 1124 370 c 0,22,23
 1108 339 1108 339 1072 344 c 0,24,25
 1061 345 1061 345 1052 350 c 0,26,27
 861 457 861 457 764 576 c 0,28,29
 755 587 755 587 753 606 c 0,30,31
 751 639 751 639 780 657 c 0,32,33
 793 664 793 664 806 664 c 0,34,35
 928 664 928 664 968 739 c 0,36,37
 982 766 982 766 982 798 c 0,38,39
 982 865 982 865 916 911 c 0,40,41
 862 948 862 948 796 948 c 0,42,43
 748.985136894 948 748.985136894 948 709.740735133 929.470438367 c 1,44,45
 738.330737878 925.724337488 738.330737878 925.724337488 750 897 c 0,46,47
 754 885 754 885 754 874 c 0,48,49
 744 650 744 650 717 384 c 0,50,51
 714 351 714 351 682 339 c 0,52,53
 670 335 670 335 658 336 c 0,54,55
 626 339 626 339 614 371 c 0,56,57
 609 384 609 384 610 396 c 0,58,59
 637 659 637 659 647 880 c 0,60,61
 647.04640125 881.577642512 647.04640125 881.577642512 647.159547858 883.107917351 c 1,62,63
 639.875301192 875.553958676 639.875301192 875.553958676 634 868 c 0,64,65
 612 839 612 839 577 847 c 0,66,67
 566 850 566 850 558 856 c 0,0,1
EndSplineSet
EndChar

StartChar: uniE01D
Encoding: 330 57373 330
Width: 1478
GlyphClass: 2
Flags: W
LayerCount: 2
Fore
SplineSet
95 1188 m 0,0,1
 95 1300 95 1300 191 1370 c 0,2,3
 269 1426 269 1426 367 1426 c 0,4,5
 492 1426 492 1426 561 1335 c 0,6,7
 612 1267 612 1267 612 1175 c 0,8,9
 612 1060 612 1060 536 980 c 0,10,11
 463 903 463 903 357 903 c 0,12,13
 240 903 240 903 162 1000 c 0,14,15
 95 1084 95 1084 95 1188 c 0,0,1
225 1188 m 0,16,17
 225 1116 225 1116 278 1067 c 0,18,19
 316 1033 316 1033 357 1033 c 0,20,21
 423 1033 423 1033 460 1091 c 0,22,23
 482 1128 482 1128 482 1175 c 0,24,25
 480 1295 480 1295 367 1296 c 0,26,27
 287 1296 287 1296 245 1242 c 0,28,29
 225 1216 225 1216 225 1188 c 0,16,17
1097 -9 m 0,30,31
 986 -9 986 -9 915 86 c 0,32,33
 858 163 858 163 858 263 c 0,34,35
 858 386 858 386 947 456 c 0,36,37
 1015 509 1015 509 1109 509 c 0,38,39
 1224 509 1224 509 1304 434 c 0,40,41
 1383 360 1383 360 1383 253 c 0,42,43
 1383 135 1383 135 1285 57 c 0,44,45
 1201 -9 1201 -9 1097 -9 c 0,30,31
1097 121 m 0,46,47
 1168 121 1168 121 1218 174 c 0,48,49
 1253 212 1253 212 1253 253 c 0,50,51
 1253 318 1253 318 1195 355 c 0,52,53
 1157 379 1157 379 1109 379 c 0,54,55
 989 377 989 377 988 263 c 0,56,57
 988 184 988 184 1041 142 c 0,58,59
 1068 121 1068 121 1097 121 c 0,46,47
EndSplineSet
EndChar

StartChar: uniE01E
Encoding: 331 57374 331
Width: 1857
GlyphClass: 2
Flags: W
LayerCount: 2
Fore
SplineSet
688 56 m 0,0,1
 694 102 694 102 737 123 c 0,2,3
 761 135 761 135 786 132 c 2,4,-1
 1005 132 l 2,5,6
 1399 132 1399 132 1527 226 c 0,7,8
 1591.77674034 273.607001938 1591.77674034 273.607001938 1605.99894949 352.277631478 c 1,9,10
 1522.99947474 328 1522.99947474 328 1440 328 c 0,11,12
 1248 328 1248 328 1148 437 c 0,13,14
 1068 525 1068 525 1068 665 c 0,15,16
 1068 816 1068 816 1132 943 c 0,17,18
 1226 1128 1226 1128 1411 1134 c 0,19,20
 1418 1134 1418 1134 1423 1134 c 0,21,22
 1703 1134 1703 1134 1766 685 c 0,23,24
 1784 559 1784 559 1784 399 c 0,25,26
 1784 108 1784 108 1471 11 c 0,27,28
 1361.50276059 -22.3526074059 1361.50276059 -22.3526074059 1205.27615926 -34.7166030991 c 1,29,30
 1209.73614521 -39.2996876369 1209.73614521 -39.2996876369 1214 -44 c 0,31,32
 1288 -127 1288 -127 1288 -234 c 0,33,34
 1288 -394 1288 -394 1130 -494 c 0,35,36
 966 -598 966 -598 703 -598 c 0,37,38
 342 -598 342 -598 188 -387 c 0,39,40
 92 -255 92 -255 92 -62 c 0,41,42
 92 150 92 150 201 449 c 0,43,44
 217 493 217 493 263 504 c 0,45,46
 289 509 289 509 313 501 c 0,47,48
 356 486 356 486 368 440 c 0,49,50
 374 414 374 414 366 389 c 0,51,52
 268 121 268 121 268 -62 c 0,53,54
 268 -254 268 -254 370 -338 c 0,55,56
 475 -422 475 -422 703 -422 c 0,57,58
 966 -422 966 -422 1070 -322 c 0,59,60
 1113 -279 1113 -279 1114 -234 c 0,61,62
 1114 -150 1114 -150 992 -97 c 0,63,64
 904 -59 904 -59 764 -42 c 0,65,66
 718 -36 718 -36 697 7 c 0,67,68
 685 31 685 31 688 56 c 0,0,1
1605.99979208 537.94599172 m 1,69,70
 1590.92072012 781.93341345 1590.92072012 781.93341345 1519 891 c 0,71,72
 1474 957 1474 957 1414 958 c 0,73,74
 1323 958 1323 958 1275 847 c 0,75,76
 1242 770 1242 770 1242 672 c 0,77,78
 1242 548 1242 548 1338 515 c 0,79,80
 1380 502 1380 502 1440 502 c 0,81,82
 1521 502 1521 502 1598 535 c 0,83,84
 1602.01897945 536.66001325 1602.01897945 536.66001325 1605.99979208 537.94599172 c 1,69,70
EndSplineSet
EndChar

